<?xml version="1.0" standalone="no"?><!DOCTYPE svg PUBLIC "-//W3C//DTD SVG 1.1//EN" "http://www.w3.org/Graphics/SVG/1.1/DTD/svg11.dtd" ><svg version="1.1" xmlns="http://www.w3.org/2000/svg"><defs><font horiz-adv-x="0" id="font"><font-face ascent="750" bbox="-75 -261 1381 1092" cap-height="730" descent="-250" font-family="Sharp Sans No1 Semibold" font-stretch="normal" font-style="normal" font-weight="600" units-per-em="1000" x-height="500" /><missing-glyph d="M133 648V82L416 365ZM767 82V648L484 365ZM450 399 733 682H167ZM167 48H733L450 331ZM85 730H815V0H85Z" horiz-adv-x="900" /><glyph d="M232 260H464L348 580ZM292 730H404L672 0H559L502 156H194L138 0H24Z" glyph-name="A" horiz-adv-x="696" unicode="A" /><glyph d="M254 254H476L401 572ZM359 730H926V627H498L549 418H926V315H574L625 104H926V0H537L500 154H208L137 0H20Z" glyph-name="AE" horiz-adv-x="980" unicode="&#198;" /><glyph d="M643 950H757L609 784H527ZM276 254H498L423 572ZM381 730H948V627H520L571 418H948V315H596L647 104H948V0H559L522 154H230L159 0H42Z" glyph-name="AEacute" horiz-adv-x="1016" unicode="&#508;" /><glyph d="M418 950H532L384 784H302ZM232 260H464L348 580ZM292 730H404L672 0H559L502 156H194L138 0H24Z" glyph-name="Aacute" horiz-adv-x="696" unicode="&#193;" /><glyph d="M344 780Q303 780 272.5 793Q242 806 222 828.5Q202 851 192.5 881Q183 911 183 946H259Q259 898 280.5 872.5Q302 847 344 846Q385 847 407 872.5Q429 898 429 946H506Q506 911 494.5 881Q483 851 462 828.5Q441 806 411 793Q381 780 344 780ZM232 260H464L348 580ZM292 730H404L672 0H559L502 156H194L138 0H24Z" glyph-name="Abreve" horiz-adv-x="696" unicode="&#258;" /><glyph d="M306 950H381L500 784H409L343 878L279 784H187ZM232 260H464L348 580ZM292 730H404L672 0H559L502 156H194L138 0H24Z" glyph-name="Acircumflex" horiz-adv-x="696" unicode="&#194;" /><glyph d="M212 926H319V788H212ZM373 926H480V788H373ZM232 260H464L348 580ZM292 730H404L672 0H559L502 156H194L138 0H24Z" glyph-name="Adieresis" horiz-adv-x="696" unicode="&#196;" /><glyph d="M158 950H272L388 784H306ZM232 260H464L348 580ZM292 730H404L672 0H559L502 156H194L138 0H24Z" glyph-name="Agrave" horiz-adv-x="696" unicode="&#192;" /><glyph d="M214 861H478V784H214ZM232 260H464L348 580ZM292 730H404L672 0H559L502 156H194L138 0H24Z" glyph-name="Amacron" horiz-adv-x="696" unicode="&#256;" /><glyph d="M292 730H404L672 0H559L348 580L138 0H24Z" glyph-name="Anocross" horiz-adv-x="696" unicode="&#59185;" /><glyph d="M232 260H464L348 580ZM593 -222Q530 -222 492 -192Q454 -162 454 -117Q454 -84 475 -53Q496 -22 554 13L502 156H194L138 0H24L292 730H404L672 0H669L671 -1Q632 -26 607 -42.5Q582 -59 568 -71Q554 -83 549 -93Q544 -103 544 -113Q544 -131 558.5 -139.5Q573 -148 593 -148Q616 -148 631 -138.5Q646 -129 660 -117L731 -165Q705 -188 667.5 -205Q630 -222 593 -222Z" glyph-name="Aogonek" horiz-adv-x="696" unicode="&#260;" /><glyph d="M344 734Q363 734 376 746.5Q389 759 389 777Q389 795 376 808.5Q363 822 344 822Q327 822 314 808.5Q301 795 301 777Q301 759 314 746.5Q327 734 344 734ZM232 260H464L348 580ZM276 688Q256 703 244.5 726Q233 749 233 777Q233 801 242 821.5Q251 842 266 857Q281 872 301 881Q321 890 344 890Q368 890 389 881Q410 872 425 857Q440 842 449 821.5Q458 801 458 777Q458 751 447 729Q436 707 418 691L672 0H559L502 156H194L138 0H24Z" glyph-name="Aring" horiz-adv-x="696" unicode="&#197;" /><glyph d="M344 735Q363 735 376 747.5Q389 760 389 778Q389 796 376 809.5Q363 823 344 823Q327 823 314 809.5Q301 796 301 778Q301 760 314 747.5Q327 735 344 735ZM417 1092H531L383 926H301ZM232 260H465L348 581ZM277 688Q257 704 245 727Q233 750 233 778Q233 802 242 822.5Q251 843 266 858Q281 873 301 882Q321 891 344 891Q368 891 389 882Q410 873 425 858Q440 843 449 822.5Q458 802 458 778Q458 752 447.5 729.5Q437 707 418 692L672 0H559L502 156H194L138 0H24Z" glyph-name="Aringacute" horiz-adv-x="696" unicode="&#506;" /><glyph d="M173 784Q173 842 200.5 877Q228 912 275 912Q300 912 318.5 904Q337 896 354 886Q369 876 383 868Q397 860 411 860Q444 860 444 908H515Q515 849 489 814.5Q463 780 412 780Q383 780 362 790.5Q341 801 323 812Q310 820 299.5 825.5Q289 831 275 831Q244 831 244 784ZM232 260H464L348 580ZM292 730H404L672 0H559L502 156H194L138 0H24Z" glyph-name="Atilde" horiz-adv-x="696" unicode="&#195;" /><glyph d="M87 730H194V592H87ZM504 730H612V592H504ZM232 260H464L348 580ZM292 730H404L672 0H559L502 156H194L138 0H24Z" glyph-name="Aumlaut" horiz-adv-x="696" unicode="&#61814;" /><glyph d="M165 631V426H307Q373 426 403.5 455.5Q434 485 434 531Q434 579 401 605Q368 631 303 631ZM165 325V100H320Q385 100 421 131Q457 162 457 213Q457 265 424 295Q391 325 315 325ZM56 730H303Q414 730 478.5 677.5Q543 625 543 531Q543 482 521.5 444Q500 406 457 382Q510 359 538 316Q566 273 566 211Q566 160 548.5 121Q531 82 499 55Q467 28 421.5 14Q376 0 320 0H56Z" glyph-name="B" horiz-adv-x="601" unicode="B" /><glyph d="M410 -10Q329 -10 260.5 19.5Q192 49 141.5 100Q91 151 63 219Q35 287 35 365Q35 445 64 513.5Q93 582 144 632.5Q195 683 263.5 711.5Q332 740 410 740Q462 740 509.5 726.5Q557 713 598.5 689Q640 665 674.5 631Q709 597 733 556L638 497Q604 560 546 597.5Q488 635 410 635Q353 635 304.5 614Q256 593 220 556.5Q184 520 164 470.5Q144 421 144 365Q144 309 164 260.5Q184 212 219.5 175.5Q255 139 303.5 118Q352 97 409 97Q494 97 553.5 139Q613 181 645 247L743 195Q719 149 685 111.5Q651 74 608.5 47Q566 20 516 5Q466 -10 410 -10Z" glyph-name="C" horiz-adv-x="761" unicode="C" /><glyph d="M410 -10Q329 -10 260.5 19.5Q192 49 141.5 100Q91 151 63 219Q35 287 35 365Q35 445 64 513.5Q93 582 144 632.5Q195 683 263.5 711.5Q332 740 410 740Q462 740 509.5 726.5Q557 713 598.5 689Q640 665 674.5 631Q709 597 733 556L638 497Q604 560 546 597.5Q488 635 410 635Q353 635 304.5 614Q256 593 220 556.5Q184 520 164 470.5Q144 421 144 365Q144 309 164 260.5Q184 212 219.5 175.5Q255 139 303.5 118Q352 97 409 97Q494 97 553.5 139Q613 181 645 247L743 195Q719 149 685 111.5Q651 74 608.5 47Q566 20 516 5Q466 -10 410 -10ZM480 950H594L446 784H364Z" glyph-name="Cacute" horiz-adv-x="761" unicode="&#262;" /><glyph d="M252 950H344L408 856L474 950H565L446 784H371ZM410 -10Q329 -10 260.5 19.5Q192 49 141.5 100Q91 151 63 219Q35 287 35 365Q35 445 64 513.5Q93 582 144 632.5Q195 683 263.5 711.5Q332 740 410 740Q462 740 509.5 726.5Q557 713 598.5 689Q640 665 674.5 631Q709 597 733 556L638 497Q604 560 546 597.5Q488 635 410 635Q353 635 304.5 614Q256 593 220 556.5Q184 520 164 470.5Q144 421 144 365Q144 309 164 260.5Q184 212 219.5 175.5Q255 139 303.5 118Q352 97 409 97Q494 97 553.5 139Q613 181 645 247L743 195Q719 149 685 111.5Q651 74 608.5 47Q566 20 516 5Q466 -10 410 -10Z" glyph-name="Ccaron" horiz-adv-x="761" unicode="&#268;" /><glyph d="M405 -237Q362 -237 325.5 -221.5Q289 -206 261 -180L330 -138Q348 -152 365.5 -162Q383 -172 411 -172Q436 -172 454 -162Q472 -152 472 -137Q472 -105 408 -105H362V-7Q290 2 230 34Q170 66 126.5 115.5Q83 165 59 229Q35 293 35 365Q35 445 64 513.5Q93 582 144 632.5Q195 683 263.5 711.5Q332 740 410 740Q462 740 509.5 726.5Q557 713 598.5 689Q640 665 674.5 631Q709 597 733 556L638 497Q604 560 546 597.5Q488 635 410 635Q353 635 304.5 614Q256 593 220 556.5Q184 520 164 470.5Q144 421 144 365Q144 309 164 260.5Q184 212 219.5 175.5Q255 139 303.5 118Q352 97 409 97Q494 97 553.5 139Q613 181 645 247L743 195Q698 108 619 53Q540 -2 437 -9V-53Q491 -51 522.5 -74.5Q554 -98 554 -133Q554 -156 542 -175Q530 -194 510 -208Q490 -222 463 -229.5Q436 -237 405 -237Z" glyph-name="Ccedilla" horiz-adv-x="761" unicode="&#199;" /><glyph d="M374 950H449L568 784H477L411 878L347 784H255ZM410 -10Q329 -10 260.5 19.5Q192 49 141.5 100Q91 151 63 219Q35 287 35 365Q35 445 64 513.5Q93 582 144 632.5Q195 683 263.5 711.5Q332 740 410 740Q462 740 509.5 726.5Q557 713 598.5 689Q640 665 674.5 631Q709 597 733 556L638 497Q604 560 546 597.5Q488 635 410 635Q353 635 304.5 614Q256 593 220 556.5Q184 520 164 470.5Q144 421 144 365Q144 309 164 260.5Q184 212 219.5 175.5Q255 139 303.5 118Q352 97 409 97Q494 97 553.5 139Q613 181 645 247L743 195Q719 149 685 111.5Q651 74 608.5 47Q566 20 516 5Q466 -10 410 -10Z" glyph-name="Ccircumflex" horiz-adv-x="761" unicode="&#264;" /><glyph d="M364 926H471V788H364ZM410 -10Q329 -10 260.5 19.5Q192 49 141.5 100Q91 151 63 219Q35 287 35 365Q35 445 64 513.5Q93 582 144 632.5Q195 683 263.5 711.5Q332 740 410 740Q462 740 509.5 726.5Q557 713 598.5 689Q640 665 674.5 631Q709 597 733 556L638 497Q604 560 546 597.5Q488 635 410 635Q353 635 304.5 614Q256 593 220 556.5Q184 520 164 470.5Q144 421 144 365Q144 309 164 260.5Q184 212 219.5 175.5Q255 139 303.5 118Q352 97 409 97Q494 97 553.5 139Q613 181 645 247L743 195Q719 149 685 111.5Q651 74 608.5 47Q566 20 516 5Q466 -10 410 -10Z" glyph-name="Cdotaccent" horiz-adv-x="761" unicode="&#266;" /><glyph d="M165 630V101H251Q314 101 365.5 121Q417 141 454 176.5Q491 212 511 260.5Q531 309 531 365Q531 422 512.5 471Q494 520 458 555Q422 590 369 610Q316 630 247 630ZM56 730H258Q347 730 418 702Q489 674 538.5 625Q588 576 614.5 509.5Q641 443 641 365Q641 287 612.5 220Q584 153 533.5 104.5Q483 56 413.5 28Q344 0 262 0H56Z" glyph-name="D" horiz-adv-x="676" unicode="D" /><glyph d="M123 950H215L279 856L345 950H436L317 784H242ZM165 630V101H251Q314 101 365.5 121Q417 141 454 176.5Q491 212 511 260.5Q531 309 531 365Q531 422 512.5 471Q494 520 458 555Q422 590 369 610Q316 630 247 630ZM56 730H258Q347 730 418 702Q489 674 538.5 625Q588 576 614.5 509.5Q641 443 641 365Q641 287 612.5 220Q584 153 533.5 104.5Q483 56 413.5 28Q344 0 262 0H56Z" glyph-name="Dcaron" horiz-adv-x="676" unicode="&#270;" /><glyph d="M203 630V415H391V318H203V101H287Q350 101 402 121Q454 141 491 176.5Q528 212 548.5 260.5Q569 309 569 365Q569 422 550 471Q531 520 494.5 555Q458 590 405 610Q352 630 283 630ZM22 415H94V730H295Q384 730 455 702Q526 674 575.5 625Q625 576 651.5 509.5Q678 443 678 365Q678 287 649.5 220Q621 153 570.5 104.5Q520 56 450.5 28Q381 0 299 0H94V318H22Z" glyph-name="Dcroat" horiz-adv-x="713" unicode="&#272;" /><glyph d="M202 104H695L448 533ZM20 0 449 742 877 0Z" glyph-name="Delta" horiz-adv-x="897" unicode="&#8710;" /><glyph d="M56 730H494V627H165V418H494V315H165V104H494V0H56Z" glyph-name="E" horiz-adv-x="540" unicode="E" /><glyph d="M334 950H448L300 784H218ZM56 730H494V627H165V418H494V315H165V104H494V0H56Z" glyph-name="Eacute" horiz-adv-x="540" unicode="&#201;" /><glyph d="M275 780Q234 780 203.5 793Q173 806 153 828.5Q133 851 123.5 881Q114 911 114 946H190Q190 898 211.5 872.5Q233 847 275 846Q316 847 338 872.5Q360 898 360 946H437Q437 911 425.5 881Q414 851 393 828.5Q372 806 342 793Q312 780 275 780ZM56 730H494V627H165V418H494V315H165V104H494V0H56Z" glyph-name="Ebreve" horiz-adv-x="540" unicode="&#276;" /><glyph d="M114 950H206L270 856L336 950H427L308 784H233ZM56 730H494V627H165V418H494V315H165V104H494V0H56Z" glyph-name="Ecaron" horiz-adv-x="541" unicode="&#282;" /><glyph d="M234 950H309L428 784H337L271 878L207 784H115ZM56 730H494V627H165V418H494V315H165V104H494V0H56Z" glyph-name="Ecircumflex" horiz-adv-x="540" unicode="&#202;" /><glyph d="M304 926H411V788H304ZM143 926H250V788H143ZM56 730H494V627H165V418H494V315H165V104H494V0H56Z" glyph-name="Edieresis" horiz-adv-x="540" unicode="&#203;" /><glyph d="M235 926H342V788H235ZM56 730H494V627H165V418H494V315H165V104H494V0H56Z" glyph-name="Edotaccent" horiz-adv-x="540" unicode="&#278;" /><glyph d="M94 950H208L324 784H242ZM56 730H494V627H165V418H494V315H165V104H494V0H56Z" glyph-name="Egrave" horiz-adv-x="540" unicode="&#200;" /><glyph d="M140 861H404V784H140ZM56 730H494V627H165V418H494V315H165V104H494V0H56Z" glyph-name="Emacron" horiz-adv-x="540" unicode="&#274;" /><glyph d="M448 -108H461Q487 -108 504 -103Q521 -98 531 -87Q541 -76 545 -57.5Q549 -39 549 -12V14L165 565V0H56V730H179L549 198V730H657V-10Q657 -64 647.5 -102Q638 -140 616 -165Q594 -190 558.5 -201.5Q523 -213 471 -213H448Z" glyph-name="Eng" horiz-adv-x="713" unicode="&#330;" /><glyph d="M56 730H494V627H165V418H494V315H165V104H494V0H492L494 -1Q455 -26 430 -42.5Q405 -59 391 -71Q377 -83 372 -93Q367 -103 367 -113Q367 -131 381.5 -139.5Q396 -148 416 -148Q439 -148 454 -138.5Q469 -129 483 -117L554 -165Q528 -188 490.5 -205Q453 -222 416 -222Q353 -222 315 -192Q277 -162 277 -117Q277 -87 294 -58.5Q311 -30 356 0H56Z" glyph-name="Eogonek" horiz-adv-x="540" unicode="&#280;" /><glyph d="M203 630V415H391V318H203V101H287Q350 101 402 121Q454 141 491 176.5Q528 212 548.5 260.5Q569 309 569 365Q569 422 550 471Q531 520 494.5 555Q458 590 405 610Q352 630 283 630ZM22 415H94V730H295Q384 730 455 702Q526 674 575.5 625Q625 576 651.5 509.5Q678 443 678 365Q678 287 649.5 220Q621 153 570.5 104.5Q520 56 450.5 28Q381 0 299 0H94V318H22Z" glyph-name="Eth" horiz-adv-x="713" unicode="&#208;" /><glyph d="M30 512H107Q109 561 127.5 603Q146 645 177.5 675.5Q209 706 252.5 723Q296 740 348 740Q405 740 451 719.5Q497 699 529 664L450 593Q433 613 407.5 624.5Q382 636 348 636Q286 636 253.5 601.5Q221 567 216 512H458L443 426H216V304H424L411 219H216Q218 162 250.5 128.5Q283 95 346 95Q384 95 409 109Q434 123 451 146L543 81Q513 38 464.5 14Q416 -10 347 -10Q289 -10 244.5 6.5Q200 23 169.5 53Q139 83 123.5 125.5Q108 168 107 219H30V304H107V426H30Z" glyph-name="Euro" horiz-adv-x="588" unicode="&#8364;" /><glyph d="M30 512H129Q150 563 184.5 605Q219 647 264 677Q309 707 363 723.5Q417 740 477 740Q571 740 646.5 701.5Q722 663 773 597L691 528Q658 579 601.5 607.5Q545 636 476 636Q403 636 344.5 602.5Q286 569 252 512H590L566 423H219Q211 393 211 365Q211 336 219 307H535L511 219H252Q286 162 344 128.5Q402 95 475 95Q554 95 608.5 128.5Q663 162 697 221L789 163Q738 83 661 36.5Q584 -10 479 -10Q418 -10 363.5 7Q309 24 263.5 54.5Q218 85 184 127Q150 169 129 219H30V307H105Q103 321 102 335.5Q101 350 101 365Q101 380 102 394.5Q103 409 105 423H30Z" glyph-name="Euro.LP" horiz-adv-x="838" unicode="&#58657;" /><glyph d="M30 512H107Q109 561 127.5 603Q146 645 177.5 675.5Q209 706 252.5 723Q296 740 348 740Q405 740 451 719.5Q497 699 529 664L450 593Q433 613 407.5 624.5Q382 636 348 636Q286 636 253.5 601.5Q221 567 216 512H458L443 426H216V304H424L411 219H216Q218 162 250.5 128.5Q283 95 346 95Q384 95 409 109Q434 123 451 146L543 81Q513 38 464.5 14Q416 -10 347 -10Q289 -10 244.5 6.5Q200 23 169.5 53Q139 83 123.5 125.5Q108 168 107 219H30V304H107V426H30Z" glyph-name="Euro.LT" horiz-adv-x="588" unicode="&#62567;" /><glyph d="M56 730H469V627H165V418H469V315H165V0H56Z" glyph-name="F" horiz-adv-x="517" unicode="F" /><glyph d="M414 -10Q331 -10 261.5 20Q192 50 142 101Q92 152 63.5 220Q35 288 35 365Q35 443 63.5 511.5Q92 580 142 630.5Q192 681 261.5 710.5Q331 740 413 740Q468 740 517 726.5Q566 713 608 688Q650 663 683.5 628.5Q717 594 741 552L646 495Q611 561 551.5 598.5Q492 636 413 636Q354 636 304.5 614.5Q255 593 219.5 556Q184 519 164 469.5Q144 420 144 365Q144 309 164 260Q184 211 220 174Q256 137 305.5 116Q355 95 414 95Q466 95 508 110Q550 125 581.5 152Q613 179 633 216Q653 253 662 297H400V400H776V361Q776 287 751.5 219.5Q727 152 680.5 101Q634 50 566.5 20Q499 -10 414 -10Z" glyph-name="G" horiz-adv-x="811" unicode="G" /><glyph d="M406 780Q365 780 334.5 793Q304 806 284 828.5Q264 851 254.5 881Q245 911 245 946H321Q321 898 342.5 872.5Q364 847 406 846Q447 847 469 872.5Q491 898 491 946H568Q568 911 556.5 881Q545 851 524 828.5Q503 806 473 793Q443 780 406 780ZM414 -10Q331 -10 261.5 20Q192 50 142 101Q92 152 63.5 220Q35 288 35 365Q35 443 63.5 511.5Q92 580 142 630.5Q192 681 261.5 710.5Q331 740 413 740Q468 740 517 726.5Q566 713 608 688Q650 663 683.5 628.5Q717 594 741 552L646 495Q611 561 551.5 598.5Q492 636 413 636Q354 636 304.5 614.5Q255 593 219.5 556Q184 519 164 469.5Q144 420 144 365Q144 309 164 260Q184 211 220 174Q256 137 305.5 116Q355 95 414 95Q466 95 508 110Q550 125 581.5 152Q613 179 633 216Q653 253 662 297H400V400H776V361Q776 287 751.5 219.5Q727 152 680.5 101Q634 50 566.5 20Q499 -10 414 -10Z" glyph-name="Gbreve" horiz-adv-x="811" unicode="&#286;" /><glyph d="M370 950H445L564 784H473L407 878L343 784H251ZM414 -10Q331 -10 261.5 20Q192 50 142 101Q92 152 63.5 220Q35 288 35 365Q35 443 63.5 511.5Q92 580 142 630.5Q192 681 261.5 710.5Q331 740 413 740Q468 740 517 726.5Q566 713 608 688Q650 663 683.5 628.5Q717 594 741 552L646 495Q611 561 551.5 598.5Q492 636 413 636Q354 636 304.5 614.5Q255 593 219.5 556Q184 519 164 469.5Q144 420 144 365Q144 309 164 260Q184 211 220 174Q256 137 305.5 116Q355 95 414 95Q466 95 508 110Q550 125 581.5 152Q613 179 633 216Q653 253 662 297H400V400H776V361Q776 287 751.5 219.5Q727 152 680.5 101Q634 50 566.5 20Q499 -10 414 -10Z" glyph-name="Gcircumflex" horiz-adv-x="811" unicode="&#284;" /><glyph d="M333 -256 371 -52H467L402 -256ZM414 -10Q331 -10 261.5 20Q192 50 142 101Q92 152 63.5 220Q35 288 35 365Q35 443 63.5 511.5Q92 580 142 630.5Q192 681 261.5 710.5Q331 740 413 740Q468 740 517 726.5Q566 713 608 688Q650 663 683.5 628.5Q717 594 741 552L646 495Q611 561 551.5 598.5Q492 636 413 636Q354 636 304.5 614.5Q255 593 219.5 556Q184 519 164 469.5Q144 420 144 365Q144 309 164 260Q184 211 220 174Q256 137 305.5 116Q355 95 414 95Q466 95 508 110Q550 125 581.5 152Q613 179 633 216Q653 253 662 297H400V400H776V361Q776 287 751.5 219.5Q727 152 680.5 101Q634 50 566.5 20Q499 -10 414 -10Z" glyph-name="Gcommaaccent" horiz-adv-x="811" unicode="&#290;" /><glyph d="M357 926H464V788H357ZM414 -10Q331 -10 261.5 20Q192 50 142 101Q92 152 63.5 220Q35 288 35 365Q35 443 63.5 511.5Q92 580 142 630.5Q192 681 261.5 710.5Q331 740 413 740Q468 740 517 726.5Q566 713 608 688Q650 663 683.5 628.5Q717 594 741 552L646 495Q611 561 551.5 598.5Q492 636 413 636Q354 636 304.5 614.5Q255 593 219.5 556Q184 519 164 469.5Q144 420 144 365Q144 309 164 260Q184 211 220 174Q256 137 305.5 116Q355 95 414 95Q466 95 508 110Q550 125 581.5 152Q613 179 633 216Q653 253 662 297H400V400H776V361Q776 287 751.5 219.5Q727 152 680.5 101Q634 50 566.5 20Q499 -10 414 -10Z" glyph-name="Gdotaccent" horiz-adv-x="811" unicode="&#288;" /><glyph d="M495 315H165V0H56V730H165V419H495V730H603V0H495Z" glyph-name="H" horiz-adv-x="659" unicode="H" /><glyph d="M189 419H519V533H189ZM18 616H80V730H189V616H519V730H627V616H687V533H627V0H519V315H189V0H80V533H18Z" glyph-name="Hbar" horiz-adv-x="709" unicode="&#294;" /><glyph d="M291 950H366L485 784H394L328 878L264 784H172ZM495 315H165V0H56V730H165V419H495V730H603V0H495Z" glyph-name="Hcircumflex" horiz-adv-x="659" unicode="&#292;" /><glyph d="M63 730H172V0H63Z" glyph-name="I" horiz-adv-x="235" unicode="I" /><glyph d="M51 730H160V0H51ZM236 105H285Q335 105 355 126Q375 147 375 203V730H483V205Q483 151 473.5 112.5Q464 74 442.5 49Q421 24 385 12Q349 0 295 0H236Z" glyph-name="IJ" horiz-adv-x="534" unicode="&#306;" /><glyph d="M190 950H304L156 784H74ZM63 730H172V0H63Z" glyph-name="Iacute" horiz-adv-x="235" unicode="&#205;" /><glyph d="M115 780Q74 780 43.5 793Q13 806 -7 828.5Q-27 851 -36.5 881Q-46 911 -46 946H30Q30 898 51.5 872.5Q73 847 115 846Q156 847 178 872.5Q200 898 200 946H277Q277 911 265.5 881Q254 851 233 828.5Q212 806 182 793Q152 780 115 780ZM63 730H172V0H63Z" glyph-name="Ibreve" horiz-adv-x="235" unicode="&#300;" /><glyph d="M79 950H154L273 784H182L116 878L52 784H-40ZM63 730H172V0H63Z" glyph-name="Icircumflex" horiz-adv-x="235" unicode="&#206;" /><glyph d="M63 730H172V0H63ZM-38 926H69V788H-38ZM166 926H273V788H166Z" glyph-name="Idieresis" horiz-adv-x="235" unicode="&#207;" /><glyph d="M64 926H171V788H64ZM63 730H172V0H63Z" glyph-name="Idotaccent" horiz-adv-x="235" unicode="&#304;" /><glyph d="M-71 950H43L159 784H77ZM63 730H172V0H63Z" glyph-name="Igrave" horiz-adv-x="235" unicode="&#204;" /><glyph d="M-15 861H249V784H-15ZM63 730H172V0H63Z" glyph-name="Imacron" horiz-adv-x="235" unicode="&#298;" /><glyph d="M118 -224Q88 -224 64.5 -215.5Q41 -207 24.5 -192Q8 -177 -0.5 -157Q-9 -137 -9 -115Q-10 -78 9.5 -48Q29 -18 63 9V730H172V0H170Q121 -34 99.5 -61Q78 -88 78 -108Q78 -127 90 -137.5Q102 -148 121 -148Q139 -148 152.5 -139.5Q166 -131 178 -119L240 -174Q215 -196 184.5 -210Q154 -224 118 -224Z" glyph-name="Iogonek" horiz-adv-x="235" unicode="&#302;" /><glyph d="M-46 784Q-46 842 -18.5 877Q9 912 56 912Q81 912 99.5 904Q118 896 135 886Q150 876 164 868Q178 860 192 860Q225 860 225 908H296Q296 849 270 814.5Q244 780 193 780Q164 780 143 790.5Q122 801 104 812Q91 820 80.5 825.5Q70 831 56 831Q25 831 25 784ZM63 730H172V0H63Z" glyph-name="Itilde" horiz-adv-x="235" unicode="&#296;" /><glyph d="M233 -10Q156 -10 101.5 27.5Q47 65 26 126L130 171Q141 136 167 113.5Q193 91 231 91Q276 91 300 121Q324 151 324 201V730H432V208Q432 105 379.5 47.5Q327 -10 233 -10Z" glyph-name="J" horiz-adv-x="486" unicode="J" /><glyph d="M337 950H412L531 784H440L374 878L310 784H218ZM233 -10Q156 -10 101.5 27.5Q47 65 26 126L130 171Q141 136 167 113.5Q193 91 231 91Q276 91 300 121Q324 151 324 201V730H432V208Q432 105 379.5 47.5Q327 -10 233 -10Z" glyph-name="Jcircumflex" horiz-adv-x="486" unicode="&#308;" /><glyph d="M271 367 165 240V0H56V730H165V382L455 730H588L348 442L614 0H490Z" glyph-name="K" horiz-adv-x="631" unicode="K" /><glyph d="M240 -256 278 -52H374L309 -256ZM271 367 165 240V0H56V730H165V382L455 730H588L348 442L614 0H490Z" glyph-name="Kcommaaccent" horiz-adv-x="631" unicode="&#310;" /><glyph d="M56 730H165V104H460V0H56Z" glyph-name="L" horiz-adv-x="506" unicode="L" /><glyph d="M181 950H295L147 784H65ZM56 730H165V104H460V0H56Z" glyph-name="Lacute" horiz-adv-x="506" unicode="&#313;" /><glyph d="M293 730H384L330 553H261ZM56 730H165V104H460V0H56Z" glyph-name="Lcaron" horiz-adv-x="506" unicode="&#317;" /><glyph d="M171 -256 209 -52H305L240 -256ZM56 730H165V104H460V0H56Z" glyph-name="Lcommaaccent" horiz-adv-x="506" unicode="&#315;" /><glyph d="M353 430H460V292H353ZM56 730H165V104H460V0H56Z" glyph-name="Ldot" horiz-adv-x="508" unicode="&#319;" /><glyph d="M15 394 92 417V730H201V451L327 490V412L201 373V104H496V0H92V339L15 316Z" glyph-name="Lslash" horiz-adv-x="542" unicode="&#321;" /><glyph d="M56 730H164L412 387L668 730H771V0H663V556L410 215L165 548V0H56Z" glyph-name="M" horiz-adv-x="827" unicode="M" /><glyph d="M56 730H179L549 178V730H657V0H542L165 561V0H56Z" glyph-name="N" horiz-adv-x="713" unicode="N" /><glyph d="M436 950H550L402 784H320ZM56 730H179L549 178V730H657V0H542L165 561V0H56Z" glyph-name="Nacute" horiz-adv-x="713" unicode="&#323;" /><glyph d="M201 950H293L357 856L423 950H514L395 784H320ZM56 730H179L549 178V730H657V0H542L165 561V0H56Z" glyph-name="Ncaron" horiz-adv-x="713" unicode="&#327;" /><glyph d="M268 -256 306 -52H402L337 -256ZM56 730H179L549 178V730H657V0H542L165 561V0H56Z" glyph-name="Ncommaaccent" horiz-adv-x="713" unicode="&#325;" /><glyph d="M183 784Q183 842 210.5 877Q238 912 285 912Q310 912 328.5 904Q347 896 364 886Q379 876 393 868Q407 860 421 860Q454 860 454 908H525Q525 849 499 814.5Q473 780 422 780Q393 780 372 790.5Q351 801 333 812Q320 820 309.5 825.5Q299 831 285 831Q254 831 254 784ZM56 730H179L549 178V730H657V0H542L165 561V0H56Z" glyph-name="Ntilde" horiz-adv-x="713" unicode="&#209;" /><glyph d="M409 96Q465 96 513.5 117Q562 138 598 175Q634 212 654.5 260.5Q675 309 675 365Q675 420 654.5 469.5Q634 519 598 555.5Q562 592 513.5 613.5Q465 635 409 635Q353 635 304.5 613.5Q256 592 220.5 555.5Q185 519 164.5 469.5Q144 420 144 365Q144 309 164.5 260.5Q185 212 220.5 175Q256 138 304.5 117Q353 96 409 96ZM409 -10Q331 -10 263 19.5Q195 49 144.5 100Q94 151 64.5 219Q35 287 35 365Q35 443 64.5 511Q94 579 144.5 630Q195 681 263 710.5Q331 740 409 740Q487 740 555.5 710.5Q624 681 674.5 630Q725 579 754.5 511Q784 443 784 365Q784 287 754.5 219Q725 151 674.5 100Q624 49 555.5 19.5Q487 -10 409 -10Z" glyph-name="O" horiz-adv-x="819" unicode="O" /><glyph d="M409 97Q464 97 512.5 118Q561 139 597 175.5Q633 212 654 261Q675 310 675 365V376Q673 430 651.5 477Q630 524 594 559Q558 594 510.5 614Q463 634 409 634Q353 634 304.5 613Q256 592 220 555Q184 518 163.5 469Q143 420 143 365Q143 310 163.5 261Q184 212 220 175.5Q256 139 304.5 118Q353 97 409 97ZM675 109Q627 54 559 22Q491 -10 409 -10Q331 -10 263 19.5Q195 49 144.5 100Q94 151 64.5 219Q35 287 35 365Q35 443 64.5 511Q94 579 144.5 630Q195 681 263 710.5Q331 740 409 740Q491 740 559 708Q627 676 675 620V730H1113V627H784V418H1113V315H784V104H1113V0H675Z" glyph-name="OE" horiz-adv-x="1159" unicode="&#338;" /><glyph d="M409 96Q465 96 513.5 117Q562 138 598 175Q634 212 654.5 260.5Q675 309 675 365Q675 420 654.5 469.5Q634 519 598 555.5Q562 592 513.5 613.5Q465 635 409 635Q353 635 304.5 613.5Q256 592 220.5 555.5Q185 519 164.5 469.5Q144 420 144 365Q144 309 164.5 260.5Q185 212 220.5 175Q256 138 304.5 117Q353 96 409 96ZM409 -10Q331 -10 263 19.5Q195 49 144.5 100Q94 151 64.5 219Q35 287 35 365Q35 443 64.5 511Q94 579 144.5 630Q195 681 263 710.5Q331 740 409 740Q487 740 555.5 710.5Q624 681 674.5 630Q725 579 754.5 511Q784 443 784 365Q784 287 754.5 219Q725 151 674.5 100Q624 49 555.5 19.5Q487 -10 409 -10ZM477 950H591L443 784H361Z" glyph-name="Oacute" horiz-adv-x="819" unicode="&#211;" /><glyph d="M403 780Q362 780 331.5 793Q301 806 281 828.5Q261 851 251.5 881Q242 911 242 946H318Q318 898 339.5 872.5Q361 847 403 846Q444 847 466 872.5Q488 898 488 946H565Q565 911 553.5 881Q542 851 521 828.5Q500 806 470 793Q440 780 403 780ZM409 96Q465 96 513.5 117Q562 138 598 175Q634 212 654.5 260.5Q675 309 675 365Q675 420 654.5 469.5Q634 519 598 555.5Q562 592 513.5 613.5Q465 635 409 635Q353 635 304.5 613.5Q256 592 220.5 555.5Q185 519 164.5 469.5Q144 420 144 365Q144 309 164.5 260.5Q185 212 220.5 175Q256 138 304.5 117Q353 96 409 96ZM409 -10Q331 -10 263 19.5Q195 49 144.5 100Q94 151 64.5 219Q35 287 35 365Q35 443 64.5 511Q94 579 144.5 630Q195 681 263 710.5Q331 740 409 740Q487 740 555.5 710.5Q624 681 674.5 630Q725 579 754.5 511Q784 443 784 365Q784 287 754.5 219Q725 151 674.5 100Q624 49 555.5 19.5Q487 -10 409 -10Z" glyph-name="Obreve" horiz-adv-x="819" unicode="&#334;" /><glyph d="M368 950H443L562 784H471L405 878L341 784H249ZM409 96Q465 96 513.5 117Q562 138 598 175Q634 212 654.5 260.5Q675 309 675 365Q675 420 654.5 469.5Q634 519 598 555.5Q562 592 513.5 613.5Q465 635 409 635Q353 635 304.5 613.5Q256 592 220.5 555.5Q185 519 164.5 469.5Q144 420 144 365Q144 309 164.5 260.5Q185 212 220.5 175Q256 138 304.5 117Q353 96 409 96ZM409 -10Q331 -10 263 19.5Q195 49 144.5 100Q94 151 64.5 219Q35 287 35 365Q35 443 64.5 511Q94 579 144.5 630Q195 681 263 710.5Q331 740 409 740Q487 740 555.5 710.5Q624 681 674.5 630Q725 579 754.5 511Q784 443 784 365Q784 287 754.5 219Q725 151 674.5 100Q624 49 555.5 19.5Q487 -10 409 -10Z" glyph-name="Ocircumflex" horiz-adv-x="819" unicode="&#212;" /><glyph d="M409 96Q465 96 513.5 117Q562 138 598 175Q634 212 654.5 260.5Q675 309 675 365Q675 420 654.5 469.5Q634 519 598 555.5Q562 592 513.5 613.5Q465 635 409 635Q353 635 304.5 613.5Q256 592 220.5 555.5Q185 519 164.5 469.5Q144 420 144 365Q144 309 164.5 260.5Q185 212 220.5 175Q256 138 304.5 117Q353 96 409 96ZM409 -10Q331 -10 263 19.5Q195 49 144.5 100Q94 151 64.5 219Q35 287 35 365Q35 443 64.5 511Q94 579 144.5 630Q195 681 263 710.5Q331 740 409 740Q487 740 555.5 710.5Q624 681 674.5 630Q725 579 754.5 511Q784 443 784 365Q784 287 754.5 219Q725 151 674.5 100Q624 49 555.5 19.5Q487 -10 409 -10ZM271 926H378V788H271ZM432 926H539V788H432Z" glyph-name="Odieresis" horiz-adv-x="819" unicode="&#214;" /><glyph d="M219 950H333L449 784H367ZM409 96Q465 96 513.5 117Q562 138 598 175Q634 212 654.5 260.5Q675 309 675 365Q675 420 654.5 469.5Q634 519 598 555.5Q562 592 513.5 613.5Q465 635 409 635Q353 635 304.5 613.5Q256 592 220.5 555.5Q185 519 164.5 469.5Q144 420 144 365Q144 309 164.5 260.5Q185 212 220.5 175Q256 138 304.5 117Q353 96 409 96ZM409 -10Q331 -10 263 19.5Q195 49 144.5 100Q94 151 64.5 219Q35 287 35 365Q35 443 64.5 511Q94 579 144.5 630Q195 681 263 710.5Q331 740 409 740Q487 740 555.5 710.5Q624 681 674.5 630Q725 579 754.5 511Q784 443 784 365Q784 287 754.5 219Q725 151 674.5 100Q624 49 555.5 19.5Q487 -10 409 -10Z" glyph-name="Ograve" horiz-adv-x="819" unicode="&#210;" /><glyph d="M409 96Q465 96 513.5 117Q562 138 598 175Q634 212 654.5 260.5Q675 309 675 365Q675 420 654.5 469.5Q634 519 598 555.5Q562 592 513.5 613.5Q465 635 409 635Q353 635 304.5 613.5Q256 592 220.5 555.5Q185 519 164.5 469.5Q144 420 144 365Q144 309 164.5 260.5Q185 212 220.5 175Q256 138 304.5 117Q353 96 409 96ZM409 -10Q331 -10 263 19.5Q195 49 144.5 100Q94 151 64.5 219Q35 287 35 365Q35 443 64.5 511Q94 579 144.5 630Q195 681 263 710.5Q331 740 409 740Q487 740 555.5 710.5Q624 681 674.5 630Q725 579 754.5 511Q784 443 784 365Q784 287 754.5 219Q725 151 674.5 100Q624 49 555.5 19.5Q487 -10 409 -10ZM550 950H658L510 784H434ZM395 950H503L355 784H280Z" glyph-name="Ohungarumlaut" horiz-adv-x="819" unicode="&#336;" /><glyph d="M409 96Q465 96 513.5 117Q562 138 598 175Q634 212 654.5 260.5Q675 309 675 365Q675 420 654.5 469.5Q634 519 598 555.5Q562 592 513.5 613.5Q465 635 409 635Q353 635 304.5 613.5Q256 592 220.5 555.5Q185 519 164.5 469.5Q144 420 144 365Q144 309 164.5 260.5Q185 212 220.5 175Q256 138 304.5 117Q353 96 409 96ZM409 -10Q331 -10 263 19.5Q195 49 144.5 100Q94 151 64.5 219Q35 287 35 365Q35 443 64.5 511Q94 579 144.5 630Q195 681 263 710.5Q331 740 409 740Q487 740 555.5 710.5Q624 681 674.5 630Q725 579 754.5 511Q784 443 784 365Q784 287 754.5 219Q725 151 674.5 100Q624 49 555.5 19.5Q487 -10 409 -10ZM272 861H536V784H272Z" glyph-name="Omacron" horiz-adv-x="819" unicode="&#332;" /><glyph d="M409 96Q465 96 513.5 117Q562 138 598 175Q634 212 654.5 260.5Q675 309 675 365Q675 415 658 460Q641 505 612 540L285 126Q313 112 344 104Q375 96 409 96ZM144 365Q144 314 161 268.5Q178 223 209 187L536 602Q507 618 475.5 626.5Q444 635 409 635Q353 635 304.5 613.5Q256 592 220.5 555.5Q185 519 164.5 469.5Q144 420 144 365ZM142 102Q92 153 63.5 220.5Q35 288 35 365Q35 443 64.5 511Q94 579 144.5 630Q195 681 263 710.5Q331 740 409 740Q462 740 510.5 726Q559 712 602 687L636 730H762L679 625Q728 574 756 507.5Q784 441 784 365Q784 287 754.5 219Q725 151 674.5 100Q624 49 555.5 19.5Q487 -10 409 -10Q356 -10 308.5 3.5Q261 17 219 42L186 0H61Z" glyph-name="Oslash" horiz-adv-x="819" unicode="&#216;" /><glyph d="M471 950H585L437 784H355ZM409 96Q465 96 513.5 117Q562 138 598 175Q634 212 654.5 260.5Q675 309 675 365Q675 415 658 460Q641 505 612 540L285 126Q313 112 344 104Q375 96 409 96ZM144 365Q144 314 161 268.5Q178 223 209 187L536 602Q507 618 475.5 626.5Q444 635 409 635Q353 635 304.5 613.5Q256 592 220.5 555.5Q185 519 164.5 469.5Q144 420 144 365ZM142 102Q92 153 63.5 220.5Q35 288 35 365Q35 443 64.5 511Q94 579 144.5 630Q195 681 263 710.5Q331 740 409 740Q462 740 510.5 726Q559 712 602 687L636 730H762L679 625Q728 574 756 507.5Q784 441 784 365Q784 287 754.5 219Q725 151 674.5 100Q624 49 555.5 19.5Q487 -10 409 -10Q356 -10 308.5 3.5Q261 17 219 42L186 0H61Z" glyph-name="Oslashacute" horiz-adv-x="819" unicode="&#510;" /><glyph d="M232 784Q232 842 259.5 877Q287 912 334 912Q359 912 377.5 904Q396 896 413 886Q428 876 442 868Q456 860 470 860Q503 860 503 908H574Q574 849 548 814.5Q522 780 471 780Q442 780 421 790.5Q400 801 382 812Q369 820 358.5 825.5Q348 831 334 831Q303 831 303 784ZM409 96Q465 96 513.5 117Q562 138 598 175Q634 212 654.5 260.5Q675 309 675 365Q675 420 654.5 469.5Q634 519 598 555.5Q562 592 513.5 613.5Q465 635 409 635Q353 635 304.5 613.5Q256 592 220.5 555.5Q185 519 164.5 469.5Q144 420 144 365Q144 309 164.5 260.5Q185 212 220.5 175Q256 138 304.5 117Q353 96 409 96ZM409 -10Q331 -10 263 19.5Q195 49 144.5 100Q94 151 64.5 219Q35 287 35 365Q35 443 64.5 511Q94 579 144.5 630Q195 681 263 710.5Q331 740 409 740Q487 740 555.5 710.5Q624 681 674.5 630Q725 579 754.5 511Q784 443 784 365Q784 287 754.5 219Q725 151 674.5 100Q624 49 555.5 19.5Q487 -10 409 -10Z" glyph-name="Otilde" horiz-adv-x="819" unicode="&#213;" /><glyph d="M409 96Q465 96 513.5 117Q562 138 598 175Q634 212 654.5 260.5Q675 309 675 365Q675 420 654.5 469.5Q634 519 598 555.5Q562 592 513.5 613.5Q465 635 409 635Q353 635 304.5 613.5Q256 592 220.5 555.5Q185 519 164.5 469.5Q144 420 144 365Q144 309 164.5 260.5Q185 212 220.5 175Q256 138 304.5 117Q353 96 409 96ZM409 -10Q331 -10 263 19.5Q195 49 144.5 100Q94 151 64.5 219Q35 287 35 365Q35 443 64.5 511Q94 579 144.5 630Q195 681 263 710.5Q331 740 409 740Q487 740 555.5 710.5Q624 681 674.5 630Q725 579 754.5 511Q784 443 784 365Q784 287 754.5 219Q725 151 674.5 100Q624 49 555.5 19.5Q487 -10 409 -10ZM745 597Q728 624 706.5 646.5Q685 669 659 687V730H768V597ZM48 730H157V687Q131 669 109.5 646.5Q88 624 71 597H48Z" glyph-name="Oumlaut" horiz-adv-x="819" unicode="&#61815;" /><glyph d="M165 630V319H288Q325 319 355.5 331Q386 343 407 364Q428 385 439.5 413Q451 441 451 474Q451 507 439.5 535.5Q428 564 407 585Q386 606 355.5 618Q325 630 288 630ZM56 730H296Q354 730 402.5 710Q451 690 486 655.5Q521 621 540.5 574.5Q560 528 560 474Q560 420 540.5 373.5Q521 327 486 292.5Q451 258 402 238Q353 218 295 218H165V0H56Z" glyph-name="P" horiz-adv-x="599" unicode="P" /><glyph d="M382 339H513L620 204Q646 238 660.5 278.5Q675 319 675 365Q675 420 654.5 469.5Q634 519 598 555.5Q562 592 513.5 613.5Q465 635 409 635Q353 635 304.5 613.5Q256 592 220.5 555.5Q185 519 164.5 469.5Q144 420 144 365Q144 309 164.5 260.5Q185 212 220.5 175Q256 138 304.5 117Q353 96 409 96Q436 96 460 101Q484 106 506 115L574 29Q536 10 495 0Q454 -10 409 -10Q331 -10 263 19.5Q195 49 144.5 100Q94 151 64.5 219Q35 287 35 365Q35 443 64.5 511Q94 579 144.5 630Q195 681 263 710.5Q331 740 409 740Q487 740 555.5 710.5Q624 681 674.5 630Q725 579 754.5 511Q784 443 784 365Q784 293 758.5 230.5Q733 168 690 118L784 0H649Z" glyph-name="Q" horiz-adv-x="819" unicode="Q" /><glyph d="M56 730H283Q341 730 388.5 711.5Q436 693 470 661Q504 629 522.5 585.5Q541 542 541 492Q541 456 531 421Q521 386 501 357Q481 328 451.5 305.5Q422 283 383 271L557 0H432L212 348H271Q312 348 342 361Q372 374 392 395Q412 416 422 441.5Q432 467 432 492Q432 554 392.5 591.5Q353 629 272 629H165V0H56Z" glyph-name="R" horiz-adv-x="584" unicode="R" /><glyph d="M329 950H443L295 784H213ZM56 730H283Q341 730 388.5 711.5Q436 693 470 661Q504 629 522.5 585.5Q541 542 541 492Q541 456 531 421Q521 386 501 357Q481 328 451.5 305.5Q422 283 383 271L557 0H432L212 348H271Q312 348 342 361Q372 374 392 395Q412 416 422 441.5Q432 467 432 492Q432 554 392.5 591.5Q353 629 272 629H165V0H56Z" glyph-name="Racute" horiz-adv-x="584" unicode="&#340;" /><glyph d="M114 950H206L270 856L336 950H427L308 784H233ZM56 730H283Q341 730 388.5 711.5Q436 693 470 661Q504 629 522.5 585.5Q541 542 541 492Q541 456 531 421Q521 386 501 357Q481 328 451.5 305.5Q422 283 383 271L557 0H432L212 348H271Q312 348 342 361Q372 374 392 395Q412 416 422 441.5Q432 467 432 492Q432 554 392.5 591.5Q353 629 272 629H165V0H56Z" glyph-name="Rcaron" horiz-adv-x="584" unicode="&#344;" /><glyph d="M214 -256 252 -52H348L283 -256ZM56 730H283Q341 730 388.5 711.5Q436 693 470 661Q504 629 522.5 585.5Q541 542 541 492Q541 456 531 421Q521 386 501 357Q481 328 451.5 305.5Q422 283 383 271L557 0H432L212 348H271Q312 348 342 361Q372 374 392 395Q412 416 422 441.5Q432 467 432 492Q432 554 392.5 591.5Q353 629 272 629H165V0H56Z" glyph-name="Rcommaaccent" horiz-adv-x="584" unicode="&#342;" /><glyph d="M285 -10Q191 -10 125.5 26.5Q60 63 13 123L109 198Q141 146 184.5 119Q228 92 284 92Q345 92 380.5 126Q416 160 416 209Q416 237 402 256.5Q388 276 365.5 290Q343 304 313 314.5Q283 325 252 335Q215 347 178 362Q141 377 112 400Q83 423 64.5 457Q46 491 46 541Q46 583 63.5 619Q81 655 112.5 682Q144 709 186.5 724.5Q229 740 280 740Q363 740 418.5 710.5Q474 681 516 632L427 566Q377 644 280 644Q224 644 191 615Q158 586 158 543Q158 517 171.5 498.5Q185 480 207 466.5Q229 453 258 442.5Q287 432 319 422Q356 409 393.5 393.5Q431 378 461 354Q491 330 509.5 295Q528 260 528 209Q528 167 511.5 127.5Q495 88 463.5 57.5Q432 27 387 8.5Q342 -10 285 -10Z" glyph-name="S" horiz-adv-x="563" unicode="S" /><glyph d="M285 -10Q191 -10 125.5 26.5Q60 63 13 123L109 198Q141 146 184.5 119Q228 92 284 92Q345 92 380.5 126Q416 160 416 209Q416 237 402 256.5Q388 276 365.5 290Q343 304 313 314.5Q283 325 252 335Q215 347 178 362Q141 377 112 400Q83 423 64.5 457Q46 491 46 541Q46 583 63.5 619Q81 655 112.5 682Q144 709 186.5 724.5Q229 740 280 740Q363 740 418.5 710.5Q474 681 516 632L427 566Q377 644 280 644Q224 644 191 615Q158 586 158 543Q158 517 171.5 498.5Q185 480 207 466.5Q229 453 258 442.5Q287 432 319 422Q356 409 393.5 393.5Q431 378 461 354Q491 330 509.5 295Q528 260 528 209Q528 167 511.5 127.5Q495 88 463.5 57.5Q432 27 387 8.5Q342 -10 285 -10ZM347 950H461L313 784H231Z" glyph-name="Sacute" horiz-adv-x="563" unicode="&#346;" /><glyph d="M128 950H220L284 856L350 950H441L322 784H247ZM285 -10Q191 -10 125.5 26.5Q60 63 13 123L109 198Q141 146 184.5 119Q228 92 284 92Q345 92 380.5 126Q416 160 416 209Q416 237 402 256.5Q388 276 365.5 290Q343 304 313 314.5Q283 325 252 335Q215 347 178 362Q141 377 112 400Q83 423 64.5 457Q46 491 46 541Q46 583 63.5 619Q81 655 112.5 682Q144 709 186.5 724.5Q229 740 280 740Q363 740 418.5 710.5Q474 681 516 632L427 566Q377 644 280 644Q224 644 191 615Q158 586 158 543Q158 517 171.5 498.5Q185 480 207 466.5Q229 453 258 442.5Q287 432 319 422Q356 409 393.5 393.5Q431 378 461 354Q491 330 509.5 295Q528 260 528 209Q528 167 511.5 127.5Q495 88 463.5 57.5Q432 27 387 8.5Q342 -10 285 -10Z" glyph-name="Scaron" horiz-adv-x="563" unicode="&#352;" /><glyph d="M279 -237Q236 -237 199.5 -221.5Q163 -206 135 -180L204 -138Q222 -152 239.5 -162Q257 -172 285 -172Q310 -172 328 -162Q346 -152 346 -137Q346 -105 282 -105H236V-7Q161 2 107 36.5Q53 71 13 123L109 198Q141 146 184.5 119Q228 92 284 92Q345 92 380.5 126Q416 160 416 209Q416 237 402 256.5Q388 276 365.5 290Q343 304 313 314.5Q283 325 252 335Q215 347 178 362Q141 377 112 400Q83 423 64.5 457Q46 491 46 541Q46 583 63.5 619Q81 655 112.5 682Q144 709 186.5 724.5Q229 740 280 740Q363 740 418.5 710.5Q474 681 516 632L427 566Q377 644 280 644Q224 644 191 615Q158 586 158 543Q158 517 171.5 498.5Q185 480 207 466.5Q229 453 258 442.5Q287 432 319 422Q356 409 393.5 393.5Q431 378 461 354Q491 330 509.5 295Q528 260 528 209Q528 169 513 132Q498 95 470 65Q442 35 402 15.5Q362 -4 311 -8V-53Q365 -51 396.5 -74.5Q428 -98 428 -133Q428 -156 416 -175Q404 -194 384 -208Q364 -222 337 -229.5Q310 -237 279 -237Z" glyph-name="Scedilla" horiz-adv-x="563" unicode="&#350;" /><glyph d="M243 950H318L437 784H346L280 878L216 784H124ZM285 -10Q191 -10 125.5 26.5Q60 63 13 123L109 198Q141 146 184.5 119Q228 92 284 92Q345 92 380.5 126Q416 160 416 209Q416 237 402 256.5Q388 276 365.5 290Q343 304 313 314.5Q283 325 252 335Q215 347 178 362Q141 377 112 400Q83 423 64.5 457Q46 491 46 541Q46 583 63.5 619Q81 655 112.5 682Q144 709 186.5 724.5Q229 740 280 740Q363 740 418.5 710.5Q474 681 516 632L427 566Q377 644 280 644Q224 644 191 615Q158 586 158 543Q158 517 171.5 498.5Q185 480 207 466.5Q229 453 258 442.5Q287 432 319 422Q356 409 393.5 393.5Q431 378 461 354Q491 330 509.5 295Q528 260 528 209Q528 167 511.5 127.5Q495 88 463.5 57.5Q432 27 387 8.5Q342 -10 285 -10Z" glyph-name="Scircumflex" horiz-adv-x="563" unicode="&#348;" /><glyph d="M285 -10Q191 -10 125.5 26.5Q60 63 13 123L109 198Q141 146 184.5 119Q228 92 284 92Q345 92 380.5 126Q416 160 416 209Q416 237 402 256.5Q388 276 365.5 290Q343 304 313 314.5Q283 325 252 335Q215 347 178 362Q141 377 112 400Q83 423 64.5 457Q46 491 46 541Q46 583 63.5 619Q81 655 112.5 682Q144 709 186.5 724.5Q229 740 280 740Q363 740 418.5 710.5Q474 681 516 632L427 566Q377 644 280 644Q224 644 191 615Q158 586 158 543Q158 517 171.5 498.5Q185 480 207 466.5Q229 453 258 442.5Q287 432 319 422Q356 409 393.5 393.5Q431 378 461 354Q491 330 509.5 295Q528 260 528 209Q528 167 511.5 127.5Q495 88 463.5 57.5Q432 27 387 8.5Q342 -10 285 -10ZM200 -251 238 -47H334L269 -251Z" glyph-name="Scommaaccent" horiz-adv-x="563" unicode="&#536;" /><glyph d="M243 628H36V730H558V628H351V0H243Z" glyph-name="T" horiz-adv-x="593" unicode="T" /><glyph d="M139 441H249V628H42V730H564V628H357V441H464V338H357V0H249V338H139Z" glyph-name="Tbar" horiz-adv-x="603" unicode="&#358;" /><glyph d="M141 950H233L297 856L363 950H454L335 784H260ZM249 628H42V730H564V628H357V0H249Z" glyph-name="Tcaron" horiz-adv-x="603" unicode="&#356;" /><glyph d="M249 628H42V730H564V628H357V0H249ZM216 -256 254 -52H350L285 -256Z" glyph-name="Tcommaaccent" horiz-adv-x="603" unicode="&#354;" /><glyph d="M165 490V255H291Q349 255 383 288.5Q417 322 417 373Q417 424 383 457Q349 490 291 490ZM56 730H165V591H298Q348 591 390 574.5Q432 558 462 528.5Q492 499 509 459Q526 419 526 373Q526 326 509 286.5Q492 247 462 217.5Q432 188 390 171.5Q348 155 298 155H165V0H56Z" glyph-name="Thorn" horiz-adv-x="563" unicode="&#222;" /><glyph d="M310 -10Q254 -10 207.5 8Q161 26 126.5 59Q92 92 73 139.5Q54 187 54 246V730H163V239Q163 209 174 182Q185 155 204.5 135Q224 115 251 103.5Q278 92 309 92Q340 92 367.5 103.5Q395 115 415 135Q435 155 446.5 182Q458 209 458 239V730H566V246Q566 187 546.5 139.5Q527 92 493 59Q459 26 412 8Q365 -10 310 -10Z" glyph-name="U" horiz-adv-x="620" unicode="U" /><glyph d="M310 -10Q254 -10 207.5 8Q161 26 126.5 59Q92 92 73 139.5Q54 187 54 246V730H163V239Q163 209 174 182Q185 155 204.5 135Q224 115 251 103.5Q278 92 309 92Q340 92 367.5 103.5Q395 115 415 135Q435 155 446.5 182Q458 209 458 239V730H566V246Q566 187 546.5 139.5Q527 92 493 59Q459 26 412 8Q365 -10 310 -10ZM374 950H488L340 784H258Z" glyph-name="Uacute" horiz-adv-x="620" unicode="&#218;" /><glyph d="M309 780Q268 780 237.5 793Q207 806 187 828.5Q167 851 157.5 881Q148 911 148 946H224Q224 898 245.5 872.5Q267 847 309 846Q350 847 372 872.5Q394 898 394 946H471Q471 911 459.5 881Q448 851 427 828.5Q406 806 376 793Q346 780 309 780ZM310 -10Q254 -10 207.5 8Q161 26 126.5 59Q92 92 73 139.5Q54 187 54 246V730H163V239Q163 209 174 182Q185 155 204.5 135Q224 115 251 103.5Q278 92 309 92Q340 92 367.5 103.5Q395 115 415 135Q435 155 446.5 182Q458 209 458 239V730H566V246Q566 187 546.5 139.5Q527 92 493 59Q459 26 412 8Q365 -10 310 -10Z" glyph-name="Ubreve" horiz-adv-x="620" unicode="&#364;" /><glyph d="M270 950H345L464 784H373L307 878L243 784H151ZM310 -10Q254 -10 207.5 8Q161 26 126.5 59Q92 92 73 139.5Q54 187 54 246V730H163V239Q163 209 174 182Q185 155 204.5 135Q224 115 251 103.5Q278 92 309 92Q340 92 367.5 103.5Q395 115 415 135Q435 155 446.5 182Q458 209 458 239V730H566V246Q566 187 546.5 139.5Q527 92 493 59Q459 26 412 8Q365 -10 310 -10Z" glyph-name="Ucircumflex" horiz-adv-x="620" unicode="&#219;" /><glyph d="M310 -10Q254 -10 207.5 8Q161 26 126.5 59Q92 92 73 139.5Q54 187 54 246V730H163V239Q163 209 174 182Q185 155 204.5 135Q224 115 251 103.5Q278 92 309 92Q340 92 367.5 103.5Q395 115 415 135Q435 155 446.5 182Q458 209 458 239V730H566V246Q566 187 546.5 139.5Q527 92 493 59Q459 26 412 8Q365 -10 310 -10ZM178 926H285V788H178ZM339 926H446V788H339Z" glyph-name="Udieresis" horiz-adv-x="620" unicode="&#220;" /><glyph d="M127 950H241L357 784H275ZM310 -10Q254 -10 207.5 8Q161 26 126.5 59Q92 92 73 139.5Q54 187 54 246V730H163V239Q163 209 174 182Q185 155 204.5 135Q224 115 251 103.5Q278 92 309 92Q340 92 367.5 103.5Q395 115 415 135Q435 155 446.5 182Q458 209 458 239V730H566V246Q566 187 546.5 139.5Q527 92 493 59Q459 26 412 8Q365 -10 310 -10Z" glyph-name="Ugrave" horiz-adv-x="620" unicode="&#217;" /><glyph d="M446 950H554L406 784H330ZM291 950H399L251 784H176ZM310 -10Q254 -10 207.5 8Q161 26 126.5 59Q92 92 73 139.5Q54 187 54 246V730H163V239Q163 209 174 182Q185 155 204.5 135Q224 115 251 103.5Q278 92 309 92Q340 92 367.5 103.5Q395 115 415 135Q435 155 446.5 182Q458 209 458 239V730H566V246Q566 187 546.5 139.5Q527 92 493 59Q459 26 412 8Q365 -10 310 -10Z" glyph-name="Uhungarumlaut" horiz-adv-x="620" unicode="&#368;" /><glyph d="M176 861H440V784H176ZM310 -10Q254 -10 207.5 8Q161 26 126.5 59Q92 92 73 139.5Q54 187 54 246V730H163V239Q163 209 174 182Q185 155 204.5 135Q224 115 251 103.5Q278 92 309 92Q340 92 367.5 103.5Q395 115 415 135Q435 155 446.5 182Q458 209 458 239V730H566V246Q566 187 546.5 139.5Q527 92 493 59Q459 26 412 8Q365 -10 310 -10Z" glyph-name="Umacron" horiz-adv-x="620" unicode="&#362;" /><glyph d="M317 -219Q254 -219 216 -189Q178 -159 178 -114Q178 -86 193 -59.5Q208 -33 248 -4Q205 5 169 26.5Q133 48 107.5 80Q82 112 68 154Q54 196 54 246V730H163V239Q163 209 174 182Q185 155 204.5 135Q224 115 251 103.5Q278 92 309 92Q340 92 367.5 103.5Q395 115 415 135Q435 155 446.5 182Q458 209 458 239V730H566V246Q566 152 519 88.5Q472 25 395 2Q356 -23 331 -39.5Q306 -56 292 -68Q278 -80 273 -90Q268 -100 268 -110Q268 -128 282.5 -136.5Q297 -145 317 -145Q340 -145 355 -135.5Q370 -126 384 -114L455 -162Q429 -185 391.5 -202Q354 -219 317 -219Z" glyph-name="Uogonek" horiz-adv-x="620" unicode="&#370;" /><glyph d="M310 -10Q254 -10 207.5 8Q161 26 126.5 59Q92 92 73 139.5Q54 187 54 246V730H163V239Q163 209 174 182Q185 155 204.5 135Q224 115 251 103.5Q278 92 309 92Q340 92 367.5 103.5Q395 115 415 135Q435 155 446.5 182Q458 209 458 239V730H566V246Q566 187 546.5 139.5Q527 92 493 59Q459 26 412 8Q365 -10 310 -10ZM306 824Q325 824 338 836.5Q351 849 351 867Q351 885 338 898.5Q325 912 306 912Q289 912 276 898.5Q263 885 263 867Q263 849 276 836.5Q289 824 306 824ZM306 755Q283 755 263 764Q243 773 228 788Q213 803 204 823.5Q195 844 195 867Q195 891 204 911.5Q213 932 228 947Q243 962 263 971Q283 980 306 980Q330 980 351 971Q372 962 387 947Q402 932 411 911.5Q420 891 420 867Q420 844 411 823.5Q402 803 387 788Q372 773 351 764Q330 755 306 755Z" glyph-name="Uring" horiz-adv-x="620" unicode="&#366;" /><glyph d="M135 784Q135 842 162.5 877Q190 912 237 912Q262 912 280.5 904Q299 896 316 886Q331 876 345 868Q359 860 373 860Q406 860 406 908H477Q477 849 451 814.5Q425 780 374 780Q345 780 324 790.5Q303 801 285 812Q272 820 261.5 825.5Q251 831 237 831Q206 831 206 784ZM310 -10Q254 -10 207.5 8Q161 26 126.5 59Q92 92 73 139.5Q54 187 54 246V730H163V239Q163 209 174 182Q185 155 204.5 135Q224 115 251 103.5Q278 92 309 92Q340 92 367.5 103.5Q395 115 415 135Q435 155 446.5 182Q458 209 458 239V730H566V246Q566 187 546.5 139.5Q527 92 493 59Q459 26 412 8Q365 -10 310 -10Z" glyph-name="Utilde" horiz-adv-x="620" unicode="&#360;" /><glyph d="M334 -9Q274 -9 222.5 9.5Q171 28 134 63Q97 98 76 150Q55 202 55 270V730H163V267Q163 227 176 195Q189 163 211.5 140.5Q234 118 265.5 105.5Q297 93 335 93Q372 93 403.5 105.5Q435 118 458.5 140.5Q482 163 495 195Q508 227 508 267V730H616V270Q616 202 595 150Q574 98 536.5 63Q499 28 447 9.5Q395 -9 334 -9ZM219 730H308V587H219ZM363 730H452V587H363Z" glyph-name="Uumlaut" horiz-adv-x="670" unicode="&#61816;" /><glyph d="M24 730H137L334 161L531 730H644L389 0H279Z" glyph-name="V" horiz-adv-x="668" unicode="V" /><glyph d="M25 730H139L294 171L470 730H576L751 170L910 730H1020L805 0H697L522 561L346 0H235Z" glyph-name="W" horiz-adv-x="1045" unicode="W" /><glyph d="M591 950H705L557 784H475ZM25 730H139L294 171L470 730H576L751 170L910 730H1020L805 0H697L522 561L346 0H235Z" glyph-name="Wacute" horiz-adv-x="1045" unicode="&#7810;" /><glyph d="M483 950H558L677 784H586L520 878L456 784H364ZM25 730H139L294 171L470 730H576L751 170L910 730H1020L805 0H697L522 561L346 0H235Z" glyph-name="Wcircumflex" horiz-adv-x="1045" unicode="&#372;" /><glyph d="M549 926H656V788H549ZM388 926H495V788H388ZM25 730H139L294 171L470 730H576L751 170L910 730H1020L805 0H697L522 561L346 0H235Z" glyph-name="Wdieresis" horiz-adv-x="1045" unicode="&#7812;" /><glyph d="M329 950H443L559 784H477ZM25 730H139L294 171L470 730H576L751 170L910 730H1020L805 0H697L522 561L346 0H235Z" glyph-name="Wgrave" horiz-adv-x="1045" unicode="&#7808;" /><glyph d="M321 280 144 0H22L257 371L32 730H154L322 466L489 730H611L385 374L621 0H499Z" glyph-name="X" horiz-adv-x="642" unicode="X" /><glyph d="M258 346 21 730H141L312 450L484 730H604L366 345V0H258Z" glyph-name="Y" horiz-adv-x="624" unicode="Y" /><glyph d="M380 950H494L346 784H264ZM258 346 21 730H141L312 450L484 730H604L366 345V0H258Z" glyph-name="Yacute" horiz-adv-x="624" unicode="&#221;" /><glyph d="M273 950H348L467 784H376L310 878L246 784H154ZM258 346 21 730H141L312 450L484 730H604L366 345V0H258Z" glyph-name="Ycircumflex" horiz-adv-x="624" unicode="&#374;" /><glyph d="M339 926H446V788H339ZM178 926H285V788H178ZM258 346 21 730H141L312 450L484 730H604L366 345V0H258Z" glyph-name="Ydieresis" horiz-adv-x="624" unicode="&#376;" /><glyph d="M121 950H235L351 784H269ZM258 346 21 730H141L312 450L484 730H604L366 345V0H258Z" glyph-name="Ygrave" horiz-adv-x="624" unicode="&#7922;" /><glyph d="M48 100 403 627H59V730H531V631L175 104H531V0H48Z" glyph-name="Z" horiz-adv-x="578" unicode="Z" /><glyph d="M353 950H467L319 784H237ZM48 100 403 627H59V730H531V631L175 104H531V0H48Z" glyph-name="Zacute" horiz-adv-x="578" unicode="&#377;" /><glyph d="M136 950H228L292 856L358 950H449L330 784H255ZM48 100 403 627H59V730H531V631L175 104H531V0H48Z" glyph-name="Zcaron" horiz-adv-x="578" unicode="&#381;" /><glyph d="M241 926H348V788H241ZM48 100 403 627H59V730H531V631L175 104H531V0H48Z" glyph-name="Zdotaccent" horiz-adv-x="578" unicode="&#379;" /><glyph d="M298 88Q332 88 361 101Q390 114 411 136Q432 158 444 187.5Q456 217 456 251Q456 284 444 313.5Q432 343 411 365Q390 387 361 400Q332 413 298 413Q265 413 236 400.5Q207 388 185.5 366Q164 344 152 314.5Q140 285 140 251Q140 217 152 187Q164 157 185.5 135Q207 113 236 100.5Q265 88 298 88ZM283 -10Q235 -10 190.5 8.5Q146 27 111 60.5Q76 94 55 142Q34 190 34 250Q34 310 54.5 358Q75 406 109.5 440Q144 474 189.5 492Q235 510 284 510Q334 510 378 490Q422 470 450 435V500H557V0H450V69Q421 32 377 11Q333 -10 283 -10Z" glyph-name="a" horiz-adv-x="608" unicode="a" /><glyph d="M207 79Q236 79 262.5 88.5Q289 98 311 114Q333 130 350 150.5Q367 171 378 193V255Q368 244 331 232Q294 220 249 210Q191 197 163.5 180.5Q136 164 136 133Q136 107 155.5 93Q175 79 207 79ZM201 -10Q117 -10 75 28.5Q33 67 33 125Q33 194 79.5 232Q126 270 216 291Q245 298 273 304.5Q301 311 322.5 319Q344 327 357.5 338Q371 349 371 366Q371 392 348.5 408.5Q326 425 272 425Q208 425 180 399.5Q152 374 152 335V332H52V334Q52 419 108.5 464.5Q165 510 268 510Q370 510 425 467Q480 424 480 346V0H377V65Q346 33 302.5 11.5Q259 -10 201 -10Z" glyph-name="a.alt" horiz-adv-x="531" unicode="&#58560;" /><glyph d="M208 214H373L291 449ZM237 596H344L558 0H448L408 114H173L133 0H24Z" glyph-name="a.smcp" horiz-adv-x="581" unicode="&#57857;" /><glyph d="M350 720H464L316 554H234ZM298 88Q332 88 361 101Q390 114 411 136Q432 158 444 187.5Q456 217 456 251Q456 284 444 313.5Q432 343 411 365Q390 387 361 400Q332 413 298 413Q265 413 236 400.5Q207 388 185.5 366Q164 344 152 314.5Q140 285 140 251Q140 217 152 187Q164 157 185.5 135Q207 113 236 100.5Q265 88 298 88ZM283 -10Q235 -10 190.5 8.5Q146 27 111 60.5Q76 94 55 142Q34 190 34 250Q34 310 54.5 358Q75 406 109.5 440Q144 474 189.5 492Q235 510 284 510Q334 510 378 490Q422 470 450 435V500H557V0H450V69Q421 32 377 11Q333 -10 283 -10Z" glyph-name="aacute" horiz-adv-x="608" unicode="&#225;" /><glyph d="M348 720H462L314 554H232ZM207 79Q236 79 262.5 88.5Q289 98 311 114Q333 130 350 150.5Q367 171 378 193V255Q368 244 331 232Q294 220 249 210Q191 197 163.5 180.5Q136 164 136 133Q136 107 155.5 93Q175 79 207 79ZM201 -10Q117 -10 75 28.5Q33 67 33 125Q33 194 79.5 232Q126 270 216 291Q245 298 273 304.5Q301 311 322.5 319Q344 327 357.5 338Q371 349 371 366Q371 392 348.5 408.5Q326 425 272 425Q208 425 180 399.5Q152 374 152 335V332H52V334Q52 419 108.5 464.5Q165 510 268 510Q370 510 425 467Q480 424 480 346V0H377V65Q346 33 302.5 11.5Q259 -10 201 -10Z" glyph-name="aacute.alt" horiz-adv-x="531" unicode="&#59537;" /><glyph d="M364 816H478L330 650H248ZM208 214H373L291 449ZM237 596H344L558 0H448L408 114H173L133 0H24Z" glyph-name="aacute.smcp" horiz-adv-x="581" unicode="&#57889;" /><glyph d="M304 549Q263 549 232.5 562Q202 575 182 597.5Q162 620 152.5 650Q143 680 143 715H219Q219 667 240.5 641.5Q262 616 304 615Q345 616 367 641.5Q389 667 389 715H466Q466 680 454.5 650Q443 620 422 597.5Q401 575 371 562Q341 549 304 549ZM298 88Q332 88 361 101Q390 114 411 136Q432 158 444 187.5Q456 217 456 251Q456 284 444 313.5Q432 343 411 365Q390 387 361 400Q332 413 298 413Q265 413 236 400.5Q207 388 185.5 366Q164 344 152 314.5Q140 285 140 251Q140 217 152 187Q164 157 185.5 135Q207 113 236 100.5Q265 88 298 88ZM283 -10Q235 -10 190.5 8.5Q146 27 111 60.5Q76 94 55 142Q34 190 34 250Q34 310 54.5 358Q75 406 109.5 440Q144 474 189.5 492Q235 510 284 510Q334 510 378 490Q422 470 450 435V500H557V0H450V69Q421 32 377 11Q333 -10 283 -10Z" glyph-name="abreve" horiz-adv-x="608" unicode="&#259;" /><glyph d="M207 79Q236 79 262.5 88.5Q289 98 311 114Q333 130 350 150.5Q367 171 378 193V255Q368 244 331 232Q294 220 249 210Q191 197 163.5 180.5Q136 164 136 133Q136 107 155.5 93Q175 79 207 79ZM267 549Q226 549 195.5 562Q165 575 145 597.5Q125 620 115.5 650Q106 680 106 715H182Q182 667 203.5 641.5Q225 616 267 615Q308 616 330 641.5Q352 667 352 715H429Q429 680 417.5 650Q406 620 385 597.5Q364 575 334 562Q304 549 267 549ZM201 -10Q117 -10 75 28.5Q33 67 33 125Q33 194 79.5 232Q126 270 216 291Q245 298 273 304.5Q301 311 322.5 319Q344 327 357.5 338Q371 349 371 366Q371 392 348.5 408.5Q326 425 272 425Q208 425 180 399.5Q152 374 152 335V332H52V334Q52 419 108.5 464.5Q165 510 268 510Q370 510 425 467Q480 424 480 346V0H377V65Q346 33 302.5 11.5Q259 -10 201 -10Z" glyph-name="abreve.alt" horiz-adv-x="531" unicode="&#59542;" /><glyph d="M208 214H373L291 449ZM288 643Q247 643 216.5 656Q186 669 166 691.5Q146 714 136.5 744Q127 774 127 809H203Q203 761 224.5 735.5Q246 710 288 709Q329 710 351 735.5Q373 761 373 809H450Q450 774 438.5 744Q427 714 406 691.5Q385 669 355 656Q325 643 288 643ZM237 596H344L558 0H448L408 114H173L133 0H24Z" glyph-name="abreve.smcp" horiz-adv-x="581" unicode="&#57897;" /><glyph d="M278 720H353L472 554H381L315 648L251 554H159ZM298 88Q332 88 361 101Q390 114 411 136Q432 158 444 187.5Q456 217 456 251Q456 284 444 313.5Q432 343 411 365Q390 387 361 400Q332 413 298 413Q265 413 236 400.5Q207 388 185.5 366Q164 344 152 314.5Q140 285 140 251Q140 217 152 187Q164 157 185.5 135Q207 113 236 100.5Q265 88 298 88ZM283 -10Q235 -10 190.5 8.5Q146 27 111 60.5Q76 94 55 142Q34 190 34 250Q34 310 54.5 358Q75 406 109.5 440Q144 474 189.5 492Q235 510 284 510Q334 510 378 490Q422 470 450 435V500H557V0H450V69Q421 32 377 11Q333 -10 283 -10Z" glyph-name="acircumflex" horiz-adv-x="608" unicode="&#226;" /><glyph d="M207 79Q236 79 262.5 88.5Q289 98 311 114Q333 130 350 150.5Q367 171 378 193V255Q368 244 331 232Q294 220 249 210Q191 197 163.5 180.5Q136 164 136 133Q136 107 155.5 93Q175 79 207 79ZM229 720H304L423 554H332L266 648L202 554H110ZM201 -10Q117 -10 75 28.5Q33 67 33 125Q33 194 79.5 232Q126 270 216 291Q245 298 273 304.5Q301 311 322.5 319Q344 327 357.5 338Q371 349 371 366Q371 392 348.5 408.5Q326 425 272 425Q208 425 180 399.5Q152 374 152 335V332H52V334Q52 419 108.5 464.5Q165 510 268 510Q370 510 425 467Q480 424 480 346V0H377V65Q346 33 302.5 11.5Q259 -10 201 -10Z" glyph-name="acircumflex.alt" horiz-adv-x="531" unicode="&#59539;" /><glyph d="M208 214H373L291 449ZM252 812H327L446 646H355L289 740L225 646H133ZM237 596H344L558 0H448L408 114H173L133 0H24Z" glyph-name="acircumflex.smcp" horiz-adv-x="581" unicode="&#57891;" /><glyph d="M234 720H348L200 554H118Z" glyph-name="acute" horiz-adv-x="485" unicode="&#180;" /><glyph d="M177 696H284V558H177ZM338 696H445V558H338ZM298 88Q332 88 361 101Q390 114 411 136Q432 158 444 187.5Q456 217 456 251Q456 284 444 313.5Q432 343 411 365Q390 387 361 400Q332 413 298 413Q265 413 236 400.5Q207 388 185.5 366Q164 344 152 314.5Q140 285 140 251Q140 217 152 187Q164 157 185.5 135Q207 113 236 100.5Q265 88 298 88ZM283 -10Q235 -10 190.5 8.5Q146 27 111 60.5Q76 94 55 142Q34 190 34 250Q34 310 54.5 358Q75 406 109.5 440Q144 474 189.5 492Q235 510 284 510Q334 510 378 490Q422 470 450 435V500H557V0H450V69Q421 32 377 11Q333 -10 283 -10Z" glyph-name="adieresis" horiz-adv-x="608" unicode="&#228;" /><glyph d="M292 696H399V558H292ZM131 696H238V558H131ZM207 79Q236 79 262.5 88.5Q289 98 311 114Q333 130 350 150.5Q367 171 378 193V255Q368 244 331 232Q294 220 249 210Q191 197 163.5 180.5Q136 164 136 133Q136 107 155.5 93Q175 79 207 79ZM201 -10Q117 -10 75 28.5Q33 67 33 125Q33 194 79.5 232Q126 270 216 291Q245 298 273 304.5Q301 311 322.5 319Q344 327 357.5 338Q371 349 371 366Q371 392 348.5 408.5Q326 425 272 425Q208 425 180 399.5Q152 374 152 335V332H52V334Q52 419 108.5 464.5Q165 510 268 510Q370 510 425 467Q480 424 480 346V0H377V65Q346 33 302.5 11.5Q259 -10 201 -10Z" glyph-name="adieresis.alt" horiz-adv-x="531" unicode="&#59540;" /><glyph d="M318 792H425V654H318ZM157 792H264V654H157ZM208 214H373L291 449ZM237 596H344L558 0H448L408 114H173L133 0H24Z" glyph-name="adieresis.smcp" horiz-adv-x="581" unicode="&#57892;" /><glyph d="M630 416Q575 416 535.5 385.5Q496 355 480 306H779Q765 359 726 387.5Q687 416 630 416ZM218 79Q250 79 277.5 91.5Q305 104 325.5 122Q346 140 358.5 160.5Q371 181 374 197Q374 198 374.5 208.5Q375 219 374 230V244Q373 249 373 252.5Q373 256 372 258Q366 244 334 233Q302 222 251 211Q196 199 167.5 183Q139 167 139 133Q139 110 157.5 94.5Q176 79 218 79ZM635 -10Q562 -10 507 19Q452 48 418 97Q406 75 385.5 55.5Q365 36 339 21.5Q313 7 281 -1.5Q249 -10 213 -10Q165 -10 131 0.5Q97 11 75 30Q53 49 42.5 74.5Q32 100 32 130Q32 166 45 191.5Q58 217 80.5 235.5Q103 254 133.5 266.5Q164 279 200 288Q232 296 262.5 302.5Q293 309 317 317.5Q341 326 355.5 337.5Q370 349 370 366Q370 391 345 408.5Q320 426 269 426Q205 426 174 397Q143 368 143 326V323H45V325Q45 412 103.5 461Q162 510 265 510Q328 510 375 490.5Q422 471 446 434Q481 469 527.5 489.5Q574 510 630 510Q685 510 732 491Q779 472 813.5 438Q848 404 867.5 357Q887 310 887 254V216H473Q483 157 526 121Q569 85 635 85Q687 85 725 110.5Q763 136 783 178L873 138Q841 70 779.5 30Q718 -10 635 -10Z" glyph-name="ae" horiz-adv-x="922" unicode="&#230;" /><glyph d="M232 208H381L337 437ZM297 596H777V495H434L463 350H777V249H482L511 102H777V0H421L400 110H187L137 0H21Z" glyph-name="ae.smcp" horiz-adv-x="820" unicode="&#57905;" /><glyph d="M526 720H640L492 554H410ZM630 416Q575 416 535.5 385.5Q496 355 480 306H779Q765 359 726 387.5Q687 416 630 416ZM218 79Q250 79 277.5 91.5Q305 104 325.5 122Q346 140 358.5 160.5Q371 181 374 197Q374 198 374.5 208.5Q375 219 374 230V244Q373 249 373 252.5Q373 256 372 258Q366 244 334 233Q302 222 251 211Q196 199 167.5 183Q139 167 139 133Q139 110 157.5 94.5Q176 79 218 79ZM635 -10Q562 -10 507 19Q452 48 418 97Q406 75 385.5 55.5Q365 36 339 21.5Q313 7 281 -1.5Q249 -10 213 -10Q165 -10 131 0.5Q97 11 75 30Q53 49 42.5 74.5Q32 100 32 130Q32 166 45 191.5Q58 217 80.5 235.5Q103 254 133.5 266.5Q164 279 200 288Q232 296 262.5 302.5Q293 309 317 317.5Q341 326 355.5 337.5Q370 349 370 366Q370 391 345 408.5Q320 426 269 426Q205 426 174 397Q143 368 143 326V323H45V325Q45 412 103.5 461Q162 510 265 510Q328 510 375 490.5Q422 471 446 434Q481 469 527.5 489.5Q574 510 630 510Q685 510 732 491Q779 472 813.5 438Q848 404 867.5 357Q887 310 887 254V216H473Q483 157 526 121Q569 85 635 85Q687 85 725 110.5Q763 136 783 178L873 138Q841 70 779.5 30Q718 -10 635 -10Z" glyph-name="aeacute" horiz-adv-x="922" unicode="&#509;" /><glyph d="M554 816H668L520 650H438ZM232 208H381L337 437ZM297 596H777V495H434L463 350H777V249H482L511 102H777V0H421L400 110H187L137 0H21Z" glyph-name="aeacute.smcp" horiz-adv-x="823" unicode="&#57906;" /><glyph d="M107 720H221L337 554H255ZM298 88Q332 88 361 101Q390 114 411 136Q432 158 444 187.5Q456 217 456 251Q456 284 444 313.5Q432 343 411 365Q390 387 361 400Q332 413 298 413Q265 413 236 400.5Q207 388 185.5 366Q164 344 152 314.5Q140 285 140 251Q140 217 152 187Q164 157 185.5 135Q207 113 236 100.5Q265 88 298 88ZM283 -10Q235 -10 190.5 8.5Q146 27 111 60.5Q76 94 55 142Q34 190 34 250Q34 310 54.5 358Q75 406 109.5 440Q144 474 189.5 492Q235 510 284 510Q334 510 378 490Q422 470 450 435V500H557V0H450V69Q421 32 377 11Q333 -10 283 -10Z" glyph-name="agrave" horiz-adv-x="608" unicode="&#224;" /><glyph d="M80 720H194L310 554H228ZM207 79Q236 79 262.5 88.5Q289 98 311 114Q333 130 350 150.5Q367 171 378 193V255Q368 244 331 232Q294 220 249 210Q191 197 163.5 180.5Q136 164 136 133Q136 107 155.5 93Q175 79 207 79ZM201 -10Q117 -10 75 28.5Q33 67 33 125Q33 194 79.5 232Q126 270 216 291Q245 298 273 304.5Q301 311 322.5 319Q344 327 357.5 338Q371 349 371 366Q371 392 348.5 408.5Q326 425 272 425Q208 425 180 399.5Q152 374 152 335V332H52V334Q52 419 108.5 464.5Q165 510 268 510Q370 510 425 467Q480 424 480 346V0H377V65Q346 33 302.5 11.5Q259 -10 201 -10Z" glyph-name="agrave.alt" horiz-adv-x="531" unicode="&#59538;" /><glyph d="M102 816H216L332 650H250ZM208 214H373L291 449ZM237 596H344L558 0H448L408 114H173L133 0H24Z" glyph-name="agrave.smcp" horiz-adv-x="581" unicode="&#57890;" /><glyph d="M233 -237Q181 -237 146 -223.5Q111 -210 84 -181L153 -137Q169 -153 187 -162.5Q205 -172 232 -172Q258 -172 275.5 -162.5Q293 -153 293 -137Q293 -105 228 -105H217V-53H239Q303 -51 339 -74.5Q375 -98 375 -135Q375 -158 364 -176.5Q353 -195 333.5 -208.5Q314 -222 288 -229.5Q262 -237 233 -237Z" glyph-name="altcedilla" horiz-adv-x="485" unicode="&#58390;" /><glyph d="M186 631H450V554H186ZM298 88Q332 88 361 101Q390 114 411 136Q432 158 444 187.5Q456 217 456 251Q456 284 444 313.5Q432 343 411 365Q390 387 361 400Q332 413 298 413Q265 413 236 400.5Q207 388 185.5 366Q164 344 152 314.5Q140 285 140 251Q140 217 152 187Q164 157 185.5 135Q207 113 236 100.5Q265 88 298 88ZM283 -10Q235 -10 190.5 8.5Q146 27 111 60.5Q76 94 55 142Q34 190 34 250Q34 310 54.5 358Q75 406 109.5 440Q144 474 189.5 492Q235 510 284 510Q334 510 378 490Q422 470 450 435V500H557V0H450V69Q421 32 377 11Q333 -10 283 -10Z" glyph-name="amacron" horiz-adv-x="608" unicode="&#257;" /><glyph d="M137 631H401V554H137ZM207 79Q236 79 262.5 88.5Q289 98 311 114Q333 130 350 150.5Q367 171 378 193V255Q368 244 331 232Q294 220 249 210Q191 197 163.5 180.5Q136 164 136 133Q136 107 155.5 93Q175 79 207 79ZM201 -10Q117 -10 75 28.5Q33 67 33 125Q33 194 79.5 232Q126 270 216 291Q245 298 273 304.5Q301 311 322.5 319Q344 327 357.5 338Q371 349 371 366Q371 392 348.5 408.5Q326 425 272 425Q208 425 180 399.5Q152 374 152 335V332H52V334Q52 419 108.5 464.5Q165 510 268 510Q370 510 425 467Q480 424 480 346V0H377V65Q346 33 302.5 11.5Q259 -10 201 -10Z" glyph-name="amacron.alt" horiz-adv-x="531" unicode="&#59541;" /><glyph d="M208 214H373L291 449ZM157 727H421V650H157ZM237 596H344L558 0H448L408 114H173L133 0H24Z" glyph-name="amacron.smcp" horiz-adv-x="581" unicode="&#57896;" /><glyph d="M318 85Q356 85 391 97Q426 109 456 130L270 318L225 363Q183 339 162 306.5Q141 274 141 228Q141 201 152 175.5Q163 150 185 130Q207 110 240 97.5Q273 85 318 85ZM525 63Q480 29 428.5 9Q377 -11 319 -11Q241 -11 186.5 10.5Q132 32 98 66.5Q64 101 48.5 143Q33 185 33 227Q33 299 69 352.5Q105 406 163 438Q145 466 135 496Q125 526 125 561Q125 598 139.5 630.5Q154 663 180 687.5Q206 712 242.5 726Q279 740 324 740Q364 740 395.5 730.5Q427 721 451 705Q475 689 492.5 668Q510 647 521 624L421 579Q409 605 386.5 624.5Q364 644 326 644Q286 644 262 620Q238 596 238 561Q238 539 244 521Q250 503 264 483Q278 463 301 438.5Q324 414 359 379L533 204Q561 241 578.5 282Q596 323 604 365H483V467H711V419Q711 385 703.5 348.5Q696 312 682 275.5Q668 239 647.5 203.5Q627 168 601 137L736 0H588Z" glyph-name="ampersand" horiz-adv-x="754" unicode="&amp;" /><glyph d="M268 86Q294 86 318 93Q342 100 364 113L231 247Q222 256 213 264.5Q204 273 196 281Q169 264 155 242Q141 220 141 188Q141 146 173 116Q205 86 268 86ZM433 45Q397 19 355.5 5Q314 -9 268 -9Q205 -9 161 8Q117 25 89 52.5Q61 80 48 114.5Q35 149 35 185Q35 242 63 285Q91 328 135 355Q121 377 113 400.5Q105 424 105 452Q105 484 117 511.5Q129 539 151 559.5Q173 580 204.5 592Q236 604 274 604Q343 604 383 575Q423 546 443 506L343 460Q335 480 319 494.5Q303 509 277 509Q249 509 232 492.5Q215 476 215 452Q215 436 220 423Q225 410 236.5 394Q248 378 267.5 358Q287 338 317 308L441 182Q461 208 474.5 237.5Q488 267 494 297H398V397H601V349Q601 292 576.5 230Q552 168 509 115L622 0H478Z" glyph-name="ampersand.smcp" horiz-adv-x="648" unicode="&#58369;" /><glyph d="M21 250 248 730H363L135 250L363 -230H248Z" glyph-name="anglebracketleft" horiz-adv-x="381" unicode="&#12296;" /><glyph d="M21 360 248 840H363L135 360L363 -120H248Z" glyph-name="anglebracketleft.cap" horiz-adv-x="381" unicode="&#58519;" /><glyph d="M206 -98 21 294 207 686H319L133 294L319 -98Z" glyph-name="anglebracketleft.smcp" horiz-adv-x="340" unicode="&#58527;" /><glyph d="M21 -230 249 250 21 730H136L363 250L136 -230Z" glyph-name="anglebracketright" horiz-adv-x="381" unicode="&#12297;" /><glyph d="M21 -120 249 360 21 840H136L363 360L136 -120Z" glyph-name="anglebracketright.cap" horiz-adv-x="381" unicode="&#58520;" /><glyph d="M25 -98 211 294 24 686H137L323 294L137 -98Z" glyph-name="anglebracketright.smcp" horiz-adv-x="340" unicode="&#58512;" /><glyph d="M237 596H344L558 0H448L291 449L133 0H24Z" glyph-name="anocross.smcp" horiz-adv-x="581" unicode="&#57888;" /><glyph d="M298 88Q332 88 361 101Q390 114 411 136Q432 158 444 187.5Q456 217 456 251Q456 284 444 313.5Q432 343 411 365Q390 387 361 400Q332 413 298 413Q265 413 236 400.5Q207 388 185.5 366Q164 344 152 314.5Q140 285 140 251Q140 217 152 187Q164 157 185.5 135Q207 113 236 100.5Q265 88 298 88ZM283 -10Q235 -10 190.5 8.5Q146 27 111 60.5Q76 94 55 142Q34 190 34 250Q34 310 54.5 358Q75 406 109.5 440Q144 474 189.5 492Q235 510 284 510Q334 510 378 490Q422 470 450 435V500H557V0H554Q505 -34 483.5 -61Q462 -88 462 -108Q462 -127 474 -137.5Q486 -148 505 -148Q523 -148 536.5 -139.5Q550 -131 562 -119L624 -174Q599 -196 568.5 -210Q538 -224 502 -224Q472 -224 448.5 -215.5Q425 -207 408.5 -192Q392 -177 383.5 -157Q375 -137 375 -115Q374 -77 394.5 -46.5Q415 -16 450 12V69Q421 32 377 11Q333 -10 283 -10Z" glyph-name="aogonek" horiz-adv-x="608" unicode="&#261;" /><glyph d="M207 79Q236 79 262.5 88.5Q289 98 311 114Q333 130 350 150.5Q367 171 378 193V255Q368 244 331 232Q294 220 249 210Q191 197 163.5 180.5Q136 164 136 133Q136 107 155.5 93Q175 79 207 79ZM430 -224Q400 -224 376.5 -215.5Q353 -207 336.5 -192Q320 -177 311.5 -157Q303 -137 303 -115Q302 -77 322 -47Q342 -17 377 11V65Q346 33 302.5 11.5Q259 -10 201 -10Q117 -10 75 28.5Q33 67 33 125Q33 194 79.5 232Q126 270 216 291Q245 298 273 304.5Q301 311 322.5 319Q344 327 357.5 338Q371 349 371 366Q371 392 348.5 408.5Q326 425 272 425Q208 425 180 399.5Q152 374 152 335V332H52V334Q52 419 108.5 464.5Q165 510 268 510Q370 510 425 467Q480 424 480 346V1L482 0Q433 -34 411.5 -61Q390 -88 390 -108Q390 -127 402 -137.5Q414 -148 433 -148Q451 -148 464.5 -139.5Q478 -131 490 -119L552 -174Q527 -196 496.5 -210Q466 -224 430 -224Z" glyph-name="aogonek.alt" horiz-adv-x="531" unicode="&#59545;" /><glyph d="M208 214H373L291 449ZM237 596H344L558 0H555L557 -1Q518 -26 493 -42.5Q468 -59 454 -71Q440 -83 435 -93Q430 -103 430 -113Q430 -131 444.5 -139.5Q459 -148 479 -148Q502 -148 517 -138.5Q532 -129 546 -117L617 -165Q591 -188 553.5 -205Q516 -222 479 -222Q416 -222 378 -192Q340 -162 340 -117Q340 -84 362 -52.5Q384 -21 443 14L408 114H173L133 0H24Z" glyph-name="aogonek.smcp" horiz-adv-x="581" unicode="&#57903;" /><glyph d="M40 320Q62 331 82.5 339Q103 347 134 347Q156 347 180 341Q204 335 228 328.5Q252 322 274 316Q296 310 316 310Q331 310 342.5 311.5Q354 313 365 316Q376 319 386.5 323Q397 327 410 333V240Q389 228 369 222.5Q349 217 316 217Q295 217 271 223Q247 229 223 235.5Q199 242 176 248Q153 254 134 254Q104 254 83.5 246Q63 238 40 227ZM40 487Q62 498 84 505.5Q106 513 137 513Q159 513 182.5 507Q206 501 228.5 494Q251 487 272.5 481Q294 475 314 475Q343 475 363.5 482Q384 489 410 500V407Q389 395 368 388.5Q347 382 314 382Q293 382 270 388Q247 394 223.5 401Q200 408 178 414Q156 420 137 420Q107 420 85 412.5Q63 405 40 394Z" glyph-name="approxequal" horiz-adv-x="450" unicode="&#8776;" /><glyph d="M294 616Q313 616 326 628.5Q339 641 339 659Q339 677 326 690.5Q313 704 294 704Q277 704 264 690.5Q251 677 251 659Q251 641 264 628.5Q277 616 294 616ZM294 547Q271 547 251 556Q231 565 216 580Q201 595 192 615.5Q183 636 183 659Q183 683 192 703.5Q201 724 216 739Q231 754 251 763Q271 772 294 772Q318 772 339 763Q360 754 375 739Q390 724 399 703.5Q408 683 408 659Q408 636 399 615.5Q390 595 375 580Q360 565 339 556Q318 547 294 547ZM298 88Q332 88 361 101Q390 114 411 136Q432 158 444 187.5Q456 217 456 251Q456 284 444 313.5Q432 343 411 365Q390 387 361 400Q332 413 298 413Q265 413 236 400.5Q207 388 185.5 366Q164 344 152 314.5Q140 285 140 251Q140 217 152 187Q164 157 185.5 135Q207 113 236 100.5Q265 88 298 88ZM283 -10Q235 -10 190.5 8.5Q146 27 111 60.5Q76 94 55 142Q34 190 34 250Q34 310 54.5 358Q75 406 109.5 440Q144 474 189.5 492Q235 510 284 510Q334 510 378 490Q422 470 450 435V500H557V0H450V69Q421 32 377 11Q333 -10 283 -10Z" glyph-name="aring" horiz-adv-x="608" unicode="&#229;" /><glyph d="M265 616Q284 616 297 628.5Q310 641 310 659Q310 677 297 690.5Q284 704 265 704Q248 704 235 690.5Q222 677 222 659Q222 641 235 628.5Q248 616 265 616ZM207 79Q236 79 262.5 88.5Q289 98 311 114Q333 130 350 150.5Q367 171 378 193V255Q368 244 331 232Q294 220 249 210Q191 197 163.5 180.5Q136 164 136 133Q136 107 155.5 93Q175 79 207 79ZM265 547Q242 547 222 556Q202 565 187 580Q172 595 163 615.5Q154 636 154 659Q154 683 163 703.5Q172 724 187 739Q202 754 222 763Q242 772 265 772Q289 772 310 763Q331 754 346 739Q361 724 370 703.5Q379 683 379 659Q379 636 370 615.5Q361 595 346 580Q331 565 310 556Q289 547 265 547ZM201 -10Q117 -10 75 28.5Q33 67 33 125Q33 194 79.5 232Q126 270 216 291Q245 298 273 304.5Q301 311 322.5 319Q344 327 357.5 338Q371 349 371 366Q371 392 348.5 408.5Q326 425 272 425Q208 425 180 399.5Q152 374 152 335V332H52V334Q52 419 108.5 464.5Q165 510 268 510Q370 510 425 467Q480 424 480 346V0H377V65Q346 33 302.5 11.5Q259 -10 201 -10Z" glyph-name="aring.alt" horiz-adv-x="530" unicode="&#59543;" /><glyph d="M288 612Q307 612 320 624.5Q333 637 333 655Q333 673 320 686.5Q307 700 288 700Q271 700 258 686.5Q245 673 245 655Q245 637 258 624.5Q271 612 288 612ZM208 214H373L291 449ZM225 562Q203 577 190 601.5Q177 626 177 655Q177 679 186 699.5Q195 720 210 735Q225 750 245 759Q265 768 288 768Q312 768 333 759Q354 750 369 735Q384 720 393 699.5Q402 679 402 655Q402 626 389.5 602.5Q377 579 355 564L558 0H448L408 114H173L133 0H24Z" glyph-name="aring.smcp" horiz-adv-x="581" unicode="&#57894;" /><glyph d="M295 616Q314 616 327 628.5Q340 641 340 659Q340 677 327 690.5Q314 704 295 704Q278 704 265 690.5Q252 677 252 659Q252 641 265 628.5Q278 616 295 616ZM367 969H481L333 803H251ZM295 547Q272 547 252 556Q232 565 217 580Q202 595 193 615.5Q184 636 184 659Q184 683 193 703.5Q202 724 217 739Q232 754 252 763Q272 772 295 772Q319 772 340 763Q361 754 376 739Q391 724 400 703.5Q409 683 409 659Q409 636 400 615.5Q391 595 376 580Q361 565 340 556Q319 547 295 547ZM298 88Q332 88 361 101Q390 114 411 136Q432 158 444 187.5Q456 217 456 251Q456 284 444 313.5Q432 343 411 365Q390 387 361 400Q332 413 298 413Q265 413 236 400.5Q207 388 185.5 366Q164 344 152 314.5Q140 285 140 251Q140 217 152 187Q164 157 185.5 135Q207 113 236 100.5Q265 88 298 88ZM283 -10Q235 -10 190.5 8.5Q146 27 111 60.5Q76 94 55 142Q34 190 34 250Q34 310 54.5 358Q75 406 109.5 440Q144 474 189.5 492Q235 510 284 510Q334 510 378 490Q422 470 450 435V500H557V0H450V69Q421 32 377 11Q333 -10 283 -10Z" glyph-name="aringacute" horiz-adv-x="607" unicode="&#507;" /><glyph d="M267 619Q286 619 299 631.5Q312 644 312 662Q312 680 299 693.5Q286 707 267 707Q250 707 237 693.5Q224 680 224 662Q224 644 237 631.5Q250 619 267 619ZM342 974H456L308 808H226ZM207 79Q236 79 262.5 88.5Q289 98 311 114Q333 130 350 150.5Q367 171 378 193V255Q368 244 331 232Q294 220 249 210Q191 197 163.5 180.5Q136 164 136 133Q136 107 155.5 93Q175 79 207 79ZM267 550Q244 550 224 559Q204 568 189 583Q174 598 165 618.5Q156 639 156 662Q156 686 165 706.5Q174 727 189 742Q204 757 224 766Q244 775 267 775Q291 775 312 766Q333 757 348 742Q363 727 372 706.5Q381 686 381 662Q381 639 372 618.5Q363 598 348 583Q333 568 312 559Q291 550 267 550ZM201 -10Q117 -10 75 28.5Q33 67 33 125Q33 194 79.5 232Q126 270 216 291Q245 298 273 304.5Q301 311 322.5 319Q344 327 357.5 338Q371 349 371 366Q371 392 348.5 408.5Q326 425 272 425Q208 425 180 399.5Q152 374 152 335V332H52V334Q52 419 108.5 464.5Q165 510 268 510Q370 510 425 467Q480 424 480 346V0H377V65Q346 33 302.5 11.5Q259 -10 201 -10Z" glyph-name="aringacute.alt" horiz-adv-x="531" unicode="&#62552;" /><glyph d="M288 612Q307 612 320 624.5Q333 637 333 655Q333 673 320 686.5Q307 700 288 700Q271 700 258 686.5Q245 673 245 655Q245 637 258 624.5Q271 612 288 612ZM361 972H475L327 806H245ZM208 214H373L291 449ZM225 562Q203 577 190 601.5Q177 626 177 655Q177 679 186 699.5Q195 720 210 735Q225 750 245 759Q265 768 288 768Q312 768 333 759Q354 750 369 735Q384 720 393 699.5Q402 679 402 655Q402 626 389.5 602.5Q377 579 355 564L558 0H448L408 114H173L133 0H24Z" glyph-name="aringacute.smcp" horiz-adv-x="581" unicode="&#57901;" /><glyph d="M413 -12Q392 22 361 55Q330 88 295.5 116.5Q261 145 226.5 166.5Q192 188 162 200L216 295Q265 272 309 234Q353 196 384 157V730H490V155Q521 194 565.5 233Q610 272 660 295L714 200Q684 188 649.5 166.5Q615 145 580.5 116.5Q546 88 515 55Q484 22 463 -12Z" glyph-name="arrowdown" horiz-adv-x="896" unicode="&#8595;" /><glyph d="M300 668V725L447 640V602ZM300 576V633L447 548V510ZM300 760V817L447 732V694ZM630 601V639L782 727V670ZM630 693V731L782 819V762ZM630 509V547L782 635V578ZM813 150Q777 132 740.5 108.5Q704 85 671 56.5Q638 28 610.5 -4.5Q583 -37 564 -71H512Q492 -37 462 -5Q432 27 398 54Q364 81 329 102Q294 123 264 135L315 229Q365 206 409.5 169.5Q454 133 485 95V730H589V99Q618 137 661.5 174.5Q705 212 752 238Z" glyph-name="arrowdown.alt" horiz-adv-x="1068" unicode="&#62553;" /><glyph d="M285 90Q267 126 243 161.5Q219 197 190.5 229.5Q162 262 129 290Q96 318 62 339V391Q96 413 129 443.5Q162 474 190.5 508.5Q219 543 240.5 578Q262 613 274 643L369 588Q346 538 307 493Q268 448 228 418H814V314H230Q270 286 309 242Q348 198 374 151Z" glyph-name="arrowleft" horiz-adv-x="896" unicode="&#8592;" /><glyph d="M880 604H937L852 457H814ZM788 604H845L760 457H722ZM972 604H1029L944 457H906ZM813 274H851L939 122H882ZM905 274H943L1031 122H974ZM721 274H759L847 122H790ZM267 91Q249 127 225.5 163.5Q202 200 173.5 233Q145 266 113 293.5Q81 321 47 340V392Q81 412 113 442Q145 472 172 506Q199 540 219.5 575Q240 610 252 640L347 589Q324 539 287.5 494.5Q251 450 213 419H942V315H217Q255 286 292.5 242Q330 198 356 152Z" glyph-name="arrowleft.alt" horiz-adv-x="1068" unicode="&#62560;" /><glyph d="M503 151Q529 199 567.5 242.5Q606 286 646 314H62V418H647Q608 449 569.5 493.5Q531 538 508 588L603 643Q615 613 636.5 578Q658 543 686 508.5Q714 474 746.5 443Q779 412 814 391V339Q780 318 747.5 290Q715 262 686 229.5Q657 197 633 161.5Q609 126 591 90Z" glyph-name="arrowright" horiz-adv-x="896" unicode="&#8594;" /><glyph d="M194 129H137L222 276H260ZM286 129H229L314 276H352ZM102 129H45L130 276H168ZM261 459H223L135 611H192ZM169 459H131L43 611H100ZM353 459H315L227 611H284ZM807 642Q825 606 848.5 569.5Q872 533 900.5 500Q929 467 961 439.5Q993 412 1027 393V341Q992 321 960.5 291Q929 261 902 227Q875 193 854.5 158Q834 123 822 93L727 144Q750 194 786.5 238.5Q823 283 861 314H132V418H857Q818 447 781 490.5Q744 534 718 581Z" glyph-name="arrowright.alt" horiz-adv-x="1068" unicode="&#62561;" /><glyph d="M386 575Q355 536 310.5 497.5Q266 459 217 436L162 530Q192 542 227 564Q262 586 296.5 614Q331 642 361.5 674.5Q392 707 414 742H464Q485 707 516 674.5Q547 642 581 614Q615 586 650 564Q685 542 715 530L660 436Q611 459 566 497.5Q521 536 491 575V0H386Z" glyph-name="arrowup" horiz-adv-x="896" unicode="&#8593;" /><glyph d="M778 62V5L631 91V129ZM778 154V97L631 183V221ZM778 -30V-87L631 -2V37ZM448 130V92L296 3V60ZM448 222V184L296 95V152ZM448 38V-1L296 -89V-32ZM265 592Q301 610 337 633.5Q373 657 406 685.5Q439 714 467 746Q495 778 513 812H566Q585 777 615 745.5Q645 714 679 687Q713 660 748 639.5Q783 619 813 607L762 512Q712 535 667 571.5Q622 608 592 646V0H488V641Q459 603 415.5 566Q372 529 325 503Z" glyph-name="arrowup.alt" horiz-adv-x="1068" unicode="&#62562;" /><glyph d="M205 710H279L400 541H309L242 637L177 541H85Z" glyph-name="asciicircum" horiz-adv-x="485" unicode="^" /><glyph d="M66 568Q67 625 93.5 659.5Q120 694 167 694Q192 694 210 686Q228 678 244 669Q258 660 271.5 652Q285 644 299 644Q330 644 331 689H401Q401 632 375.5 597.5Q350 563 300 563Q271 563 250.5 573.5Q230 584 213 594Q201 602 190 607Q179 612 167 612Q138 612 137 568Z" glyph-name="asciitilde" horiz-adv-x="472" unicode="~" /><glyph d="M236 509 257 377H163L183 509L79 425L33 507L157 554L33 603L81 684L184 599L163 731H257L236 599L340 683L387 601L261 554L387 506L338 425Z" glyph-name="asterisk" horiz-adv-x="420" unicode="*" /><glyph d="M392 164Q432 164 457.5 192.5Q483 221 487 260Q491 298 470.5 326.5Q450 355 411 355Q392 355 374.5 348Q357 341 343.5 329Q330 317 321 299.5Q312 282 311 261Q308 241 313 223Q318 205 329 192Q340 179 356 171.5Q372 164 392 164ZM408 -125Q330 -125 262 -95.5Q194 -66 143.5 -15.5Q93 35 64 103.5Q35 172 35 250Q35 328 64.5 396Q94 464 145 515Q196 566 264.5 595.5Q333 625 411 625Q495 625 563.5 596.5Q632 568 680 521Q728 474 754.5 413Q781 352 781 288Q781 245 770 207Q759 169 738 140.5Q717 112 686.5 95.5Q656 79 617 79Q573 79 544 95Q515 111 500 134Q481 109 449 93.5Q417 78 372 78Q341 78 311 90Q281 102 258.5 125Q236 148 223.5 181.5Q211 215 216 259Q221 305 239.5 338.5Q258 372 283.5 394Q309 416 338.5 427Q368 438 396 438Q431 438 457 426.5Q483 415 500 395Q501 407 502 414.5Q503 422 503 426V432H596L576 251Q567 169 624 169Q656 169 673.5 201.5Q691 234 691 287Q691 334 671.5 379Q652 424 615.5 459Q579 494 527 515.5Q475 537 411 537Q352 537 300 514.5Q248 492 209.5 453Q171 414 149 361.5Q127 309 127 250Q127 191 148.5 138.5Q170 86 208 47Q246 8 297.5 -14.5Q349 -37 408 -37Q471 -37 523.5 -13.5Q576 10 615 52L683 -5Q635 -58 563.5 -91.5Q492 -125 408 -125Z" glyph-name="at" horiz-adv-x="816" unicode="@" /><glyph d="M392 278Q432 278 457.5 307Q483 336 487 375Q491 413 470.5 441.5Q450 470 411 470Q373 470 343.5 444Q314 418 311 375Q308 355 313 337.5Q318 320 329 306.5Q340 293 356 285.5Q372 278 392 278ZM408 -11Q330 -11 262 18.5Q194 48 143.5 99Q93 150 64 218.5Q35 287 35 365Q35 443 64.5 511Q94 579 145 630Q196 681 264.5 710.5Q333 740 411 740Q495 740 563.5 711.5Q632 683 680 636Q728 589 754.5 528Q781 467 781 403Q781 361 770 322.5Q759 284 738 255.5Q717 227 686.5 210Q656 193 617 193Q573 193 544 209.5Q515 226 500 249Q481 223 449 207.5Q417 192 372 192Q341 192 311 204Q281 216 258.5 239Q236 262 223.5 295.5Q211 329 216 373Q221 419 239.5 452.5Q258 486 283.5 508Q309 530 338.5 541Q368 552 396 552Q431 552 457 540.5Q483 529 500 510Q501 522 502 529Q503 536 503 540V546H596L576 365Q571 323 583 303.5Q595 284 624 284Q656 284 673.5 316Q691 348 691 402Q691 449 671.5 494Q652 539 615.5 574Q579 609 527 630Q475 651 411 651Q352 651 300 628.5Q248 606 209.5 567Q171 528 149 476Q127 424 127 364Q127 305 148.5 253Q170 201 208 162Q246 123 297.5 100.5Q349 78 408 78Q470 78 522.5 101.5Q575 125 614 167L683 110Q633 56 562.5 22.5Q492 -11 408 -11Z" glyph-name="at.cap" horiz-adv-x="816" unicode="&#58643;" /><glyph d="M392 214Q432 214 457.5 242.5Q483 271 487 310Q491 348 470.5 376.5Q450 405 411 405Q392 405 374.5 398Q357 391 343.5 379Q330 367 321 349.5Q312 332 311 311Q308 291 313 273Q318 255 329 242Q340 229 356 221.5Q372 214 392 214ZM408 -75Q330 -75 262 -45.5Q194 -16 143.5 34.5Q93 85 64 153.5Q35 222 35 300Q35 378 64.5 446Q94 514 145 565Q196 616 264.5 645.5Q333 675 411 675Q495 675 563.5 646.5Q632 618 680 571Q728 524 754.5 463Q781 402 781 338Q781 296 770 258Q759 220 738 191.5Q717 163 686.5 146Q656 129 617 129Q573 129 544 145Q515 161 500 184Q481 159 449 143.5Q417 128 372 128Q341 128 311 140Q281 152 258.5 175Q236 198 223.5 231.5Q211 265 216 309Q221 355 239.5 388.5Q258 422 283.5 444Q309 466 338.5 477Q368 488 396 488Q431 488 457 476.5Q483 465 500 445Q501 457 502 464.5Q503 472 503 476V482H596L576 301Q567 219 624 219Q656 219 673.5 251.5Q691 284 691 337Q691 384 671.5 429Q652 474 615.5 509Q579 544 527 565.5Q475 587 411 587Q352 587 300 564.5Q248 542 209.5 503Q171 464 149 411.5Q127 359 127 300Q127 241 148.5 188.5Q170 136 208 97Q246 58 297.5 35.5Q349 13 408 13Q470 13 522.5 37Q575 61 614 103L683 45Q633 -9 562.5 -42Q492 -75 408 -75Z" glyph-name="at.smcp" horiz-adv-x="816" unicode="&#62987;" /><glyph d="M138 554Q138 612 165.5 647Q193 682 240 682Q265 682 283.5 674Q302 666 319 656Q334 646 348 638Q362 630 376 630Q409 630 409 678H480Q480 619 454 584.5Q428 550 377 550Q348 550 327 560.5Q306 571 288 582Q275 590 264.5 595.5Q254 601 240 601Q209 601 209 554ZM298 88Q332 88 361 101Q390 114 411 136Q432 158 444 187.5Q456 217 456 251Q456 284 444 313.5Q432 343 411 365Q390 387 361 400Q332 413 298 413Q265 413 236 400.5Q207 388 185.5 366Q164 344 152 314.5Q140 285 140 251Q140 217 152 187Q164 157 185.5 135Q207 113 236 100.5Q265 88 298 88ZM283 -10Q235 -10 190.5 8.5Q146 27 111 60.5Q76 94 55 142Q34 190 34 250Q34 310 54.5 358Q75 406 109.5 440Q144 474 189.5 492Q235 510 284 510Q334 510 378 490Q422 470 450 435V500H557V0H450V69Q421 32 377 11Q333 -10 283 -10Z" glyph-name="atilde" horiz-adv-x="608" unicode="&#227;" /><glyph d="M207 79Q236 79 262.5 88.5Q289 98 311 114Q333 130 350 150.5Q367 171 378 193V255Q368 244 331 232Q294 220 249 210Q191 197 163.5 180.5Q136 164 136 133Q136 107 155.5 93Q175 79 207 79ZM104 554Q104 612 131.5 647Q159 682 206 682Q231 682 249.5 674Q268 666 285 656Q300 646 314 638Q328 630 342 630Q375 630 375 678H446Q446 619 420 584.5Q394 550 343 550Q314 550 293 560.5Q272 571 254 582Q241 590 230.5 595.5Q220 601 206 601Q175 601 175 554ZM201 -10Q117 -10 75 28.5Q33 67 33 125Q33 194 79.5 232Q126 270 216 291Q245 298 273 304.5Q301 311 322.5 319Q344 327 357.5 338Q371 349 371 366Q371 392 348.5 408.5Q326 425 272 425Q208 425 180 399.5Q152 374 152 335V332H52V334Q52 419 108.5 464.5Q165 510 268 510Q370 510 425 467Q480 424 480 346V0H377V65Q346 33 302.5 11.5Q259 -10 201 -10Z" glyph-name="atilde.alt" horiz-adv-x="530" unicode="&#59544;" /><glyph d="M208 214H373L291 449ZM118 650Q118 708 145.5 743Q173 778 220 778Q245 778 263.5 770Q282 762 299 752Q314 742 328 734Q342 726 356 726Q389 726 389 774H460Q460 715 434 680.5Q408 646 357 646Q328 646 307 656.5Q286 667 268 678Q255 686 244.5 691.5Q234 697 220 697Q189 697 189 650ZM237 596H344L558 0H448L408 114H173L133 0H24Z" glyph-name="atilde.smcp" horiz-adv-x="581" unicode="&#57893;" /><glyph d="M433 596H533V461H433ZM48 596H148V461H48ZM208 214H373L291 449ZM237 596H344L558 0H448L408 114H173L133 0H24Z" glyph-name="aumlaut.smcp" horiz-adv-x="581" unicode="&#61817;" /><glyph d="M309 88Q342 88 371 100.5Q400 113 421.5 135Q443 157 455 187Q467 217 467 251Q467 285 455 314.5Q443 344 421.5 366Q400 388 371 400.5Q342 413 309 413Q275 413 246.5 400Q218 387 197 365Q176 343 164 313.5Q152 284 152 251Q152 217 164 187.5Q176 158 197 136Q218 114 246.5 101Q275 88 309 88ZM325 -10Q274 -10 229.5 10.5Q185 31 157 68V0H52V730H158V433Q186 468 229.5 489Q273 510 324 510Q373 510 418 492Q463 474 497.5 440Q532 406 552.5 358Q573 310 573 250Q573 190 552 142Q531 94 496.5 60.5Q462 27 417.5 8.5Q373 -10 325 -10Z" glyph-name="b" horiz-adv-x="605" unicode="b" /><glyph d="M160 500V355H262Q310 355 331.5 376Q353 397 353 430Q353 463 329.5 481.5Q306 500 259 500ZM160 256V97H269Q317 97 343 118.5Q369 140 369 178Q369 215 346 235.5Q323 256 266 256ZM53 596H256Q353 596 406 553.5Q459 511 459 432Q459 391 442 361Q425 331 393 312Q434 293 455.5 259Q477 225 477 175Q477 132 462.5 99Q448 66 420.5 44Q393 22 354 11Q315 0 267 0H53Z" glyph-name="b.smcp" horiz-adv-x="511" unicode="&#57858;" /><glyph d="M19 730H134L480 0H365Z" glyph-name="backslash" horiz-adv-x="497" unicode="\" /><glyph d="M19 730H134L480 0H365Z" glyph-name="backslash.cap" horiz-adv-x="497" unicode="&#58466;" /><glyph d="M26 596H138L421 0H309Z" glyph-name="backslash.smcp" horiz-adv-x="446" unicode="&#58472;" /><glyph d="M349 304 420 377 476 321 406 249 477 179 421 123 350 192 281 121 225 177 294 248 223 318 279 374ZM199 97H501V403H199ZM100 500H600V0H100Z" glyph-name="ballotboxwithx" horiz-adv-x="700" unicode="&#9746;" /><glyph d="M49 730H157V-230H49Z" glyph-name="bar" horiz-adv-x="205" unicode="|" /><glyph d="M49 840H157V-120H49Z" glyph-name="bar.cap" horiz-adv-x="205" unicode="&#58467;" /><glyph d="M49 686H155V-98H49Z" glyph-name="bar.smcp" horiz-adv-x="203" unicode="&#58473;" /><glyph d="M464 -10Q386 -10 318 19.5Q250 49 199.5 100Q149 151 119.5 219Q90 287 90 365Q90 443 119.5 511Q149 579 199.5 630Q250 681 318 710.5Q386 740 464 740Q542 740 610 710.5Q678 681 728.5 630Q779 579 808.5 511Q838 443 838 365Q838 287 808.5 219Q779 151 728.5 100Q678 49 610 19.5Q542 -10 464 -10Z" glyph-name="blackcircle" horiz-adv-x="927" unicode="&#9679;" /><glyph d="M100 500H600V0H100Z" glyph-name="blacksmallsquare" horiz-adv-x="700" unicode="&#9642;" /><glyph d="M100 730H826V0H100Z" glyph-name="blacksquare" horiz-adv-x="926" unicode="&#9632;" /><glyph d="M343 -230Q280 -230 238 -219Q196 -208 170.5 -182.5Q145 -157 134 -115.5Q123 -74 123 -13V95Q123 124 120 144Q117 164 107.5 176Q98 188 79 193Q60 198 29 198V298Q60 298 79 303Q98 308 107.5 320Q117 332 120 352Q123 372 123 401V513Q123 574 134 615.5Q145 657 170.5 682.5Q196 708 238 719Q280 730 343 730H354V631Q314 631 290 626Q266 621 252.5 608Q239 595 234.5 572Q230 549 230 512V400Q230 340 214 303Q198 266 158 248Q198 230 214 193Q230 156 230 96V-12Q230 -49 234.5 -72Q239 -95 252.5 -108Q266 -121 290 -126Q314 -131 354 -131V-230Z" glyph-name="braceleft" horiz-adv-x="387" unicode="{" /><glyph d="M343 -120Q280 -120 238 -109Q196 -98 170.5 -72.5Q145 -47 134 -5.5Q123 36 123 97V205Q123 234 120 254Q117 274 107.5 286Q98 298 79 303Q60 308 29 308V408Q60 408 79 413Q98 418 107.5 430Q117 442 120 462Q123 482 123 511V623Q123 684 134 725.5Q145 767 170.5 792.5Q196 818 238 829Q280 840 343 840H354V741Q314 741 290 736Q266 731 252.5 718Q239 705 234.5 682Q230 659 230 622V510Q230 450 214 413Q198 376 158 358Q198 340 214 303Q230 266 230 206V98Q230 62 234.5 38.5Q239 15 252.5 2Q266 -11 290 -16Q314 -21 354 -21V-120Z" glyph-name="braceleft.cap" horiz-adv-x="387" unicode="&#58517;" /><glyph d="M299 -98Q247 -98 212 -89.5Q177 -81 156 -60.5Q135 -40 126 -6Q117 28 117 79V160Q117 185 115 201Q113 217 105.5 226.5Q98 236 83.5 239.5Q69 243 44 243V341Q69 341 83.5 344.5Q98 348 105.5 357.5Q113 367 115 383Q117 399 117 423V509Q117 559 126 593Q135 627 156 647.5Q177 668 212 677Q247 686 299 686H309V589Q281 589 264 585.5Q247 582 237.5 572.5Q228 563 224.5 547Q221 531 221 506V422Q221 371 209 339.5Q197 308 165 292Q197 275 209 243.5Q221 212 221 161V82Q221 57 224.5 41Q228 25 237.5 15.5Q247 6 264 2.5Q281 -1 309 -1V-98Z" glyph-name="braceleft.smcp" horiz-adv-x="352" unicode="&#58525;" /><glyph d="M34 -130Q73 -130 97.5 -125.5Q122 -121 135.5 -108Q149 -95 153.5 -72Q158 -49 158 -12V96Q158 156 173.5 193Q189 230 229 248Q189 266 173.5 303Q158 340 158 400V512Q158 549 153.5 572Q149 595 135.5 608Q122 621 97.5 625.5Q73 630 34 630V730H45Q108 730 150 719Q192 708 217.5 682.5Q243 657 254 615.5Q265 574 265 513V401Q265 372 268 352Q271 332 280.5 320Q290 308 308.5 303Q327 298 359 298V198Q327 198 308.5 193Q290 188 280.5 176Q271 164 268 144Q265 124 265 95V-13Q265 -74 254 -115.5Q243 -157 217.5 -182.5Q192 -208 150 -219Q108 -230 45 -230H34Z" glyph-name="braceright" horiz-adv-x="387" unicode="}" /><glyph d="M34 -20Q73 -20 97.5 -15Q122 -10 135.5 3Q149 16 153.5 39Q158 62 158 98V206Q158 266 173.5 303Q189 340 229 358Q189 376 173.5 413Q158 450 158 510V622Q158 659 153.5 682Q149 705 135.5 718Q122 731 97.5 735.5Q73 740 34 740V840H45Q108 840 150 829Q192 818 217.5 792.5Q243 767 254 725.5Q265 684 265 623V511Q265 482 268 462Q271 442 280.5 430Q290 418 308.5 413Q327 408 359 408V308Q327 308 308.5 303Q290 298 280.5 286Q271 274 268 254Q265 234 265 205V97Q265 36 254 -5.5Q243 -47 217.5 -72.5Q192 -98 150 -109Q108 -120 45 -120H34Z" glyph-name="braceright.cap" horiz-adv-x="387" unicode="&#58518;" /><glyph d="M44 -1Q71 -1 88 2Q105 5 114.5 14Q124 23 127.5 39Q131 55 131 80V161Q131 212 142.5 243.5Q154 275 186 292Q154 308 142.5 339.5Q131 371 131 422V508Q131 533 127.5 548.5Q124 564 114.5 573Q105 582 88 585Q71 588 44 588V686H54Q106 686 141 677Q176 668 197 647.5Q218 627 226.5 593Q235 559 235 509V423Q235 399 237.5 383Q240 367 247.5 357.5Q255 348 269.5 344.5Q284 341 309 341V243Q284 243 269.5 239.5Q255 236 247.5 226.5Q240 217 237.5 201Q235 185 235 160V79Q235 28 226.5 -6Q218 -40 197 -60.5Q176 -81 141 -89.5Q106 -98 54 -98H44Z" glyph-name="braceright.smcp" horiz-adv-x="353" unicode="&#58526;" /><glyph d="M44 730H317V627H152V-127H317V-230H44Z" glyph-name="bracketleft" horiz-adv-x="360" unicode="[" /><glyph d="M44 840H317V737H152V-17H317V-120H44Z" glyph-name="bracketleft.cap" horiz-adv-x="360" unicode="&#58515;" /><glyph d="M49 686H279V585H155V3H279V-98H49Z" glyph-name="bracketleft.smcp" horiz-adv-x="323" unicode="&#58523;" /><glyph d="M44 -127H208V627H44V730H317V-230H44Z" glyph-name="bracketright" horiz-adv-x="360" unicode="]" /><glyph d="M44 -17H208V737H44V840H317V-120H44Z" glyph-name="bracketright.cap" horiz-adv-x="360" unicode="&#58516;" /><glyph d="M44 3H168V585H44V686H274V-98H44Z" glyph-name="bracketright.smcp" horiz-adv-x="323" unicode="&#58524;" /><glyph d="M241 549Q200 549 169.5 562Q139 575 119 597.5Q99 620 89.5 650Q80 680 80 715H156Q156 667 177.5 641.5Q199 616 241 615Q282 616 304 641.5Q326 667 326 715H403Q403 680 391.5 650Q380 620 359 597.5Q338 575 308 562Q278 549 241 549Z" glyph-name="breve" horiz-adv-x="485" unicode="&#728;" /><glyph d="M49 190H157V-230H49ZM49 730H157V310H49Z" glyph-name="brokenbar" horiz-adv-x="226" unicode="&#166;" /><glyph d="M49 300H157V-120H49ZM49 840H157V420H49Z" glyph-name="brokenbar.cap" horiz-adv-x="226" unicode="&#58469;" /><glyph d="M184 160Q165 160 148 167.5Q131 175 118.5 187.5Q106 200 98.5 217Q91 234 91 253Q91 272 98.5 289Q106 306 118.5 318.5Q131 331 148 338.5Q165 346 184 346Q203 346 220 338.5Q237 331 249.5 318.5Q262 306 269.5 289Q277 272 277 253Q277 234 269.5 217Q262 200 249.5 187.5Q237 175 220 167.5Q203 160 184 160Z" glyph-name="bullet" horiz-adv-x="367" unicode="&#8226;" /><glyph d="M184 271Q165 271 148 278.5Q131 286 118.5 298.5Q106 311 98.5 328Q91 345 91 364Q91 383 98.5 400Q106 417 118.5 429.5Q131 442 148 449.5Q165 457 184 457Q203 457 220 449.5Q237 442 249.5 429.5Q262 417 269.5 400Q277 383 277 364Q277 345 269.5 328Q262 311 249.5 298.5Q237 286 220 278.5Q203 271 184 271Z" glyph-name="bullet.cap" horiz-adv-x="367" unicode="&#58470;" /><glyph d="M559 365Q559 326 532.5 298.5Q506 271 465 271Q445 271 427.5 278.5Q410 286 397 298.5Q384 311 376.5 328Q369 345 369 365Q369 384 376.5 401Q384 418 397 431Q410 444 427.5 451.5Q445 459 465 459Q485 459 502.5 451.5Q520 444 532.5 431Q545 418 552 401Q559 384 559 365ZM600 365Q600 392 590 416.5Q580 441 562 459Q544 477 519 487.5Q494 498 465 498Q436 498 411 487.5Q386 477 368 459Q350 441 339.5 416.5Q329 392 329 365Q329 337 339.5 313Q350 289 368 271Q386 253 411 243Q436 233 465 233Q494 233 519 243Q544 253 562 271Q580 289 590 313Q600 337 600 365ZM697 365Q697 317 679.5 274Q662 231 631 199.5Q600 168 557.5 149.5Q515 131 465 131Q415 131 372.5 149.5Q330 168 299 199.5Q268 231 250.5 274Q233 317 233 365Q233 413 250.5 455.5Q268 498 299 530.5Q330 563 372.5 581.5Q415 600 465 600Q515 600 557.5 581.5Q600 563 631 530.5Q662 498 679.5 455.5Q697 413 697 365ZM742 365Q742 423 720 473Q698 523 660 560Q622 597 571.5 617.5Q521 638 464 638Q407 638 356.5 617.5Q306 597 268 560Q230 523 208 473Q186 423 186 365Q186 306 208 256.5Q230 207 268 170Q306 133 356.5 112.5Q407 92 464 92Q521 92 571.5 112.5Q622 133 660 170Q698 207 720 256.5Q742 306 742 365ZM839 365Q839 287 809.5 219Q780 151 729 100Q678 49 610 19.5Q542 -10 464 -10Q386 -10 318 19.5Q250 49 199 100Q148 151 118.5 219Q89 287 89 365Q89 443 118.5 511Q148 579 199 630Q250 681 318 710.5Q386 740 464 740Q542 740 610 710.5Q678 681 729 630Q780 579 809.5 511Q839 443 839 365Z" glyph-name="bullseye" horiz-adv-x="927" unicode="&#9678;" /><glyph d="M295 -10Q239 -10 191.5 10.5Q144 31 109 66Q74 101 54 148.5Q34 196 34 250Q34 305 54 352.5Q74 400 109.5 435Q145 470 192.5 490Q240 510 295 510Q379 510 441 467.5Q503 425 532 357L436 316Q417 360 380.5 385Q344 410 295 410Q262 410 233.5 397.5Q205 385 184 363.5Q163 342 151 312.5Q139 283 139 250Q139 217 151 188Q163 159 184 137Q205 115 234 102.5Q263 90 297 90Q348 90 384.5 118Q421 146 438 188L535 147Q505 78 444 34Q383 -10 295 -10Z" glyph-name="c" horiz-adv-x="561" unicode="c" /><glyph d="M345 -8Q278 -8 221.5 16Q165 40 124.5 82Q84 124 61 179.5Q38 235 38 298Q38 362 61.5 418Q85 474 126 515.5Q167 557 223.5 580.5Q280 604 345 604Q388 604 428 592.5Q468 581 502.5 561Q537 541 565 512Q593 483 612 449L518 394Q494 442 448.5 471.5Q403 501 345 501Q301 501 265 484.5Q229 468 202.5 440.5Q176 413 161.5 376Q147 339 147 298Q147 256 162 219Q177 182 203 155Q229 128 265 112Q301 96 343 96Q407 96 452 129Q497 162 520 213L619 165Q581 87 510 39.5Q439 -8 345 -8Z" glyph-name="c.smcp" horiz-adv-x="641" unicode="&#57859;" /><glyph d="M295 -10Q239 -10 191.5 10.5Q144 31 109 66Q74 101 54 148.5Q34 196 34 250Q34 305 54 352.5Q74 400 109.5 435Q145 470 192.5 490Q240 510 295 510Q379 510 441 467.5Q503 425 532 357L436 316Q417 360 380.5 385Q344 410 295 410Q262 410 233.5 397.5Q205 385 184 363.5Q163 342 151 312.5Q139 283 139 250Q139 217 151 188Q163 159 184 137Q205 115 234 102.5Q263 90 297 90Q348 90 384.5 118Q421 146 438 188L535 147Q505 78 444 34Q383 -10 295 -10ZM361 720H475L327 554H245Z" glyph-name="cacute" horiz-adv-x="561" unicode="&#263;" /><glyph d="M345 -8Q278 -8 221.5 16Q165 40 124.5 82Q84 124 61 179.5Q38 235 38 298Q38 362 61.5 418Q85 474 126 515.5Q167 557 223.5 580.5Q280 604 345 604Q388 604 428 592.5Q468 581 502.5 561Q537 541 565 512Q593 483 612 449L518 394Q494 442 448.5 471.5Q403 501 345 501Q301 501 265 484.5Q229 468 202.5 440.5Q176 413 161.5 376Q147 339 147 298Q147 256 162 219Q177 182 203 155Q229 128 265 112Q301 96 343 96Q407 96 452 129Q497 162 520 213L619 165Q581 87 510 39.5Q439 -8 345 -8ZM415 816H529L381 650H299Z" glyph-name="cacute.smcp" horiz-adv-x="641" unicode="&#57908;" /><glyph d="M85 720H177L241 626L307 720H398L279 554H204Z" glyph-name="caron" horiz-adv-x="485" unicode="&#711;" /><glyph d="M228 720H319L265 543H196Z" glyph-name="caronSlovak" horiz-adv-x="485" unicode="&#58387;" /><glyph d="M137 720H229L293 626L359 720H450L331 554H256ZM295 -10Q239 -10 191.5 10.5Q144 31 109 66Q74 101 54 148.5Q34 196 34 250Q34 305 54 352.5Q74 400 109.5 435Q145 470 192.5 490Q240 510 295 510Q379 510 441 467.5Q503 425 532 357L436 316Q417 360 380.5 385Q344 410 295 410Q262 410 233.5 397.5Q205 385 184 363.5Q163 342 151 312.5Q139 283 139 250Q139 217 151 188Q163 159 184 137Q205 115 234 102.5Q263 90 297 90Q348 90 384.5 118Q421 146 438 188L535 147Q505 78 444 34Q383 -10 295 -10Z" glyph-name="ccaron" horiz-adv-x="561" unicode="&#269;" /><glyph d="M190 816H282L346 722L412 816H503L384 650H309ZM345 -8Q278 -8 221.5 16Q165 40 124.5 82Q84 124 61 179.5Q38 235 38 298Q38 362 61.5 418Q85 474 126 515.5Q167 557 223.5 580.5Q280 604 345 604Q388 604 428 592.5Q468 581 502.5 561Q537 541 565 512Q593 483 612 449L518 394Q494 442 448.5 471.5Q403 501 345 501Q301 501 265 484.5Q229 468 202.5 440.5Q176 413 161.5 376Q147 339 147 298Q147 256 162 219Q177 182 203 155Q229 128 265 112Q301 96 343 96Q407 96 452 129Q497 162 520 213L619 165Q581 87 510 39.5Q439 -8 345 -8Z" glyph-name="ccaron.smcp" horiz-adv-x="641" unicode="&#57910;" /><glyph d="M298 -237Q255 -237 218.5 -221.5Q182 -206 154 -180L223 -138Q241 -152 258.5 -162Q276 -172 304 -172Q329 -172 347 -162Q365 -152 365 -137Q365 -105 301 -105H255V-7Q207 0 166.5 22.5Q126 45 96.5 79Q67 113 50.5 157Q34 201 34 250Q34 305 54 352.5Q74 400 109.5 435Q145 470 192.5 490Q240 510 295 510Q379 510 441 467.5Q503 425 532 357L436 316Q417 360 380.5 385Q344 410 295 410Q262 410 233.5 397.5Q205 385 184 363.5Q163 342 151 312.5Q139 283 139 250Q139 217 151 188Q163 159 184 137Q205 115 234 102.5Q263 90 297 90Q348 90 384.5 118Q421 146 438 188L535 147Q508 84 456 42Q404 0 330 -8V-53Q384 -51 415.5 -74.5Q447 -98 447 -133Q447 -156 435 -175Q423 -194 403 -208Q383 -222 356 -229.5Q329 -237 298 -237Z" glyph-name="ccedilla" horiz-adv-x="561" unicode="&#231;" /><glyph d="M337 -237Q294 -237 257.5 -221.5Q221 -206 193 -180L262 -138Q280 -152 297.5 -162Q315 -172 343 -172Q368 -172 386 -162Q404 -152 404 -137Q404 -105 340 -105H294V-4Q237 5 190 31.5Q143 58 109 98.5Q75 139 56.5 190Q38 241 38 298Q38 362 61.5 418Q85 474 126 515.5Q167 557 223.5 580.5Q280 604 345 604Q388 604 428 592.5Q468 581 502.5 561Q537 541 565 512Q593 483 612 449L518 394Q494 442 448.5 471.5Q403 501 345 501Q301 501 265 484.5Q229 468 202.5 440.5Q176 413 161.5 376Q147 339 147 298Q147 256 162 219Q177 182 203 155Q229 128 265 112Q301 96 343 96Q407 96 452 129Q497 162 520 213L619 165Q583 92 518.5 45.5Q454 -1 369 -7V-53Q423 -51 454.5 -74.5Q486 -98 486 -133Q486 -156 474 -175Q462 -194 442 -208Q422 -222 395 -229.5Q368 -237 337 -237Z" glyph-name="ccedilla.smcp" horiz-adv-x="641" unicode="&#57912;" /><glyph d="M257 720H332L451 554H360L294 648L230 554H138ZM295 -10Q239 -10 191.5 10.5Q144 31 109 66Q74 101 54 148.5Q34 196 34 250Q34 305 54 352.5Q74 400 109.5 435Q145 470 192.5 490Q240 510 295 510Q379 510 441 467.5Q503 425 532 357L436 316Q417 360 380.5 385Q344 410 295 410Q262 410 233.5 397.5Q205 385 184 363.5Q163 342 151 312.5Q139 283 139 250Q139 217 151 188Q163 159 184 137Q205 115 234 102.5Q263 90 297 90Q348 90 384.5 118Q421 146 438 188L535 147Q505 78 444 34Q383 -10 295 -10Z" glyph-name="ccircumflex" horiz-adv-x="561" unicode="&#265;" /><glyph d="M310 814H385L504 648H413L347 742L283 648H191ZM345 -8Q278 -8 221.5 16Q165 40 124.5 82Q84 124 61 179.5Q38 235 38 298Q38 362 61.5 418Q85 474 126 515.5Q167 557 223.5 580.5Q280 604 345 604Q388 604 428 592.5Q468 581 502.5 561Q537 541 565 512Q593 483 612 449L518 394Q494 442 448.5 471.5Q403 501 345 501Q301 501 265 484.5Q229 468 202.5 440.5Q176 413 161.5 376Q147 339 147 298Q147 256 162 219Q177 182 203 155Q229 128 265 112Q301 96 343 96Q407 96 452 129Q497 162 520 213L619 165Q581 87 510 39.5Q439 -8 345 -8Z" glyph-name="ccircumflex.smcp" horiz-adv-x="641" unicode="&#57909;" /><glyph d="M242 696H349V558H242ZM295 -10Q239 -10 191.5 10.5Q144 31 109 66Q74 101 54 148.5Q34 196 34 250Q34 305 54 352.5Q74 400 109.5 435Q145 470 192.5 490Q240 510 295 510Q379 510 441 467.5Q503 425 532 357L436 316Q417 360 380.5 385Q344 410 295 410Q262 410 233.5 397.5Q205 385 184 363.5Q163 342 151 312.5Q139 283 139 250Q139 217 151 188Q163 159 184 137Q205 115 234 102.5Q263 90 297 90Q348 90 384.5 118Q421 146 438 188L535 147Q505 78 444 34Q383 -10 295 -10Z" glyph-name="cdotaccent" horiz-adv-x="561" unicode="&#267;" /><glyph d="M295 792H402V654H295ZM345 -8Q278 -8 221.5 16Q165 40 124.5 82Q84 124 61 179.5Q38 235 38 298Q38 362 61.5 418Q85 474 126 515.5Q167 557 223.5 580.5Q280 604 345 604Q388 604 428 592.5Q468 581 502.5 561Q537 541 565 512Q593 483 612 449L518 394Q494 442 448.5 471.5Q403 501 345 501Q301 501 265 484.5Q229 468 202.5 440.5Q176 413 161.5 376Q147 339 147 298Q147 256 162 219Q177 182 203 155Q229 128 265 112Q301 96 343 96Q407 96 452 129Q497 162 520 213L619 165Q581 87 510 39.5Q439 -8 345 -8Z" glyph-name="cdotaccent.smcp" horiz-adv-x="641" unicode="&#57911;" /><glyph d="M226 -237Q183 -237 146.5 -221.5Q110 -206 82 -180L151 -138Q169 -152 186.5 -162Q204 -172 232 -172Q257 -172 275 -162Q293 -152 293 -137Q293 -105 229 -105H183V0H258V-53Q312 -51 343.5 -74.5Q375 -98 375 -133Q375 -156 363 -175Q351 -194 331 -208Q311 -222 284 -229.5Q257 -237 226 -237Z" glyph-name="cedilla" horiz-adv-x="485" unicode="&#184;" /><glyph d="M253 -4Q206 6 167 30Q128 54 99.5 88.5Q71 123 55 166.5Q39 210 39 259Q39 308 55 352Q71 396 99.5 430.5Q128 465 167.5 488.5Q207 512 253 521V648H361V522Q430 510 481.5 469.5Q533 429 558 369L462 327Q442 374 402 400.5Q362 427 310 427Q275 427 245 414Q215 401 192.5 378Q170 355 157 324.5Q144 294 144 259Q144 224 157 193Q170 162 192.5 139Q215 116 245.5 103Q276 90 312 90Q366 90 405.5 119Q445 148 464 193L561 152Q535 90 484 48Q433 6 361 -6V-130H253Z" glyph-name="cent" horiz-adv-x="588" unicode="&#162;" /><glyph d="M236 -4Q191 5 154 28.5Q117 52 90.5 85.5Q64 119 49 161Q34 203 34 250Q34 298 49 340Q64 382 91 415Q118 448 155 471Q192 494 236 504V630H345V505Q411 493 459.5 453.5Q508 414 532 356L436 315Q417 359 380.5 384.5Q344 410 294 410Q261 410 233 397.5Q205 385 184 363.5Q163 342 151 312.5Q139 283 139 250Q139 216 151 187Q163 158 184 136.5Q205 115 233.5 103Q262 91 295 91Q346 91 382.5 118.5Q419 146 436 188L533 147Q507 88 459 47.5Q411 7 345 -5V-130H236Z" glyph-name="cent.LP" horiz-adv-x="563" unicode="&#58659;" /><glyph d="M253 -4Q206 6 167 30Q128 54 99.5 88.5Q71 123 55 166.5Q39 210 39 259Q39 308 55 352Q71 396 99.5 430.5Q128 465 167.5 488.5Q207 512 253 521V648H361V522Q430 510 481.5 469.5Q533 429 558 369L462 327Q442 374 402 400.5Q362 427 310 427Q275 427 245 414Q215 401 192.5 378Q170 355 157 324.5Q144 294 144 259Q144 224 157 193Q170 162 192.5 139Q215 116 245.5 103Q276 90 312 90Q366 90 405.5 119Q445 148 464 193L561 152Q535 90 484 48Q433 6 361 -6V-130H253Z" glyph-name="cent.LT" horiz-adv-x="588" unicode="&#62564;" /><glyph d="M205 720H280L399 554H308L242 648L178 554H86Z" glyph-name="circumflex" horiz-adv-x="485" unicode="&#710;" /><glyph d="M336 0Q345 17 358.5 43Q372 69 386 101Q400 133 411 170.5Q422 208 427 248Q406 196 362 163Q318 130 260 130Q223 130 191 144Q159 158 135 182Q111 206 97 238Q83 270 83 307Q83 344 97 376Q111 408 135 432Q159 456 191 470Q223 484 260 484Q271 484 281.5 482Q292 480 302 477Q283 518 283 564Q283 600 296.5 632Q310 664 334 688Q358 712 390 726Q422 740 458 740Q494 740 526 726Q558 712 582 688Q606 664 620 632Q634 600 634 564Q634 519 615 476Q637 484 661 484Q698 484 730 470Q762 456 786 432Q810 408 823.5 376Q837 344 837 307Q837 270 823 238Q809 206 785 182Q761 158 729 144Q697 130 660 130Q602 130 559.5 163Q517 196 497 247Q502 208 514.5 170.5Q527 133 542 101Q557 69 571.5 43Q586 17 595 0Z" glyph-name="club" horiz-adv-x="920" unicode="&#9827;" /><glyph d="M49 500H156V363H49ZM49 137H156V0H49Z" glyph-name="colon" horiz-adv-x="204" unicode=":" /><glyph d="M88 500H195V363H88ZM88 137H195V0H88Z" glyph-name="colon.T" horiz-adv-x="288" unicode="&#61828;" /><glyph d="M63 87H165L99 -117H25Z" glyph-name="comma" horiz-adv-x="205" unicode="," /><glyph d="M118 87H220L154 -117H81Z" glyph-name="comma.T" horiz-adv-x="288" unicode="&#61827;" /><glyph d="M170 -249 208 -45H304L239 -249Z" glyph-name="commaaccent" horiz-adv-x="488" unicode="&#58388;" /><glyph d="M414 165Q370 165 333 180.5Q296 196 269 223Q242 250 227 286.5Q212 323 212 365Q212 407 227 443.5Q242 480 269 507Q296 534 333 550Q370 566 414 566Q474 566 520.5 536Q567 506 590 461Q570 452 554 444Q538 436 527 430Q514 423 504 417Q495 440 471.5 457.5Q448 475 413 475Q390 475 370.5 466.5Q351 458 336 443Q321 428 312.5 408Q304 388 304 365Q304 342 312.5 322Q321 302 336 287Q351 272 370.5 263.5Q390 255 413 255Q448 255 472.5 273Q497 291 506 316L594 279Q571 230 523.5 197.5Q476 165 414 165ZM409 78Q469 78 520.5 100.5Q572 123 610 162Q648 201 670 253.5Q692 306 692 365Q692 424 670 476.5Q648 529 610 568Q572 607 520.5 630Q469 653 409 653Q349 653 297 630Q245 607 207.5 568Q170 529 148.5 476.5Q127 424 127 365Q127 306 148.5 253.5Q170 201 207.5 162Q245 123 297 100.5Q349 78 409 78ZM409 -10Q331 -10 263 19.5Q195 49 144.5 100Q94 151 64.5 219Q35 287 35 365Q35 443 64.5 511Q94 579 144.5 630Q195 681 263 710.5Q331 740 409 740Q487 740 555 710.5Q623 681 673.5 630Q724 579 753.5 511Q783 443 783 365Q783 287 753.5 219Q724 151 673.5 100Q623 49 555 19.5Q487 -10 409 -10Z" glyph-name="copyright" horiz-adv-x="817" unicode="&#169;" /><glyph d="M289 113Q235 113 205.5 144Q176 175 176 223V504Q176 552 206.5 584.5Q237 617 290 617Q343 617 372.5 585Q402 553 402 504V399H315V501Q315 512 308 519.5Q301 527 289 527Q277 527 270 519.5Q263 512 263 501V222Q263 197 289 197Q315 197 315 222V341H402V222Q402 174 372 143.5Q342 113 289 113ZM288 70Q364 70 403.5 113Q443 156 443 224V499Q443 574 404 617.5Q365 661 290 661Q252 661 223 649Q194 637 174.5 615.5Q155 594 145 564Q135 534 135 499V225Q135 156 173.5 113Q212 70 288 70ZM289 -10Q230 -10 185.5 7Q141 24 110.5 55Q80 86 64.5 129Q49 172 49 225V499Q49 551 66.5 595Q84 639 115.5 671Q147 703 191 721.5Q235 740 289 740Q344 740 388.5 721.5Q433 703 464.5 670.5Q496 638 513 594Q530 550 530 500V225Q530 171 513.5 128Q497 85 466.5 54Q436 23 391 6.5Q346 -10 289 -10Z" glyph-name="copyright.LT" horiz-adv-x="578" unicode="&#62565;" /><glyph d="M186 435Q155 435 127.5 447Q100 459 80 479Q60 499 48 526.5Q36 554 36 585Q36 616 48 644Q60 672 80 692Q100 712 127.5 724Q155 736 186 736Q232 736 267.5 713Q303 690 321 653L252 619Q243 638 226 649.5Q209 661 186 661Q155 661 134 639Q113 617 113 585Q113 554 134 532.5Q155 511 186 511Q210 511 227.5 522.5Q245 534 253 554L323 521Q305 483 269.5 459Q234 435 186 435Z" glyph-name="cordinal" horiz-adv-x="356" unicode="&#57729;" /><glyph d="M186 435Q155 435 127.5 447Q100 459 80 479Q60 499 48 526.5Q36 554 36 585Q36 616 48 644Q60 672 80 692Q100 712 127.5 724Q155 736 186 736Q232 736 267.5 713Q303 690 321 653L252 619Q243 638 226 649.5Q209 661 186 661Q155 661 134 639Q113 617 113 585Q113 554 134 532.5Q155 511 186 511Q210 511 227.5 522.5Q245 534 253 554L323 521Q305 483 269.5 459Q234 435 186 435Z" glyph-name="cordinal.smcp" horiz-adv-x="356" unicode="&#58195;" /><glyph d="M391 202Q423 202 451 214.5Q479 227 500 249Q521 271 533 300Q545 329 545 362Q545 395 533 424Q521 453 500 475Q479 497 451 509.5Q423 522 391 522Q358 522 330 509.5Q302 497 281.5 475Q261 453 249.5 424Q238 395 238 362Q238 329 249.5 300Q261 271 281.5 249Q302 227 330 214.5Q358 202 391 202ZM391 102Q350 102 314 113.5Q278 125 247 145L137 31L64 103L175 217Q155 248 143.5 284.5Q132 321 132 362Q132 403 143.5 439.5Q155 476 175 507L62 627L136 698L249 580Q279 600 315 611Q351 622 391 622Q430 622 465.5 611.5Q501 601 531 581L638 691L711 619L605 510Q626 478 638 441Q650 404 650 362Q650 320 638 282Q626 244 603 212L710 102L637 31L529 141Q467 102 391 102Z" glyph-name="currency" horiz-adv-x="773" unicode="&#164;" /><glyph d="M298 88Q332 88 361 101Q390 114 411 136Q432 158 444 187.5Q456 217 456 251Q456 284 444 313.5Q432 343 411 365Q390 387 361 400Q332 413 298 413Q265 413 236 400.5Q207 388 185.5 366Q164 344 152 314.5Q140 285 140 251Q140 217 152 187Q164 157 185.5 135Q207 113 236 100.5Q265 88 298 88ZM283 -10Q235 -10 190.5 8.5Q146 27 111 60.5Q76 94 55 142Q34 190 34 250Q34 310 54.5 358Q75 406 109.5 440Q144 474 189.5 492Q235 510 284 510Q334 510 378 490Q422 470 450 435V730H556V0H450V69Q421 32 377 11Q333 -10 283 -10Z" glyph-name="d" horiz-adv-x="607" unicode="d" /><glyph d="M159 497V100H219Q265 100 303.5 115Q342 130 369 157Q396 184 411 220Q426 256 426 298Q426 341 412 377.5Q398 414 371.5 440.5Q345 467 306 482Q267 497 216 497ZM53 596H223Q294 596 351.5 573Q409 550 449.5 510Q490 470 512 415.5Q534 361 534 298Q534 234 511 179.5Q488 125 447 85Q406 45 349.5 22.5Q293 0 226 0H53Z" glyph-name="d.smcp" horiz-adv-x="572" unicode="&#57860;" /><glyph d="M49 500H220V730H329V500H502V404H329V0H220V404H49Z" glyph-name="dagger" horiz-adv-x="550" unicode="&#8224;" /><glyph d="M49 542H220V730H329V542H502V447H329V292H502V197H329V0H220V197H49V292H220V447H49Z" glyph-name="daggerdbl" horiz-adv-x="550" unicode="&#8225;" /><glyph d="M642 730H733L679 553H610ZM298 88Q332 88 361 101Q390 114 411 136Q432 158 444 187.5Q456 217 456 251Q456 284 444 313.5Q432 343 411 365Q390 387 361 400Q332 413 298 413Q265 413 236 400.5Q207 388 185.5 366Q164 344 152 314.5Q140 285 140 251Q140 217 152 187Q164 157 185.5 135Q207 113 236 100.5Q265 88 298 88ZM283 -10Q235 -10 190.5 8.5Q146 27 111 60.5Q76 94 55 142Q34 190 34 250Q34 310 54.5 358Q75 406 109.5 440Q144 474 189.5 492Q235 510 284 510Q334 510 378 490Q422 470 450 435V730H556V0H450V69Q421 32 377 11Q333 -10 283 -10Z" glyph-name="dcaron" horiz-adv-x="662" unicode="&#271;" /><glyph d="M100 816H192L256 722L322 816H413L294 650H219ZM159 497V100H219Q265 100 303.5 115Q342 130 369 157Q396 184 411 220Q426 256 426 298Q426 341 412 377.5Q398 414 371.5 440.5Q345 467 306 482Q267 497 216 497ZM53 596H223Q294 596 351.5 573Q409 550 449.5 510Q490 470 512 415.5Q534 361 534 298Q534 234 511 179.5Q488 125 447 85Q406 45 349.5 22.5Q293 0 226 0H53Z" glyph-name="dcaron.smcp" horiz-adv-x="572" unicode="&#57913;" /><glyph d="M298 88Q332 88 361 101Q390 114 411 136Q432 158 444 187.5Q456 217 456 251Q456 284 444 313.5Q432 343 411 365Q390 387 361 400Q332 413 298 413Q265 413 236 400.5Q207 388 185.5 366Q164 344 152 314.5Q140 285 140 251Q140 217 152 187Q164 157 185.5 135Q207 113 236 100.5Q265 88 298 88ZM382 640H450V730H556V640H616V562H556V0H450V69Q421 32 377 11Q333 -10 283 -10Q235 -10 190.5 8.5Q146 27 111 60.5Q76 94 55 142Q34 190 34 250Q34 310 54.5 358Q75 406 109.5 440Q144 474 189.5 492Q235 510 284 510Q334 510 378 490Q422 470 450 435V562H382Z" glyph-name="dcroat" horiz-adv-x="617" unicode="&#273;" /><glyph d="M191 254V100H251Q297 100 335 115Q373 130 400 157Q427 184 442 220Q457 256 457 298Q457 341 443.5 377.5Q430 414 403.5 440.5Q377 467 338 482Q299 497 248 497H191V345H323V254ZM24 345H84V596H255Q326 596 383.5 573Q441 550 481.5 510Q522 470 544 415.5Q566 361 566 298Q566 234 543 179.5Q520 125 479 85Q438 45 381.5 22.5Q325 0 258 0H84V254H24Z" glyph-name="dcroat.smcp" horiz-adv-x="604" unicode="&#57916;" /><glyph d="M208 523Q234 523 252.5 541.5Q271 560 271 586Q271 612 252.5 630.5Q234 649 208 649Q182 649 163.5 630.5Q145 612 145 586Q145 560 163.5 541.5Q182 523 208 523ZM208 433Q176 433 148 445Q120 457 99 478Q78 499 66 527Q54 555 54 587Q54 619 66 647Q78 675 99 695.5Q120 716 148 728Q176 740 208 740Q240 740 268 728Q296 716 316.5 695.5Q337 675 349 647Q361 619 361 587Q361 555 349 527Q337 499 316.5 478Q296 457 268 445Q240 433 208 433Z" glyph-name="degree" horiz-adv-x="415" unicode="&#176;" /><glyph d="M460 791 787 390 460 -10 133 390Z" glyph-name="diamond" horiz-adv-x="920" unicode="&#9830;" /><glyph d="M108 696H215V558H108ZM269 696H376V558H269Z" glyph-name="dieresis" horiz-adv-x="488" unicode="&#168;" /><glyph d="M184 273H275V155H184ZM184 574H275V456H184ZM44 411H414V319H44Z" glyph-name="divide" horiz-adv-x="457" unicode="&#247;" /><glyph d="M161 544Q161 508 185.5 487.5Q210 467 248 453V640Q206 631 183.5 605Q161 579 161 544ZM446 209Q446 249 419 272Q392 295 352 310V97Q397 109 421.5 139.5Q446 170 446 209ZM556 209Q556 171 542.5 136Q529 101 503 71.5Q477 42 439.5 21.5Q402 1 354 -6V-120H246V-6Q171 4 118 36Q65 68 24 116L117 194Q166 117 248 98V343Q213 354 178 369.5Q143 385 115 408Q87 431 69.5 463.5Q52 496 52 541Q52 578 65.5 611.5Q79 645 104.5 670.5Q130 696 166 713.5Q202 731 246 737V840H354V735Q417 725 460.5 698Q504 671 539 631L450 564Q433 590 408.5 609Q384 628 352 637V420Q388 408 424.5 392Q461 376 490 351.5Q519 327 537.5 292.5Q556 258 556 209Z" glyph-name="dollar" horiz-adv-x="588" unicode="$" /><glyph d="M156 544Q156 509 178 488.5Q200 468 235 454V639Q199 628 177.5 603Q156 578 156 544ZM424 209Q424 248 399.5 271Q375 294 337 309V98Q378 110 401 140.5Q424 171 424 209ZM534 209Q534 171 521 136Q508 101 483 71.5Q458 42 421.5 21.5Q385 1 339 -6V-120H233V-6Q163 5 108.5 39.5Q54 74 16 123L112 198Q134 160 165.5 135Q197 110 235 99V342Q200 353 166.5 368Q133 383 106.5 405.5Q80 428 63.5 461Q47 494 47 541Q47 578 60.5 610.5Q74 643 99 668.5Q124 694 158 711.5Q192 729 233 736V840H339V735Q399 726 441.5 699.5Q484 673 518 633L429 566Q412 592 389 610.5Q366 629 337 637V420Q373 408 408 392Q443 376 471 351.5Q499 327 516.5 292.5Q534 258 534 209Z" glyph-name="dollar.LP" horiz-adv-x="561" unicode="&#58658;" /><glyph d="M161 544Q161 508 185.5 487.5Q210 467 248 453V640Q206 631 183.5 605Q161 579 161 544ZM446 209Q446 249 419 272Q392 295 352 310V97Q397 109 421.5 139.5Q446 170 446 209ZM556 209Q556 171 542.5 136Q529 101 503 71.5Q477 42 439.5 21.5Q402 1 354 -6V-120H246V-6Q171 4 118 36Q65 68 24 116L117 194Q166 117 248 98V343Q213 354 178 369.5Q143 385 115 408Q87 431 69.5 463.5Q52 496 52 541Q52 578 65.5 611.5Q79 645 104.5 670.5Q130 696 166 713.5Q202 731 246 737V840H354V735Q417 725 460.5 698Q504 671 539 631L450 564Q433 590 408.5 609Q384 628 352 637V420Q388 408 424.5 392Q461 376 490 351.5Q519 327 537.5 292.5Q556 258 556 209Z" glyph-name="dollar.LT" horiz-adv-x="588" unicode="&#62566;" /><glyph d="M181 696H288V558H181Z" glyph-name="dotaccent" horiz-adv-x="488" unicode="&#729;" /><glyph d="M181 -48H288V-186H181Z" glyph-name="dotbelow" horiz-adv-x="488" unicode="&#58389;" /><glyph d="M51 500H159V0H51Z" glyph-name="dotlessi" horiz-adv-x="210" unicode="&#305;" /><glyph d="M-56 -129Q-22 -129 -0.5 -125.5Q21 -122 32 -111Q43 -100 47 -79.5Q51 -59 51 -25V500H160V-26Q160 -85 150 -124Q140 -163 116.5 -186.5Q93 -210 55 -220Q17 -230 -40 -230H-56Z" glyph-name="dotlessj" horiz-adv-x="211" unicode="&#567;" /><glyph d="M234 730H342V-230H234ZM49 730H157V-230H49Z" glyph-name="doublebar" horiz-adv-x="391" unicode="&#8214;" /><glyph d="M234 840H342V-120H234ZM49 840H157V-120H49Z" glyph-name="doublebar.cap" horiz-adv-x="391" unicode="&#58468;" /><glyph d="M231 686H338V-98H231ZM49 686H155V-98H49Z" glyph-name="doublebar.smcp" horiz-adv-x="386" unicode="&#58474;" /><glyph d="M209 720H319L430 554H352ZM57 720H167L278 554H200Z" glyph-name="doublegrave" horiz-adv-x="485" unicode="&#58386;" /><glyph d="M294 416Q238 416 197.5 385Q157 354 142 304H442Q430 358 391 387Q352 416 294 416ZM298 -10Q239 -10 190 10Q141 30 106.5 64.5Q72 99 53 146.5Q34 194 34 248Q34 303 54 351Q74 399 109 434Q144 469 191.5 489.5Q239 510 294 510Q349 510 396.5 491Q444 472 478 438Q512 404 531.5 357Q551 310 551 255V213H137Q148 155 190 120Q232 85 298 85Q349 85 386.5 109.5Q424 134 444 175L532 126Q499 64 440.5 27Q382 -10 298 -10Z" glyph-name="e" horiz-adv-x="586" unicode="e" /><glyph d="M53 596H409V496H159V349H409V249H159V101H409V0H53Z" glyph-name="e.smcp" horiz-adv-x="453" unicode="&#57861;" /><glyph d="M357 720H471L323 554H241ZM294 416Q238 416 197.5 385Q157 354 142 304H442Q430 358 391 387Q352 416 294 416ZM298 -10Q239 -10 190 10Q141 30 106.5 64.5Q72 99 53 146.5Q34 194 34 248Q34 303 54 351Q74 399 109 434Q144 469 191.5 489.5Q239 510 294 510Q349 510 396.5 491Q444 472 478 438Q512 404 531.5 357Q551 310 551 255V213H137Q148 155 190 120Q232 85 298 85Q349 85 386.5 109.5Q424 134 444 175L532 126Q499 64 440.5 27Q382 -10 298 -10Z" glyph-name="eacute" horiz-adv-x="586" unicode="&#233;" /><glyph d="M293 816H407L259 650H177ZM53 596H409V496H159V349H409V249H159V101H409V0H53Z" glyph-name="eacute.smcp" horiz-adv-x="452" unicode="&#57917;" /><glyph d="M294 416Q238 416 197.5 385Q157 354 142 304H442Q430 358 391 387Q352 416 294 416ZM295 549Q254 549 223.5 562Q193 575 173 597.5Q153 620 143.5 650Q134 680 134 715H210Q210 667 231.5 641.5Q253 616 295 615Q336 616 358 641.5Q380 667 380 715H457Q457 680 445.5 650Q434 620 413 597.5Q392 575 362 562Q332 549 295 549ZM298 -10Q239 -10 190 10Q141 30 106.5 64.5Q72 99 53 146.5Q34 194 34 248Q34 303 54 351Q74 399 109 434Q144 469 191.5 489.5Q239 510 294 510Q349 510 396.5 491Q444 472 478 438Q512 404 531.5 357Q551 310 551 255V213H137Q148 155 190 120Q232 85 298 85Q349 85 386.5 109.5Q424 134 444 175L532 126Q499 64 440.5 27Q382 -10 298 -10Z" glyph-name="ebreve" horiz-adv-x="586" unicode="&#277;" /><glyph d="M237 643Q196 643 165.5 656Q135 669 115 691.5Q95 714 85.5 744Q76 774 76 809H152Q152 761 173.5 735.5Q195 710 237 709Q278 710 300 735.5Q322 761 322 809H399Q399 774 387.5 744Q376 714 355 691.5Q334 669 304 656Q274 643 237 643ZM53 596H409V496H159V349H409V249H159V101H409V0H53Z" glyph-name="ebreve.smcp" horiz-adv-x="452" unicode="&#57923;" /><glyph d="M294 416Q238 416 197.5 385Q157 354 142 304H442Q430 358 391 387Q352 416 294 416ZM140 720H232L296 626L362 720H453L334 554H259ZM298 -10Q239 -10 190 10Q141 30 106.5 64.5Q72 99 53 146.5Q34 194 34 248Q34 303 54 351Q74 399 109 434Q144 469 191.5 489.5Q239 510 294 510Q349 510 396.5 491Q444 472 478 438Q512 404 531.5 357Q551 310 551 255V213H137Q148 155 190 120Q232 85 298 85Q349 85 386.5 109.5Q424 134 444 175L532 126Q499 64 440.5 27Q382 -10 298 -10Z" glyph-name="ecaron" horiz-adv-x="586" unicode="&#283;" /><glyph d="M78 816H170L234 722L300 816H391L272 650H197ZM53 596H409V496H159V349H409V249H159V101H409V0H53Z" glyph-name="ecaron.smcp" horiz-adv-x="452" unicode="&#57921;" /><glyph d="M294 416Q238 416 197.5 385Q157 354 142 304H442Q430 358 391 387Q352 416 294 416ZM254 720H329L448 554H357L291 648L227 554H135ZM298 -10Q239 -10 190 10Q141 30 106.5 64.5Q72 99 53 146.5Q34 194 34 248Q34 303 54 351Q74 399 109 434Q144 469 191.5 489.5Q239 510 294 510Q349 510 396.5 491Q444 472 478 438Q512 404 531.5 357Q551 310 551 255V213H137Q148 155 190 120Q232 85 298 85Q349 85 386.5 109.5Q424 134 444 175L532 126Q499 64 440.5 27Q382 -10 298 -10Z" glyph-name="ecircumflex" horiz-adv-x="586" unicode="&#234;" /><glyph d="M196 816H271L390 650H299L233 744L169 650H77ZM53 596H409V496H159V349H409V249H159V101H409V0H53Z" glyph-name="ecircumflex.smcp" horiz-adv-x="452" unicode="&#57919;" /><glyph d="M322 696H429V558H322ZM161 696H268V558H161ZM294 416Q238 416 197.5 385Q157 354 142 304H442Q430 358 391 387Q352 416 294 416ZM298 -10Q239 -10 190 10Q141 30 106.5 64.5Q72 99 53 146.5Q34 194 34 248Q34 303 54 351Q74 399 109 434Q144 469 191.5 489.5Q239 510 294 510Q349 510 396.5 491Q444 472 478 438Q512 404 531.5 357Q551 310 551 255V213H137Q148 155 190 120Q232 85 298 85Q349 85 386.5 109.5Q424 134 444 175L532 126Q499 64 440.5 27Q382 -10 298 -10Z" glyph-name="edieresis" horiz-adv-x="586" unicode="&#235;" /><glyph d="M262 792H369V654H262ZM101 792H208V654H101ZM53 596H409V496H159V349H409V249H159V101H409V0H53Z" glyph-name="edieresis.smcp" horiz-adv-x="452" unicode="&#57904;" /><glyph d="M244 696H351V558H244ZM294 416Q238 416 197.5 385Q157 354 142 304H442Q430 358 391 387Q352 416 294 416ZM298 -10Q239 -10 190 10Q141 30 106.5 64.5Q72 99 53 146.5Q34 194 34 248Q34 303 54 351Q74 399 109 434Q144 469 191.5 489.5Q239 510 294 510Q349 510 396.5 491Q444 472 478 438Q512 404 531.5 357Q551 310 551 255V213H137Q148 155 190 120Q232 85 298 85Q349 85 386.5 109.5Q424 134 444 175L532 126Q499 64 440.5 27Q382 -10 298 -10Z" glyph-name="edotaccent" horiz-adv-x="586" unicode="&#279;" /><glyph d="M183 792H290V654H183ZM53 596H409V496H159V349H409V249H159V101H409V0H53Z" glyph-name="edotaccent.smcp" horiz-adv-x="452" unicode="&#57926;" /><glyph d="M114 720H228L344 554H262ZM294 416Q238 416 197.5 385Q157 354 142 304H442Q430 358 391 387Q352 416 294 416ZM298 -10Q239 -10 190 10Q141 30 106.5 64.5Q72 99 53 146.5Q34 194 34 248Q34 303 54 351Q74 399 109 434Q144 469 191.5 489.5Q239 510 294 510Q349 510 396.5 491Q444 472 478 438Q512 404 531.5 357Q551 310 551 255V213H137Q148 155 190 120Q232 85 298 85Q349 85 386.5 109.5Q424 134 444 175L532 126Q499 64 440.5 27Q382 -10 298 -10Z" glyph-name="egrave" horiz-adv-x="586" unicode="&#232;" /><glyph d="M62 816H176L292 650H210ZM53 596H409V496H159V349H409V249H159V101H409V0H53Z" glyph-name="egrave.smcp" horiz-adv-x="452" unicode="&#57918;" /><glyph d="M295 431Q362 431 395 462Q428 493 428 539Q428 584 394.5 615.5Q361 647 297 647Q265 647 240.5 638.5Q216 630 199 615Q182 600 173 580.5Q164 561 164 539Q164 493 196 462Q228 431 295 431ZM294 87Q330 87 358 97Q386 107 405 124Q424 141 434 164Q444 187 444 213Q444 238 434.5 261Q425 284 406 301Q387 318 359.5 328Q332 338 295 338Q258 338 230 328Q202 318 183 300.5Q164 283 154.5 260.5Q145 238 145 213Q145 187 154.5 164Q164 141 182.5 124Q201 107 229 97Q257 87 294 87ZM294 -10Q232 -10 185 6Q138 22 106 51.5Q74 81 57.5 122Q41 163 41 213Q41 270 67.5 314.5Q94 359 142 388Q105 414 84.5 452Q64 490 64 539Q64 584 80.5 621Q97 658 127.5 684.5Q158 711 200.5 725.5Q243 740 296 740Q348 740 390.5 725.5Q433 711 463.5 684.5Q494 658 511 621Q528 584 528 539Q528 489 506 451.5Q484 414 446 388Q494 359 521 314.5Q548 270 548 213Q548 163 531 122Q514 81 481 51.5Q448 22 401 6Q354 -10 294 -10Z" glyph-name="eight" horiz-adv-x="588" unicode="8" /><glyph d="M272 431Q297 431 318 439.5Q339 448 354 462.5Q369 477 377.5 496.5Q386 516 386 539Q386 561 378 581Q370 601 355 615.5Q340 630 319.5 638.5Q299 647 274 647Q249 647 228.5 638.5Q208 630 193 615.5Q178 601 169.5 581Q161 561 161 539Q161 493 191.5 462Q222 431 272 431ZM271 88Q299 88 323.5 98Q348 108 365 125Q382 142 392 164.5Q402 187 402 213Q402 238 392.5 261Q383 284 366 301Q349 318 325.5 328Q302 338 273 338Q244 338 220 328Q196 318 178.5 301Q161 284 151.5 261Q142 238 142 213Q142 187 151.5 164.5Q161 142 178 125Q195 108 218.5 98Q242 88 271 88ZM272 -10Q219 -10 175.5 6.5Q132 23 101 52.5Q70 82 53.5 123Q37 164 37 213Q37 270 63.5 315Q90 360 133 388Q100 414 80 452.5Q60 491 60 539Q60 584 76 621Q92 658 120.5 684.5Q149 711 188 725.5Q227 740 274 740Q319 740 358 725.5Q397 711 425.5 684.5Q454 658 470.5 621Q487 584 487 539Q487 491 466.5 452.5Q446 414 412 388Q454 360 480.5 315Q507 270 507 213Q507 164 490 123Q473 82 442.5 52.5Q412 23 368.5 6.5Q325 -10 272 -10Z" glyph-name="eight.LP" horiz-adv-x="543" unicode="&#58685;" /><glyph d="M295 431Q362 431 395 462Q428 493 428 539Q428 584 394.5 615.5Q361 647 297 647Q265 647 240.5 638.5Q216 630 199 615Q182 600 173 580.5Q164 561 164 539Q164 493 196 462Q228 431 295 431ZM294 87Q330 87 358 97Q386 107 405 124Q424 141 434 164Q444 187 444 213Q444 238 434.5 261Q425 284 406 301Q387 318 359.5 328Q332 338 295 338Q258 338 230 328Q202 318 183 300.5Q164 283 154.5 260.5Q145 238 145 213Q145 187 154.5 164Q164 141 182.5 124Q201 107 229 97Q257 87 294 87ZM294 -10Q232 -10 185 6Q138 22 106 51.5Q74 81 57.5 122Q41 163 41 213Q41 270 67.5 314.5Q94 359 142 388Q105 414 84.5 452Q64 490 64 539Q64 584 80.5 621Q97 658 127.5 684.5Q158 711 200.5 725.5Q243 740 296 740Q348 740 390.5 725.5Q433 711 463.5 684.5Q494 658 511 621Q528 584 528 539Q528 489 506 451.5Q484 414 446 388Q494 359 521 314.5Q548 270 548 213Q548 163 531 122Q514 81 481 51.5Q448 22 401 6Q354 -10 294 -10Z" glyph-name="eight.LT" horiz-adv-x="588" unicode="&#58696;" /><glyph d="M166 261Q186 261 198 273Q210 285 210 305Q210 323 198.5 336Q187 349 166 349Q146 349 134.5 336Q123 323 123 305Q123 285 134.5 273Q146 261 166 261ZM166 75Q191 75 205.5 90.5Q220 106 220 129Q220 152 205.5 167.5Q191 183 166 183Q141 183 126.5 167Q112 151 112 129Q112 106 126.5 90.5Q141 75 166 75ZM166 -6Q134 -6 108 4Q82 14 63.5 32Q45 50 34.5 74.5Q24 99 24 129Q24 158 36.5 182.5Q49 207 70 224Q37 255 37 305Q37 360 72.5 394Q108 428 166 428Q223 428 260 394Q297 360 297 305Q297 280 288 260Q279 240 264 225Q284 208 296 184Q308 160 308 129Q308 99 298 74.5Q288 50 269 32Q250 14 224 4Q198 -6 166 -6Z" glyph-name="eight.inf" horiz-adv-x="333" unicode="&#58745;" /><glyph d="M1209 79Q1237 79 1257 98.5Q1277 118 1277 147Q1277 175 1257 194Q1237 213 1209 213Q1181 213 1162 194Q1143 175 1143 146Q1143 118 1162 98.5Q1181 79 1209 79ZM784 87H866V290Q856 276 838 268.5Q820 261 800 261H794V352H797Q818 352 832 358.5Q846 365 854 375.5Q862 386 865.5 398.5Q869 411 869 422H959V87H1038V0H784ZM296 395H378V598Q368 584 350 576.5Q332 569 312 569H306V660H309Q330 660 344 666.5Q358 673 366 683.5Q374 694 377.5 706.5Q381 719 381 730H471V395H550V308H296ZM23 395H105V598Q95 584 77 576.5Q59 569 39 569H33V660H36Q57 660 71 666.5Q85 673 93 683.5Q101 694 104.5 706.5Q108 719 108 730H198V395H277V308H23ZM1210 -6Q1175 -6 1146 5.5Q1117 17 1096 37.5Q1075 58 1063.5 85.5Q1052 113 1052 145Q1052 176 1062.5 206Q1073 236 1089 260L1192 422H1298L1215 293Q1219 294 1226 294Q1256 294 1281.5 283Q1307 272 1326.5 252.5Q1346 233 1357 205.5Q1368 178 1368 145Q1368 112 1356 84.5Q1344 57 1323 37Q1302 17 1273 5.5Q1244 -6 1210 -6ZM897 730H1023L496 0H370Z" glyph-name="elevensixteenths" horiz-adv-x="1386" unicode="&#61984;" /><glyph d="M383 137H491V0H383ZM216 137H324V0H216ZM49 137H156V0H49Z" glyph-name="ellipsis" horiz-adv-x="539" unicode="&#8230;" /><glyph d="M163 631H427V554H163ZM294 416Q238 416 197.5 385Q157 354 142 304H442Q430 358 391 387Q352 416 294 416ZM298 -10Q239 -10 190 10Q141 30 106.5 64.5Q72 99 53 146.5Q34 194 34 248Q34 303 54 351Q74 399 109 434Q144 469 191.5 489.5Q239 510 294 510Q349 510 396.5 491Q444 472 478 438Q512 404 531.5 357Q551 310 551 255V213H137Q148 155 190 120Q232 85 298 85Q349 85 386.5 109.5Q424 134 444 175L532 126Q499 64 440.5 27Q382 -10 298 -10Z" glyph-name="emacron" horiz-adv-x="586" unicode="&#275;" /><glyph d="M101 727H365V650H101ZM53 596H409V496H159V349H409V249H159V101H409V0H53Z" glyph-name="emacron.smcp" horiz-adv-x="452" unicode="&#57922;" /><glyph d="M44 299H654V206H44Z" glyph-name="emdash" horiz-adv-x="697" unicode="&#8212;" /><glyph d="M44 354H654V261H44Z" glyph-name="emdash.cap" horiz-adv-x="697" unicode="&#58502;" /><glyph d="M44 299H454V206H44Z" glyph-name="endash" horiz-adv-x="497" unicode="&#8211;" /><glyph d="M44 354H454V261H44Z" glyph-name="endash.cap" horiz-adv-x="497" unicode="&#58500;" /><glyph d="M298 -129Q332 -129 353.5 -125.5Q375 -122 386.5 -111Q398 -100 402 -79.5Q406 -59 406 -25V283Q406 345 375.5 381Q345 417 285 417Q231 417 194.5 379Q158 341 158 275V0H51V500H157V435Q183 470 222 490Q261 510 311 510Q406 510 460 452.5Q514 395 514 292V-26Q514 -85 504 -124Q494 -163 470.5 -186.5Q447 -210 409 -220Q371 -230 314 -230H298Z" glyph-name="eng" horiz-adv-x="564" unicode="&#331;" /><glyph d="M335 -129Q369 -129 390.5 -125.5Q412 -122 423.5 -111Q435 -100 439 -79.5Q443 -59 443 -25V1L159 426V0H53V596H170L444 185V596H550V-26Q550 -85 540 -124Q530 -163 507 -186.5Q484 -210 446 -220Q408 -230 351 -230H335Z" glyph-name="eng.smcp" horiz-adv-x="603" unicode="&#58155;" /><glyph d="M294 416Q238 416 197.5 385Q157 354 142 304H442Q430 358 391 387Q352 416 294 416ZM310 -217Q247 -217 209 -187Q171 -157 171 -112Q171 -84 185.5 -58Q200 -32 238 -4Q191 5 153.5 28Q116 51 89.5 84Q63 117 48.5 159Q34 201 34 248Q34 303 54 351Q74 399 109 434Q144 469 191.5 489.5Q239 510 294 510Q349 510 396.5 491Q444 472 478 438Q512 404 531.5 357Q551 310 551 255V213H137Q148 155 190 120Q232 85 298 85Q349 85 386.5 109.5Q424 134 444 175L532 126Q508 81 471.5 49.5Q435 18 385 2Q346 -22 322 -38.5Q298 -55 284.5 -67Q271 -79 266 -88.5Q261 -98 261 -108Q261 -126 275.5 -134.5Q290 -143 310 -143Q333 -143 348 -133.5Q363 -124 377 -112L448 -160Q422 -183 384.5 -200Q347 -217 310 -217Z" glyph-name="eogonek" horiz-adv-x="586" unicode="&#281;" /><glyph d="M53 596H409V496H159V349H409V249H159V101H409V0H406L408 -1Q369 -26 344 -42.5Q319 -59 305 -71Q291 -83 286 -93Q281 -103 281 -113Q281 -131 295.5 -139.5Q310 -148 330 -148Q353 -148 368 -138.5Q383 -129 397 -117L468 -165Q442 -188 404.5 -205Q367 -222 330 -222Q267 -222 229 -192Q191 -162 191 -117Q191 -87 208 -58.5Q225 -30 270 0H53Z" glyph-name="eogonek.smcp" horiz-adv-x="452" unicode="&#57929;" /><glyph d="M44 327H414V235H44ZM44 492H414V400H44Z" glyph-name="equal" horiz-adv-x="457" unicode="=" /><glyph d="M24 197H237V123H24ZM24 296H237V223H24Z" glyph-name="equal.inf" horiz-adv-x="260" unicode="&#58749;" /><glyph d="M44 574H414V482H44ZM44 244H414V153H44ZM44 409H414V317H44Z" glyph-name="equivalence" horiz-adv-x="457" unicode="&#8801;" /><glyph d="M291 93Q321 93 348.5 105Q376 117 396 137.5Q416 158 428 185.5Q440 213 440 244Q440 275 428.5 302.5Q417 330 397 351Q377 372 350 384Q323 396 292 396Q262 396 234.5 384.5Q207 373 186.5 352.5Q166 332 154 304.5Q142 277 142 244Q142 212 154 184.5Q166 157 186.5 136.5Q207 116 234 104.5Q261 93 291 93ZM241 618Q180 670 93 730H248Q265 716 280.5 703Q296 690 311 677L375 730H476L359 632Q458 534 501.5 438.5Q545 343 545 248Q545 194 525.5 147.5Q506 101 471.5 66.5Q437 32 390.5 12Q344 -8 290 -8Q238 -8 192 11Q146 30 111.5 64Q77 98 56.5 144Q36 190 36 244Q36 298 55 343Q74 388 107 421Q140 454 184 472.5Q228 491 278 491Q315 491 342 482.5Q369 474 389 460Q371 488 346.5 516.5Q322 545 290 575L231 525H129Z" glyph-name="eth" horiz-adv-x="583" unicode="&#240;" /><glyph d="M191 254V100H251Q297 100 335 115Q373 130 400 157Q427 184 442 220Q457 256 457 298Q457 341 443.5 377.5Q430 414 403.5 440.5Q377 467 338 482Q299 497 248 497H191V345H323V254ZM24 345H84V596H255Q326 596 383.5 573Q441 550 481.5 510Q522 470 544 415.5Q566 361 566 298Q566 234 543 179.5Q520 125 479 85Q438 45 381.5 22.5Q325 0 258 0H84V254H24Z" glyph-name="eth.smcp" horiz-adv-x="604" unicode="&#58156;" /><glyph d="M59 137H166V0H59ZM83 193Q78 233 73.5 285Q69 337 66 393Q63 449 61 506Q59 563 59 613V730H166V613Q166 563 164 506Q162 449 159 393Q156 337 151.5 285Q147 233 142 193Z" glyph-name="exclam" horiz-adv-x="224" unicode="!" /><glyph d="M59 500H166V363H59ZM59 -113Q59 -63 61 -6Q63 51 66 107Q69 163 73.5 215Q78 267 83 308H142Q147 267 151.5 215Q156 163 159 107Q162 51 164 -6Q166 -63 166 -113V-230H59Z" glyph-name="exclamdown" horiz-adv-x="224" unicode="&#161;" /><glyph d="M59 730H166V593H59ZM59 117Q59 167 61 224Q63 281 66 337Q69 393 73.5 445Q78 497 83 538H142Q147 497 151.5 445Q156 393 159 337Q162 281 164 224Q166 167 166 117V0H59Z" glyph-name="exclamdown.cap" horiz-adv-x="224" unicode="&#58433;" /><glyph d="M29 500H114V526Q114 584 124 623.5Q134 663 157.5 686.5Q181 710 220.5 720Q260 730 319 730H328V631Q292 631 271 627Q250 623 239 611.5Q228 600 225 579.5Q222 559 222 525V500H328V404H222V0H114V404H29Z" glyph-name="f" horiz-adv-x="359" unicode="f" /><glyph d="M53 596H391V496H159V349H391V249H159V0H53Z" glyph-name="f.smcp" horiz-adv-x="431" unicode="&#57862;" /><glyph d="M388 709H495V569H388ZM388 500H495V0H388ZM31 500H116V526Q116 584 126 623.5Q136 663 159.5 686.5Q183 710 222.5 720Q262 730 321 730H330V631Q294 631 273 627Q252 623 241 611.5Q230 600 227 579.5Q224 559 224 525V500H330V404H224V0H116V404H31Z" glyph-name="fi" horiz-adv-x="544" unicode="&#64257;" /><glyph d="M1209 79Q1236 79 1256 98.5Q1276 118 1276 147Q1276 175 1256 194Q1236 213 1209 213Q1181 213 1162 194Q1143 175 1143 146Q1143 118 1162 98.5Q1181 79 1209 79ZM783 87H866V290Q856 276 838 268.5Q820 261 800 261H793V352H796Q817 352 831 358.5Q845 365 853.5 375.5Q862 386 865.5 398.5Q869 411 869 422H958V87H1037V0H783ZM23 395H105V598Q95 584 77 576.5Q59 569 39 569H33V660H36Q57 660 71 666.5Q85 673 93 683.5Q101 694 104.5 706.5Q108 719 108 730H198V395H277V308H23ZM438 302Q385 302 347.5 324.5Q310 347 291 381L378 429Q386 412 401 400.5Q416 389 439 389Q463 389 479 404.5Q495 420 495 446Q495 472 479 488Q463 504 437 504Q417 504 402 493.5Q387 483 379 467L295 500L327 730H564V645H399L389 573Q401 579 415.5 583Q430 587 449 587Q478 587 503.5 578Q529 569 547.5 551Q566 533 577 506.5Q588 480 588 446Q588 414 576.5 387.5Q565 361 545 342Q525 323 497.5 312.5Q470 302 438 302ZM897 730H1022L495 0H370ZM1209 -6Q1174 -6 1145 5.5Q1116 17 1095 37.5Q1074 58 1062.5 85.5Q1051 113 1051 145Q1051 176 1061.5 206Q1072 236 1088 260L1191 422H1298L1215 293Q1218 294 1226 294Q1255 294 1281 283Q1307 272 1326 252.5Q1345 233 1356 205.5Q1367 178 1367 145Q1367 112 1355.5 84.5Q1344 57 1323 37Q1302 17 1272.5 5.5Q1243 -6 1209 -6Z" glyph-name="fifteensixteenths" horiz-adv-x="1385" unicode="&#61986;" /><glyph d="M44 299H604V206H44Z" glyph-name="figuredash" horiz-adv-x="647" unicode="&#8210;" /><glyph d="M44 354H604V261H44Z" glyph-name="figuredash.cap" horiz-adv-x="647" unicode="&#58503;" /><glyph d="M295 -10Q201 -10 136.5 28.5Q72 67 40 127L144 189Q164 146 201.5 118.5Q239 91 296 91Q326 91 352 102Q378 113 397.5 132.5Q417 152 428.5 179.5Q440 207 440 240Q440 274 428.5 302.5Q417 331 397 350.5Q377 370 350 381Q323 392 292 392Q242 392 208 371.5Q174 351 151 318L50 363L104 730H509V628H192L164 449Q189 467 223 479Q257 491 302 491Q351 491 395.5 475.5Q440 460 474.5 429Q509 398 529.5 350.5Q550 303 550 239Q550 185 531 139Q512 93 478.5 60Q445 27 398 8.5Q351 -10 295 -10Z" glyph-name="five" horiz-adv-x="588" unicode="5" /><glyph d="M286 -10Q241 -10 202 0.5Q163 11 131.5 29.5Q100 48 76.5 73Q53 98 38 126L139 187Q159 147 194.5 119Q230 91 286 91Q315 91 340.5 101Q366 111 385 130Q404 149 415 174.5Q426 200 426 232Q426 265 415 292Q404 319 384.5 337.5Q365 356 339.5 366.5Q314 377 285 377Q232 377 197.5 353Q163 329 142 289L43 334L99 730H495V628H187L159 431Q184 450 217.5 463Q251 476 293 476Q341 476 385 460.5Q429 445 462.5 414.5Q496 384 516 338.5Q536 293 536 232Q536 178 517 133.5Q498 89 465 57Q432 25 386 7.5Q340 -10 286 -10Z" glyph-name="five.LP" horiz-adv-x="569" unicode="&#58682;" /><glyph d="M295 -10Q201 -10 136.5 28.5Q72 67 40 127L144 189Q164 146 201.5 118.5Q239 91 296 91Q326 91 352 102Q378 113 397.5 132.5Q417 152 428.5 179.5Q440 207 440 240Q440 274 428.5 302.5Q417 331 397 350.5Q377 370 350 381Q323 392 292 392Q242 392 208 371.5Q174 351 151 318L50 363L104 730H509V628H192L164 449Q189 467 223 479Q257 491 302 491Q351 491 395.5 475.5Q440 460 474.5 429Q509 398 529.5 350.5Q550 303 550 239Q550 185 531 139Q512 93 478.5 60Q445 27 398 8.5Q351 -10 295 -10Z" glyph-name="five.LT" horiz-adv-x="588" unicode="&#58693;" /><glyph d="M164 -6Q111 -6 73 16.5Q35 39 16 73L103 121Q111 104 126 92.5Q141 81 164 81Q188 81 204.5 96.5Q221 112 221 138Q221 164 204.5 180Q188 196 163 196Q142 196 127 185.5Q112 175 104 159L21 192L52 422H289V337H124L114 265Q126 271 140.5 275Q155 279 174 279Q204 279 229 270Q254 261 273 243Q292 225 302.5 198.5Q313 172 313 138Q313 106 302 79.5Q291 53 271 34Q251 15 223.5 4.5Q196 -6 164 -6Z" glyph-name="five.inf" horiz-adv-x="331" unicode="&#58742;" /><glyph d="M933 79Q961 79 981 98.5Q1001 118 1001 147Q1001 175 981 194Q961 213 933 213Q905 213 886 194Q867 175 867 146Q867 118 886 98.5Q905 79 933 79ZM508 87H590V290Q580 276 562 268.5Q544 261 524 261H518V352H521Q542 352 556 358.5Q570 365 578 375.5Q586 386 589.5 398.5Q593 411 593 422H683V87H762V0H508ZM164 302Q111 302 73 324.5Q35 347 16 381L103 429Q111 412 126 400.5Q141 389 164 389Q188 389 204.5 404.5Q221 420 221 446Q221 472 204.5 488Q188 504 163 504Q142 504 127 493.5Q112 483 104 467L21 500L52 730H289V645H124L114 573Q126 579 140.5 583Q155 587 174 587Q204 587 229 578Q254 569 273 551Q292 533 302.5 506.5Q313 480 313 446Q313 414 302 387.5Q291 361 271 342Q251 323 223.5 312.5Q196 302 164 302ZM934 -6Q899 -6 870 5.5Q841 17 820 37.5Q799 58 787.5 85.5Q776 113 776 145Q776 176 786.5 206Q797 236 813 260L916 422H1022L939 293Q943 294 950 294Q980 294 1005.5 283Q1031 272 1050.5 252.5Q1070 233 1081 205.5Q1092 178 1092 145Q1092 112 1080 84.5Q1068 57 1047 37Q1026 17 997 5.5Q968 -6 934 -6ZM622 730H747L220 0H95Z" glyph-name="fivesixteenths" horiz-adv-x="1110" unicode="&#61975;" /><glyph d="M388 730H495V0H388ZM31 500H116V526Q116 584 126 623.5Q136 663 159.5 686.5Q183 710 222.5 720Q262 730 321 730H330V631Q294 631 273 627Q252 623 241 611.5Q230 600 227 579.5Q224 559 224 525V500H330V404H224V0H116V404H31Z" glyph-name="fl" horiz-adv-x="544" unicode="&#64258;" /><glyph d="M79 418H255L288 525Q305 584 328 623.5Q351 663 380.5 686.5Q410 710 446.5 720Q483 730 528 730H537V631Q507 631 485 626Q463 621 446.5 608.5Q430 596 418.5 575Q407 554 397 521L365 418H519V322H336L301 206Q284 148 263.5 108.5Q243 69 215.5 45Q188 21 152 10.5Q116 0 67 0H52V100Q83 100 105 105Q127 110 143 122.5Q159 135 170.5 156.5Q182 178 192 210L226 322H79Z" glyph-name="florin" horiz-adv-x="588" unicode="&#402;" /><glyph d="M65 418H228L256 525Q272 586 294.5 626Q317 666 345.5 689Q374 712 407.5 721Q441 730 480 730H489V631Q468 631 449.5 627Q431 623 415 612Q399 601 386.5 579.5Q374 558 365 524L337 418H479V322H313L283 205Q268 145 248 105.5Q228 66 201 42.5Q174 19 138.5 9.5Q103 0 56 0H47V100Q72 100 92 103.5Q112 107 127 118Q142 129 153 150.5Q164 172 173 207L203 322H65Z" glyph-name="florin.LP" horiz-adv-x="537" unicode="&#58661;" /><glyph d="M79 418H255L288 525Q305 584 328 623.5Q351 663 380.5 686.5Q410 710 446.5 720Q483 730 528 730H537V631Q507 631 485 626Q463 621 446.5 608.5Q430 596 418.5 575Q407 554 397 521L365 418H519V322H336L301 206Q284 148 263.5 108.5Q243 69 215.5 45Q188 21 152 10.5Q116 0 67 0H52V100Q83 100 105 105Q127 110 143 122.5Q159 135 170.5 156.5Q182 178 192 210L226 322H79Z" glyph-name="florin.LT" horiz-adv-x="588" unicode="&#62568;" /><glyph d="M350 257V563L156 257ZM350 158H41V258L341 730H456V257H547V158H456V0H350Z" glyph-name="four" horiz-adv-x="588" unicode="4" /><glyph d="M366 267V565L157 267ZM366 168H39V268L362 730H473V267H580V168H473V0H366Z" glyph-name="four.LP" horiz-adv-x="618" unicode="&#58681;" /><glyph d="M350 257V563L156 257ZM350 158H41V258L341 730H456V257H547V158H456V0H350Z" glyph-name="four.LT" horiz-adv-x="588" unicode="&#58692;" /><glyph d="M199 171V284L120 171ZM199 90H23V173L197 422H287V171H348V90H287V0H199Z" glyph-name="four.inf" horiz-adv-x="371" unicode="&#58741;" /><glyph d="M546 730H671L144 0H19Z" glyph-name="fraction" horiz-adv-x="688" unicode="&#8260;" /><glyph d="M49 730H462V627H157V493H462V398H157V321H462V226H157V0H49Z" glyph-name="franc" horiz-adv-x="509" unicode="&#8355;" /><glyph d="M298 88Q332 88 361 101Q390 114 411 136Q432 158 444 187.5Q456 217 456 251Q456 284 444 313.5Q432 343 411 365Q390 387 361 400Q332 413 298 413Q265 413 236 400.5Q207 388 185.5 366Q164 344 152 314.5Q140 285 140 251Q140 217 152 187Q164 157 185.5 135Q207 113 236 100.5Q265 88 298 88ZM283 -10Q235 -10 190.5 8.5Q146 27 111 60.5Q76 94 55 142Q34 190 34 250Q34 310 54.5 358Q75 406 109.5 440Q144 474 189.5 492Q235 510 284 510Q334 510 377.5 489Q421 468 450 432V500H557V12Q557 -43 540 -90Q523 -137 491 -171Q459 -205 412 -224Q365 -243 305 -243Q211 -243 148.5 -203Q86 -163 57 -102L156 -55Q175 -97 211.5 -121Q248 -145 305 -145Q339 -145 366 -133Q393 -121 412 -100.5Q431 -80 441 -52Q451 -24 451 8V71Q422 33 377.5 11.5Q333 -10 283 -10Z" glyph-name="g" horiz-adv-x="609" unicode="g" /><glyph d="M217 -54Q174 -53 153 -68.5Q132 -84 132 -107Q132 -118 136.5 -128.5Q141 -139 154 -146.5Q167 -154 190 -158.5Q213 -163 251 -163H299Q335 -163 360 -157.5Q385 -152 400 -143.5Q415 -135 421.5 -124Q428 -113 428 -102Q428 -79 407 -66.5Q386 -54 336 -54ZM249 200Q271 200 291 208.5Q311 217 325 231.5Q339 246 347.5 265.5Q356 285 356 308Q356 330 347.5 349.5Q339 369 325 384Q311 399 291 407.5Q271 416 249 416Q228 416 209 407.5Q190 399 175.5 384Q161 369 153 349.5Q145 330 145 308Q145 286 153 266.5Q161 247 175.5 232Q190 217 209 208.5Q228 200 249 200ZM273 -258Q207 -258 162.5 -247.5Q118 -237 90 -218.5Q62 -200 50 -176Q38 -152 38 -125Q38 -93 52.5 -71.5Q67 -50 90 -36Q61 -22 47 3Q33 28 33 61Q33 99 56 124Q79 149 115 160Q83 186 65.5 223.5Q48 261 48 308Q48 350 64 387Q80 424 107 451.5Q134 479 171 495Q208 511 250 511Q307 511 350.5 485Q394 459 418 415Q426 458 449 477Q472 496 516 496H528V378H514Q499 378 487.5 376.5Q476 375 468.5 368Q461 361 457 347Q453 333 453 308Q453 266 438.5 228.5Q424 191 397.5 163.5Q371 136 335.5 120Q300 104 258 104H184Q151 104 136.5 94Q122 84 122 70Q122 56 135 46.5Q148 37 180 37H341Q429 37 476.5 1.5Q524 -34 524 -98Q524 -168 461 -213Q398 -258 273 -258Z" glyph-name="g.alt" horiz-adv-x="551" unicode="&#58566;" /><glyph d="M344 -8Q275 -8 218 16.5Q161 41 120 83Q79 125 56.5 180.5Q34 236 34 298Q34 362 57 418Q80 474 121.5 515Q163 556 219.5 580Q276 604 342 604Q433 604 502.5 562Q572 520 610 453L516 399Q490 447 446 475Q402 503 342 503Q299 503 262.5 487Q226 471 199 443Q172 415 157 377.5Q142 340 142 298Q142 255 157 217.5Q172 180 198.5 152.5Q225 125 262 109Q299 93 343 93Q416 93 462.5 132.5Q509 172 523 235H325V336H638V292Q638 231 617 176.5Q596 122 558 81Q520 40 465.5 16Q411 -8 344 -8Z" glyph-name="g.smcp" horiz-adv-x="673" unicode="&#57863;" /><glyph d="M304 549Q263 549 232.5 562Q202 575 182 597.5Q162 620 152.5 650Q143 680 143 715H219Q219 667 240.5 641.5Q262 616 304 615Q345 616 367 641.5Q389 667 389 715H466Q466 680 454.5 650Q443 620 422 597.5Q401 575 371 562Q341 549 304 549ZM298 88Q332 88 361 101Q390 114 411 136Q432 158 444 187.5Q456 217 456 251Q456 284 444 313.5Q432 343 411 365Q390 387 361 400Q332 413 298 413Q265 413 236 400.5Q207 388 185.5 366Q164 344 152 314.5Q140 285 140 251Q140 217 152 187Q164 157 185.5 135Q207 113 236 100.5Q265 88 298 88ZM283 -10Q235 -10 190.5 8.5Q146 27 111 60.5Q76 94 55 142Q34 190 34 250Q34 310 54.5 358Q75 406 109.5 440Q144 474 189.5 492Q235 510 284 510Q334 510 377.5 489Q421 468 450 432V500H557V12Q557 -43 540 -90Q523 -137 491 -171Q459 -205 412 -224Q365 -243 305 -243Q211 -243 148.5 -203Q86 -163 57 -102L156 -55Q175 -97 211.5 -121Q248 -145 305 -145Q339 -145 366 -133Q393 -121 412 -100.5Q431 -80 441 -52Q451 -24 451 8V71Q422 33 377.5 11.5Q333 -10 283 -10Z" glyph-name="gbreve" horiz-adv-x="609" unicode="&#287;" /><glyph d="M204 -54Q168 -56 150 -71Q132 -86 132 -107Q132 -118 136.5 -128.5Q141 -139 154 -146.5Q167 -154 190 -158.5Q213 -163 251 -163H299Q335 -163 360 -157.5Q385 -152 400 -143.5Q415 -135 421.5 -124Q428 -113 428 -102Q428 -79 407 -66.5Q386 -54 336 -54ZM252 549Q211 549 180.5 562Q150 575 130 597.5Q110 620 100.5 650Q91 680 91 715H167Q167 667 188.5 641.5Q210 616 252 615Q293 616 315 641.5Q337 667 337 715H414Q414 680 402.5 650Q391 620 370 597.5Q349 575 319 562Q289 549 252 549ZM249 200Q271 200 291 208.5Q311 217 325 231.5Q339 246 347.5 265.5Q356 285 356 308Q356 330 347.5 349.5Q339 369 325 384Q311 399 291 407.5Q271 416 249 416Q228 416 209 407.5Q190 399 175.5 384Q161 369 153 349.5Q145 330 145 308Q145 286 153 266.5Q161 247 175.5 232Q190 217 209 208.5Q228 200 249 200ZM273 -258Q207 -258 162.5 -247.5Q118 -237 90 -218.5Q62 -200 50 -176Q38 -152 38 -125Q38 -93 52.5 -71.5Q67 -50 90 -36Q61 -22 47 3Q33 28 33 61Q33 99 56 124Q79 149 115 160Q83 186 65.5 223.5Q48 261 48 308Q48 350 64 387Q80 424 107 451.5Q134 479 171 495Q208 511 250 511Q307 511 350.5 485Q394 459 418 415Q426 458 449 477Q472 496 516 496H528V378H514Q499 378 487.5 376.5Q476 375 468.5 368Q461 361 457 347Q453 333 453 308Q453 266 438.5 228.5Q424 191 397.5 163.5Q371 136 335.5 120Q300 104 258 104H184Q151 104 136.5 94Q122 84 122 70Q122 56 135 46.5Q148 37 180 37H341Q429 37 476.5 1.5Q524 -34 524 -98Q524 -168 461 -213Q398 -258 273 -258Z" glyph-name="gbreve.alt" horiz-adv-x="551" unicode="&#59664;" /><glyph d="M342 646Q301 646 270.5 659Q240 672 220 694.5Q200 717 190.5 747Q181 777 181 812H257Q257 764 278.5 738.5Q300 713 342 712Q383 713 405 738.5Q427 764 427 812H504Q504 777 492.5 747Q481 717 460 694.5Q439 672 409 659Q379 646 342 646ZM344 -8Q275 -8 218 16.5Q161 41 120 83Q79 125 56.5 180.5Q34 236 34 298Q34 362 57 418Q80 474 121.5 515Q163 556 219.5 580Q276 604 342 604Q433 604 502.5 562Q572 520 610 453L516 399Q490 447 446 475Q402 503 342 503Q299 503 262.5 487Q226 471 199 443Q172 415 157 377.5Q142 340 142 298Q142 255 157 217.5Q172 180 198.5 152.5Q225 125 262 109Q299 93 343 93Q416 93 462.5 132.5Q509 172 523 235H325V336H638V292Q638 231 617 176.5Q596 122 558 81Q520 40 465.5 16Q411 -8 344 -8Z" glyph-name="gbreve.smcp" horiz-adv-x="673" unicode="&#57934;" /><glyph d="M267 720H342L461 554H370L304 648L240 554H148ZM298 88Q332 88 361 101Q390 114 411 136Q432 158 444 187.5Q456 217 456 251Q456 284 444 313.5Q432 343 411 365Q390 387 361 400Q332 413 298 413Q265 413 236 400.5Q207 388 185.5 366Q164 344 152 314.5Q140 285 140 251Q140 217 152 187Q164 157 185.5 135Q207 113 236 100.5Q265 88 298 88ZM283 -10Q235 -10 190.5 8.5Q146 27 111 60.5Q76 94 55 142Q34 190 34 250Q34 310 54.5 358Q75 406 109.5 440Q144 474 189.5 492Q235 510 284 510Q334 510 377.5 489Q421 468 450 432V500H557V12Q557 -43 540 -90Q523 -137 491 -171Q459 -205 412 -224Q365 -243 305 -243Q211 -243 148.5 -203Q86 -163 57 -102L156 -55Q175 -97 211.5 -121Q248 -145 305 -145Q339 -145 366 -133Q393 -121 412 -100.5Q431 -80 441 -52Q451 -24 451 8V71Q422 33 377.5 11.5Q333 -10 283 -10Z" glyph-name="gcircumflex" horiz-adv-x="609" unicode="&#285;" /><glyph d="M209 720H284L403 554H312L246 648L182 554H90ZM204 -54Q168 -56 150 -71Q132 -86 132 -107Q132 -118 136.5 -128.5Q141 -139 154 -146.5Q167 -154 190 -158.5Q213 -163 251 -163H299Q335 -163 360 -157.5Q385 -152 400 -143.5Q415 -135 421.5 -124Q428 -113 428 -102Q428 -79 407 -66.5Q386 -54 336 -54ZM249 200Q271 200 291 208.5Q311 217 325 231.5Q339 246 347.5 265.5Q356 285 356 308Q356 330 347.5 349.5Q339 369 325 384Q311 399 291 407.5Q271 416 249 416Q228 416 209 407.5Q190 399 175.5 384Q161 369 153 349.5Q145 330 145 308Q145 286 153 266.5Q161 247 175.5 232Q190 217 209 208.5Q228 200 249 200ZM273 -258Q207 -258 162.5 -247.5Q118 -237 90 -218.5Q62 -200 50 -176Q38 -152 38 -125Q38 -93 52.5 -71.5Q67 -50 90 -36Q61 -22 47 3Q33 28 33 61Q33 99 56 124Q79 149 115 160Q83 186 65.5 223.5Q48 261 48 308Q48 350 64 387Q80 424 107 451.5Q134 479 171 495Q208 511 250 511Q307 511 350.5 485Q394 459 418 415Q426 458 449 477Q472 496 516 496H528V378H514Q499 378 487.5 376.5Q476 375 468.5 368Q461 361 457 347Q453 333 453 308Q453 266 438.5 228.5Q424 191 397.5 163.5Q371 136 335.5 120Q300 104 258 104H184Q151 104 136.5 94Q122 84 122 70Q122 56 135 46.5Q148 37 180 37H341Q429 37 476.5 1.5Q524 -34 524 -98Q524 -168 461 -213Q398 -258 273 -258Z" glyph-name="gcircumflex.alt" horiz-adv-x="551" unicode="&#59662;" /><glyph d="M304 815H379L498 649H407L341 743L277 649H185ZM344 -8Q275 -8 218 16.5Q161 41 120 83Q79 125 56.5 180.5Q34 236 34 298Q34 362 57 418Q80 474 121.5 515Q163 556 219.5 580Q276 604 342 604Q433 604 502.5 562Q572 520 610 453L516 399Q490 447 446 475Q402 503 342 503Q299 503 262.5 487Q226 471 199 443Q172 415 157 377.5Q142 340 142 298Q142 255 157 217.5Q172 180 198.5 152.5Q225 125 262 109Q299 93 343 93Q416 93 462.5 132.5Q509 172 523 235H325V336H638V292Q638 231 617 176.5Q596 122 558 81Q520 40 465.5 16Q411 -8 344 -8Z" glyph-name="gcircumflex.smcp" horiz-adv-x="673" unicode="&#57931;" /><glyph d="M260 550 298 754H394L329 550ZM298 88Q332 88 361 101Q390 114 411 136Q432 158 444 187.5Q456 217 456 251Q456 284 444 313.5Q432 343 411 365Q390 387 361 400Q332 413 298 413Q265 413 236 400.5Q207 388 185.5 366Q164 344 152 314.5Q140 285 140 251Q140 217 152 187Q164 157 185.5 135Q207 113 236 100.5Q265 88 298 88ZM283 -10Q235 -10 190.5 8.5Q146 27 111 60.5Q76 94 55 142Q34 190 34 250Q34 310 54.5 358Q75 406 109.5 440Q144 474 189.5 492Q235 510 284 510Q334 510 377.5 489Q421 468 450 432V500H557V12Q557 -43 540 -90Q523 -137 491 -171Q459 -205 412 -224Q365 -243 305 -243Q211 -243 148.5 -203Q86 -163 57 -102L156 -55Q175 -97 211.5 -121Q248 -145 305 -145Q339 -145 366 -133Q393 -121 412 -100.5Q431 -80 441 -52Q451 -24 451 8V71Q422 33 377.5 11.5Q333 -10 283 -10Z" glyph-name="gcommaaccent" horiz-adv-x="609" unicode="&#291;" /><glyph d="M221 557 259 761H355L290 557ZM204 -54Q168 -56 150 -71Q132 -86 132 -107Q132 -118 136.5 -128.5Q141 -139 154 -146.5Q167 -154 190 -158.5Q213 -163 251 -163H299Q335 -163 360 -157.5Q385 -152 400 -143.5Q415 -135 421.5 -124Q428 -113 428 -102Q428 -79 407 -66.5Q386 -54 336 -54ZM249 200Q271 200 291 208.5Q311 217 325 231.5Q339 246 347.5 265.5Q356 285 356 308Q356 330 347.5 349.5Q339 369 325 384Q311 399 291 407.5Q271 416 249 416Q228 416 209 407.5Q190 399 175.5 384Q161 369 153 349.5Q145 330 145 308Q145 286 153 266.5Q161 247 175.5 232Q190 217 209 208.5Q228 200 249 200ZM273 -258Q207 -258 162.5 -247.5Q118 -237 90 -218.5Q62 -200 50 -176Q38 -152 38 -125Q38 -93 52.5 -71.5Q67 -50 90 -36Q61 -22 47 3Q33 28 33 61Q33 99 56 124Q79 149 115 160Q83 186 65.5 223.5Q48 261 48 308Q48 350 64 387Q80 424 107 451.5Q134 479 171 495Q208 511 250 511Q307 511 350.5 485Q394 459 418 415Q426 458 449 477Q472 496 516 496H528V378H514Q499 378 487.5 376.5Q476 375 468.5 368Q461 361 457 347Q453 333 453 308Q453 266 438.5 228.5Q424 191 397.5 163.5Q371 136 335.5 120Q300 104 258 104H184Q151 104 136.5 94Q122 84 122 70Q122 56 135 46.5Q148 37 180 37H341Q429 37 476.5 1.5Q524 -34 524 -98Q524 -168 461 -213Q398 -258 273 -258Z" glyph-name="gcommaaccent.alt" horiz-adv-x="551" unicode="&#59665;" /><glyph d="M257 -261 295 -57H391L326 -261ZM344 -8Q275 -8 218 16.5Q161 41 120 83Q79 125 56.5 180.5Q34 236 34 298Q34 362 57 418Q80 474 121.5 515Q163 556 219.5 580Q276 604 342 604Q433 604 502.5 562Q572 520 610 453L516 399Q490 447 446 475Q402 503 342 503Q299 503 262.5 487Q226 471 199 443Q172 415 157 377.5Q142 340 142 298Q142 255 157 217.5Q172 180 198.5 152.5Q225 125 262 109Q299 93 343 93Q416 93 462.5 132.5Q509 172 523 235H325V336H638V292Q638 231 617 176.5Q596 122 558 81Q520 40 465.5 16Q411 -8 344 -8Z" glyph-name="gcommaaccent.smcp" horiz-adv-x="673" unicode="&#57920;" /><glyph d="M239 696H346V558H239ZM298 88Q332 88 361 101Q390 114 411 136Q432 158 444 187.5Q456 217 456 251Q456 284 444 313.5Q432 343 411 365Q390 387 361 400Q332 413 298 413Q265 413 236 400.5Q207 388 185.5 366Q164 344 152 314.5Q140 285 140 251Q140 217 152 187Q164 157 185.5 135Q207 113 236 100.5Q265 88 298 88ZM283 -10Q235 -10 190.5 8.5Q146 27 111 60.5Q76 94 55 142Q34 190 34 250Q34 310 54.5 358Q75 406 109.5 440Q144 474 189.5 492Q235 510 284 510Q334 510 377.5 489Q421 468 450 432V500H557V12Q557 -43 540 -90Q523 -137 491 -171Q459 -205 412 -224Q365 -243 305 -243Q211 -243 148.5 -203Q86 -163 57 -102L156 -55Q175 -97 211.5 -121Q248 -145 305 -145Q339 -145 366 -133Q393 -121 412 -100.5Q431 -80 441 -52Q451 -24 451 8V71Q422 33 377.5 11.5Q333 -10 283 -10Z" glyph-name="gdotaccent" horiz-adv-x="609" unicode="&#289;" /><glyph d="M203 696H310V558H203ZM217 -54Q174 -53 153 -68.5Q132 -84 132 -107Q132 -118 136.5 -128.5Q141 -139 154 -146.5Q167 -154 190 -158.5Q213 -163 251 -163H299Q335 -163 360 -157.5Q385 -152 400 -143.5Q415 -135 421.5 -124Q428 -113 428 -102Q428 -79 407 -66.5Q386 -54 336 -54ZM249 200Q271 200 291 208.5Q311 217 325 231.5Q339 246 347.5 265.5Q356 285 356 308Q356 330 347.5 349.5Q339 369 325 384Q311 399 291 407.5Q271 416 249 416Q228 416 209 407.5Q190 399 175.5 384Q161 369 153 349.5Q145 330 145 308Q145 286 153 266.5Q161 247 175.5 232Q190 217 209 208.5Q228 200 249 200ZM273 -258Q207 -258 162.5 -247.5Q118 -237 90 -218.5Q62 -200 50 -176Q38 -152 38 -125Q38 -93 52.5 -71.5Q67 -50 90 -36Q61 -22 47 3Q33 28 33 61Q33 99 56 124Q79 149 115 160Q83 186 65.5 223.5Q48 261 48 308Q48 350 64 387Q80 424 107 451.5Q134 479 171 495Q208 511 250 511Q307 511 350.5 485Q394 459 418 415Q426 458 449 477Q472 496 516 496H528V378H514Q499 378 487.5 376.5Q476 375 468.5 368Q461 361 457 347Q453 333 453 308Q453 266 438.5 228.5Q424 191 397.5 163.5Q371 136 335.5 120Q300 104 258 104H184Q151 104 136.5 94Q122 84 122 70Q122 56 135 46.5Q148 37 180 37H341Q429 37 476.5 1.5Q524 -34 524 -98Q524 -168 461 -213Q398 -258 273 -258Z" glyph-name="gdotaccent.alt" horiz-adv-x="551" unicode="&#59663;" /><glyph d="M290 792H397V654H290ZM344 -8Q275 -8 218 16.5Q161 41 120 83Q79 125 56.5 180.5Q34 236 34 298Q34 362 57 418Q80 474 121.5 515Q163 556 219.5 580Q276 604 342 604Q433 604 502.5 562Q572 520 610 453L516 399Q490 447 446 475Q402 503 342 503Q299 503 262.5 487Q226 471 199 443Q172 415 157 377.5Q142 340 142 298Q142 255 157 217.5Q172 180 198.5 152.5Q225 125 262 109Q299 93 343 93Q416 93 462.5 132.5Q509 172 523 235H325V336H638V292Q638 231 617 176.5Q596 122 558 81Q520 40 465.5 16Q411 -8 344 -8Z" glyph-name="gdotaccent.smcp" horiz-adv-x="673" unicode="&#57935;" /><glyph d="M-53 -129Q-20 -129 0.5 -124Q21 -119 32 -107Q43 -95 47 -75Q51 -55 51 -24V518Q50 565 63.5 604Q77 643 104.5 671.5Q132 700 172 715.5Q212 731 264 731Q310 731 349 716Q388 701 415.5 674.5Q443 648 458.5 611.5Q474 575 474 532Q474 480 448 440.5Q422 401 375 381Q429 362 465.5 317Q502 272 502 208Q502 161 486 121Q470 81 441 52Q412 23 371 7Q330 -9 279 -9Q259 -9 239.5 -6.5Q220 -4 205 3V100Q215 94 238.5 91Q262 88 278 88Q302 88 323 97Q344 106 359.5 122Q375 138 383.5 160Q392 182 392 207Q392 231 382.5 253Q373 275 355 291Q337 307 311 316.5Q285 326 253 326H232V424H253Q304 424 336.5 454.5Q369 485 369 533Q369 555 361.5 574.5Q354 594 340 608.5Q326 623 306.5 631.5Q287 640 263 640Q214 640 183.5 612Q153 584 153 529V-24Q153 -81 143.5 -120Q134 -159 112 -183.5Q90 -208 53.5 -219Q17 -230 -37 -230H-53Z" glyph-name="germandbls" horiz-adv-x="535" unicode="&#223;" /><glyph d="M118 720H232L348 554H266Z" glyph-name="grave" horiz-adv-x="485" unicode="`" /><glyph d="M44 276 300 365 44 452V547L414 411V319L44 181Z" glyph-name="greater" horiz-adv-x="457" unicode="&gt;" /><glyph d="M43 228H413V136H43ZM43 360 298 449 43 536V631L413 495V403L43 265Z" glyph-name="greaterequal" horiz-adv-x="457" unicode="&#8805;" /><glyph d="M243 222V284L416 398V323L309 253L416 182V108ZM55 222V284L228 398V323L121 253L228 182V108Z" glyph-name="guillemotleft" horiz-adv-x="471" unicode="&#171;" /><glyph d="M243 335V397L416 511V436L309 366L416 295V221ZM55 335V397L228 511V436L121 366L228 295V221Z" glyph-name="guillemotleft.cap" horiz-adv-x="471" unicode="&#58451;" /><glyph d="M55 183 163 253 55 324V399L228 284V223L55 108ZM243 183 351 253 243 324V399L416 284V223L243 108Z" glyph-name="guillemotright" horiz-adv-x="471" unicode="&#187;" /><glyph d="M55 295 163 366 55 436V511L228 397V335L55 221ZM243 295 351 366 243 436V511L416 397V335L243 221Z" glyph-name="guillemotright.cap" horiz-adv-x="471" unicode="&#58452;" /><glyph d="M61 219V287L223 406V323L125 253L223 183V100Z" glyph-name="guilsinglleft" horiz-adv-x="283" unicode="&#8249;" /><glyph d="M61 332V400L223 519V436L125 366L223 296V213Z" glyph-name="guilsinglleft.cap" horiz-adv-x="283" unicode="&#58449;" /><glyph d="M61 183 160 253 61 324V407L223 288V220L61 101Z" glyph-name="guilsinglright" horiz-adv-x="283" unicode="&#8250;" /><glyph d="M61 296 160 366 61 437V519L223 400V333L61 214Z" glyph-name="guilsinglright.cap" horiz-adv-x="283" unicode="&#58450;" /><glyph d="M52 730H158V437Q184 470 223.5 490Q263 510 312 510Q407 510 461 452.5Q515 395 515 292V0H406V282Q406 345 376 381Q346 417 285 417Q258 417 235 407Q212 397 195 379Q178 361 168.5 334.5Q159 308 159 275V0H52Z" glyph-name="h" horiz-adv-x="565" unicode="h" /><glyph d="M396 248H160V0H53V596H160V352H396V596H503V0H396Z" glyph-name="h.smcp" horiz-adv-x="555" unicode="&#57864;" /><glyph d="M4 644H62V730H168V644H238V566H168V437Q194 470 233.5 490Q273 510 322 510Q417 510 471 452.5Q525 395 525 292V0H416V282Q416 345 386 381Q356 417 295 417Q268 417 245 407Q222 397 205 379Q188 361 178.5 334.5Q169 308 169 275V0H62V566H4Z" glyph-name="hbar" horiz-adv-x="575" unicode="&#295;" /><glyph d="M178 342H414V417H178ZM414 238H178V0H71V417H18V521H71V596H178V521H414V596H521V521H573V417H521V0H414Z" glyph-name="hbar.smcp" horiz-adv-x="591" unicode="&#57943;" /><glyph d="M66 945H141L260 779H169L103 873L39 779H-53ZM52 730H158V437Q184 470 223.5 490Q263 510 312 510Q407 510 461 452.5Q515 395 515 292V0H406V282Q406 345 376 381Q346 417 285 417Q258 417 235 407Q212 397 195 379Q178 361 168.5 334.5Q159 308 159 275V0H52Z" glyph-name="hcircumflex" horiz-adv-x="565" unicode="&#293;" /><glyph d="M239 815H314L433 649H342L276 743L212 649H120ZM396 248H160V0H53V596H160V352H396V596H503V0H396Z" glyph-name="hcircumflex.smcp" horiz-adv-x="555" unicode="&#57939;" /><glyph d="M89 550Q89 589 103 623.5Q117 658 142 684Q167 710 200 725Q233 740 272 740Q310 740 342.5 727.5Q375 715 399 693.5Q423 672 438 642.5Q453 613 457 579Q461 613 476 642.5Q491 672 515 693.5Q539 715 571 727.5Q603 740 642 740Q681 740 715 725Q749 710 775 684Q801 658 816 623.5Q831 589 831 550Q831 507 818 463.5Q805 420 777 371Q749 322 705 265.5Q661 209 599 140L457 -17L316 140Q254 209 210.5 265.5Q167 322 140 371Q113 420 101 463.5Q89 507 89 550Z" glyph-name="heart" horiz-adv-x="920" unicode="&#9829;" /><glyph d="M100 0V427L437 750L774 427V0Z" glyph-name="house" horiz-adv-x="874" unicode="&#8962;" /><glyph d="M323 720H431L283 554H207ZM168 720H276L128 554H53Z" glyph-name="hungarumlaut" horiz-adv-x="485" unicode="&#733;" /><glyph d="M44 299H414V206H44Z" glyph-name="hyphen" horiz-adv-x="457" unicode="-" /><glyph d="M44 354H414V261H44Z" glyph-name="hyphen.cap" horiz-adv-x="457" unicode="&#58498;" /><glyph d="M51 709H159V569H51ZM51 500H159V0H51Z" glyph-name="i" horiz-adv-x="210" unicode="i" /><glyph d="M58 596H166V0H58Z" glyph-name="i.smcp" horiz-adv-x="224" unicode="&#57865;" /><glyph d="M51 500H159V0H51ZM170 720H284L136 554H54Z" glyph-name="iacute" horiz-adv-x="210" unicode="&#237;" /><glyph d="M58 596H166V0H58ZM183 816H297L149 650H67Z" glyph-name="iacute.smcp" horiz-adv-x="224" unicode="&#57944;" /><glyph d="M104 549Q63 549 32.5 562Q2 575 -18 597.5Q-38 620 -47.5 650Q-57 680 -57 715H19Q19 667 40.5 641.5Q62 616 104 615Q145 616 167 641.5Q189 667 189 715H266Q266 680 254.5 650Q243 620 222 597.5Q201 575 171 562Q141 549 104 549ZM51 500H159V0H51Z" glyph-name="ibreve" horiz-adv-x="210" unicode="&#301;" /><glyph d="M111 643Q70 643 39.5 656Q9 669 -11 691.5Q-31 714 -40.5 744Q-50 774 -50 809H26Q26 761 47.5 735.5Q69 710 111 709Q152 710 174 735.5Q196 761 196 809H273Q273 774 261.5 744Q250 714 229 691.5Q208 669 178 656Q148 643 111 643ZM58 596H166V0H58Z" glyph-name="ibreve.smcp" horiz-adv-x="224" unicode="&#57951;" /><glyph d="M67 720H142L261 554H170L104 648L40 554H-52ZM51 500H159V0H51Z" glyph-name="icircumflex" horiz-adv-x="210" unicode="&#238;" /><glyph d="M79 812H154L273 646H182L116 740L52 646H-40ZM58 596H166V0H58Z" glyph-name="icircumflex.smcp" horiz-adv-x="224" unicode="&#57946;" /><glyph d="M51 500H159V0H51ZM-54 696H54V558H-54ZM156 696H263V558H156Z" glyph-name="idieresis" horiz-adv-x="210" unicode="&#239;" /><glyph d="M58 596H166V0H58ZM-45 792H62V654H-45ZM173 792H280V654H173Z" glyph-name="idieresis.smcp" horiz-adv-x="224" unicode="&#57947;" /><glyph d="M51 709H159V569H51ZM51 500H159V0H51Z" glyph-name="idotaccent" horiz-adv-x="210" unicode="&#59269;" /><glyph d="M59 788H166V650H59ZM58 596H166V0H58Z" glyph-name="idotaccent.smcp" horiz-adv-x="224" unicode="&#57954;" /><glyph d="M-72 720H42L158 554H76ZM51 500H159V0H51Z" glyph-name="igrave" horiz-adv-x="210" unicode="&#236;" /><glyph d="M58 596H166V0H58ZM-75 816H39L155 650H73Z" glyph-name="igrave.smcp" horiz-adv-x="224" unicode="&#57945;" /><glyph d="M236 709H343V569H236ZM51 709H159V569H51ZM51 500H159V0H51ZM51 -109H129Q163 -109 184.5 -105.5Q206 -102 217 -91Q228 -80 232 -59.5Q236 -39 236 -5V500H343V-6Q343 -64 333 -103Q323 -142 300 -166Q277 -190 239 -200Q201 -210 145 -210H51Z" glyph-name="ij" horiz-adv-x="394" unicode="&#307;" /><glyph d="M49 596H157V0H49ZM217 99H230Q273 100 286.5 118Q300 136 300 179V596H407V183Q407 133 398.5 98Q390 63 369.5 41Q349 19 315.5 9.5Q282 0 233 0H217Z" glyph-name="ij.smcp" horiz-adv-x="456" unicode="&#58151;" /><glyph d="M-27 631H237V554H-27ZM51 500H159V0H51Z" glyph-name="imacron" horiz-adv-x="210" unicode="&#299;" /><glyph d="M58 596H166V0H58ZM-22 727H242V650H-22Z" glyph-name="imacron.smcp" horiz-adv-x="224" unicode="&#57950;" /><glyph d="M665 303Q698 303 722 327.5Q746 352 746 385Q746 401 739.5 415.5Q733 430 722 441.5Q711 453 696 459.5Q681 466 665 466Q630 466 596 442.5Q562 419 525 386Q562 351 596.5 327Q631 303 665 303ZM251 302Q285 302 320 326Q355 350 392 385Q356 418 321 441.5Q286 465 251 465Q234 465 219.5 458.5Q205 452 193.5 440.5Q182 429 175.5 414.5Q169 400 169 384Q169 367 175.5 352.5Q182 338 193.5 326.5Q205 315 219.5 308.5Q234 302 251 302ZM250 210Q214 210 182 223.5Q150 237 126.5 261Q103 285 89 316.5Q75 348 75 384Q75 420 89 452Q103 484 126.5 508Q150 532 182 545.5Q214 559 250 559Q280 559 307.5 550Q335 541 361 525.5Q387 510 411.5 490Q436 470 459 449Q482 471 506 491Q530 511 556 526Q582 541 609 550Q636 559 665 559Q701 559 733 545.5Q765 532 789 508Q813 484 826.5 452Q840 420 840 384Q840 348 826.5 316.5Q813 285 789 261Q765 237 733 223.5Q701 210 665 210Q636 210 609 219Q582 228 556.5 243.5Q531 259 506.5 279Q482 299 458 321Q435 299 410.5 279Q386 259 360 243.5Q334 228 306.5 219Q279 210 250 210Z" glyph-name="infinity" horiz-adv-x="915" unicode="&#8734;" /><glyph d="M8 -105Q44 -105 65 -101Q86 -97 97 -86Q108 -75 111 -54Q114 -33 114 0V526Q114 584 124 623.5Q134 663 157.5 686.5Q181 710 220.5 720Q260 730 319 730H328V631Q292 631 271 627Q250 623 239 611.5Q228 600 225 579.5Q222 559 222 525V1Q222 -58 212 -97.5Q202 -137 178.5 -160.5Q155 -184 115.5 -194Q76 -204 17 -204H8Z" glyph-name="integral" horiz-adv-x="359" unicode="&#8747;" /><glyph d="M379 544Q379 577 359.5 603Q340 629 305 640V613Q305 565 303 512Q301 459 298 405Q313 421 327.5 435Q342 449 353.5 464.5Q365 480 372 498.5Q379 517 379 544ZM202 137H310V0H202ZM217 189Q215 230 214 282.5Q213 335 211.5 392Q210 449 209.5 506Q209 563 209 613V641Q177 631 157 608.5Q137 586 125 557L26 594Q49 657 108 698.5Q167 740 256 740Q307 740 349.5 726Q392 712 423 686Q454 660 471 623.5Q488 587 488 543Q488 495 474 465.5Q460 436 438.5 415Q417 394 392 377Q367 360 345.5 338Q324 316 310 283.5Q296 251 296 199V189Z" glyph-name="interrobang" horiz-adv-x="531" unicode="&#8253;" /><glyph d="M154 -44Q154 -77 173.5 -103Q193 -129 228 -140V-113Q228 -65 229.5 -12Q231 41 234 94Q220 78 205.5 64.5Q191 51 179.5 35.5Q168 20 161 1.5Q154 -17 154 -44ZM331 363H223V500H331ZM277 -240Q226 -240 183.5 -226Q141 -212 110 -186Q79 -160 62 -123.5Q45 -87 45 -43Q45 4 59 34Q73 64 94.5 85Q116 106 141 123Q166 140 187.5 162.5Q209 185 223 217.5Q237 250 237 301V312H316Q317 270 318.5 217.5Q320 165 321.5 108Q323 51 323.5 -6Q324 -63 324 -113V-141Q356 -131 376 -108.5Q396 -86 408 -57L507 -94Q484 -157 425 -198.5Q366 -240 277 -240Z" glyph-name="interrobangdown" horiz-adv-x="531" unicode="&#59701;" /><glyph d="M154 186Q154 152 173.5 126.5Q193 101 228 90V117Q228 165 229.5 218Q231 271 234 324Q220 308 205.5 294.5Q191 281 179.5 265.5Q168 250 161 231.5Q154 213 154 186ZM331 593H223V730H331ZM277 -10Q226 -10 183.5 4Q141 18 110 44Q79 70 62 106.5Q45 143 45 188Q45 235 59 264.5Q73 294 94.5 315Q116 336 141 353Q166 370 187.5 392.5Q209 415 223 447.5Q237 480 237 531V542H316Q317 500 318.5 447.5Q320 395 321.5 338Q323 281 323.5 224Q324 167 324 117V89Q356 100 376 122.5Q396 145 408 174L507 136Q496 105 475 78Q454 51 425 31.5Q396 12 358.5 1Q321 -10 277 -10Z" glyph-name="interrobangdown.cap" horiz-adv-x="531" unicode="&#59803;" /><glyph d="M80 554Q80 589 89.5 619Q99 649 119 671.5Q139 694 169.5 707Q200 720 241 720Q278 720 308 707Q338 694 359 671.5Q380 649 391.5 619Q403 589 403 554H326Q326 602 304 627.5Q282 653 241 654Q199 653 177.5 627.5Q156 602 156 554Z" glyph-name="invertedbreve" horiz-adv-x="485" unicode="&#58385;" /><glyph d="M51 709H159V569H51ZM105 -224Q75 -224 51.5 -215.5Q28 -207 11.5 -192Q-5 -177 -13.5 -157Q-22 -137 -22 -115Q-23 -78 -3 -47.5Q17 -17 51 10V500H159V0H157Q108 -34 86.5 -61Q65 -88 65 -108Q65 -127 77 -137.5Q89 -148 108 -148Q126 -148 139.5 -139.5Q153 -131 165 -119L227 -174Q202 -196 171.5 -210Q141 -224 105 -224Z" glyph-name="iogonek" horiz-adv-x="210" unicode="&#303;" /><glyph d="M114 -224Q84 -224 60.5 -215.5Q37 -207 20.5 -192Q4 -177 -4.5 -157Q-13 -137 -13 -115Q-14 -78 5.5 -48Q25 -18 58 9V596H166V0Q117 -34 95.5 -61Q74 -88 74 -108Q74 -127 86 -137.5Q98 -148 117 -148Q135 -148 148.5 -139.5Q162 -131 174 -119L236 -174Q211 -196 180.5 -210Q150 -224 114 -224Z" glyph-name="iogonek.smcp" horiz-adv-x="224" unicode="&#63054;" /><glyph d="M-64 554Q-64 612 -36.5 647Q-9 682 38 682Q63 682 81.5 674Q100 666 117 656Q132 646 146 638Q160 630 174 630Q207 630 207 678H278Q278 619 252 584.5Q226 550 175 550Q146 550 125 560.5Q104 571 86 582Q73 590 62.5 595.5Q52 601 38 601Q7 601 7 554ZM51 500H159V0H51Z" glyph-name="itilde" horiz-adv-x="210" unicode="&#297;" /><glyph d="M-55 650Q-55 708 -27.5 743Q0 778 47 778Q72 778 90.5 770Q109 762 126 752Q141 742 155 734Q169 726 183 726Q216 726 216 774H287Q287 715 261 680.5Q235 646 184 646Q155 646 134 656.5Q113 667 95 678Q82 686 71.5 691.5Q61 697 47 697Q16 697 16 650ZM58 596H166V0H58Z" glyph-name="itilde.smcp" horiz-adv-x="224" unicode="&#57948;" /><glyph d="M51 709H159V569H51ZM-56 -129Q-22 -129 -0.5 -125.5Q21 -122 32 -111Q43 -100 47 -79.5Q51 -59 51 -25V500H159V-26Q159 -84 149 -123Q139 -162 115.5 -186Q92 -210 54 -220Q16 -230 -40 -230H-56Z" glyph-name="j" horiz-adv-x="210" unicode="j" /><glyph d="M196 -8Q129 -8 82.5 24Q36 56 19 108L121 151Q129 125 147.5 108Q166 91 195 91Q227 91 244 113Q261 135 261 170V596H369V176Q369 88 325 40Q281 -8 196 -8Z" glyph-name="j.smcp" horiz-adv-x="419" unicode="&#57866;" /><glyph d="M67 720H142L261 554H170L104 648L40 554H-52ZM-56 -129Q-22 -129 -0.5 -125.5Q21 -122 32 -111Q43 -100 47 -79.5Q51 -59 51 -25V500H160V-26Q160 -85 150 -124Q140 -163 116.5 -186.5Q93 -210 55 -220Q17 -230 -40 -230H-56Z" glyph-name="jcircumflex" horiz-adv-x="211" unicode="&#309;" /><glyph d="M274 811H349L468 645H377L311 739L247 645H155ZM196 -8Q129 -8 82.5 24Q36 56 19 108L121 151Q129 125 147.5 108Q166 91 195 91Q227 91 244 113Q261 135 261 170V596H369V176Q369 88 325 40Q281 -8 196 -8Z" glyph-name="jcircumflex.smcp" horiz-adv-x="419" unicode="&#63027;" /><glyph d="M242 222 158 130V0H52V730H158V252L383 500H512L317 286L517 0H397Z" glyph-name="k" horiz-adv-x="539" unicode="k" /><glyph d="M235 284 160 196V0H53V596H160V332L379 596H508L312 360L519 0H398Z" glyph-name="k.smcp" horiz-adv-x="537" unicode="&#57867;" /><glyph d="M189 -251 227 -47H323L258 -251ZM242 222 158 130V0H52V730H158V252L383 500H512L317 286L517 0H397Z" glyph-name="kcommaaccent" horiz-adv-x="539" unicode="&#311;" /><glyph d="M191 -249 229 -45H325L260 -249ZM235 284 160 196V0H53V596H160V332L379 596H508L312 360L519 0H398Z" glyph-name="kcommaaccent.smcp" horiz-adv-x="537" unicode="&#57960;" /><glyph d="M242 222 158 130V0H52V500H158V252L383 500H512L317 286L517 0H397Z" glyph-name="kgreenlandic" horiz-adv-x="539" unicode="&#312;" /><glyph d="M52 730H159V0H52Z" glyph-name="l" horiz-adv-x="211" unicode="l" /><glyph d="M53 596H160V103H385V0H53Z" glyph-name="l.smcp" horiz-adv-x="422" unicode="&#57868;" /><glyph d="M52 730H159V0H52ZM179 945H293L145 779H63Z" glyph-name="lacute" horiz-adv-x="211" unicode="&#314;" /><glyph d="M177 816H291L143 650H61ZM53 596H160V103H385V0H53Z" glyph-name="lacute.smcp" horiz-adv-x="422" unicode="&#57963;" /><glyph d="M49 730H156V0H49ZM243 730H334L280 553H211Z" glyph-name="lcaron" horiz-adv-x="263" unicode="&#318;" /><glyph d="M303 596H394L340 419H271ZM53 596H160V103H385V0H53Z" glyph-name="lcaron.smcp" horiz-adv-x="422" unicode="&#57964;" /><glyph d="M52 730H159V0H52ZM22 -251 60 -47H156L91 -251Z" glyph-name="lcommaaccent" horiz-adv-x="211" unicode="&#316;" /><glyph d="M136 -254 174 -50H270L205 -254ZM53 596H160V103H385V0H53Z" glyph-name="lcommaaccent.smcp" horiz-adv-x="422" unicode="&#57965;" /><glyph d="M233 333H340V195H233ZM52 730H159V0H52Z" glyph-name="ldot" horiz-adv-x="377" unicode="&#320;" /><glyph d="M277 389H384V251H277ZM53 596H160V103H385V0H53Z" glyph-name="ldot.smcp" horiz-adv-x="422" unicode="&#57969;" /><glyph d="M44 319V411L414 547V452L157 365L414 276V181Z" glyph-name="less" horiz-adv-x="457" unicode="&lt;" /><glyph d="M43 228H413V136H43ZM43 403V495L413 631V536L157 449L413 360V265Z" glyph-name="lessequal" horiz-adv-x="457" unicode="&#8804;" /><glyph d="M181 61Q204 61 223 70Q242 79 256 95Q235 110 215 120Q195 130 173 130Q152 130 142 120.5Q132 111 132 96Q132 80 145 70.5Q158 61 181 61ZM79 419H179Q168 444 161.5 472Q155 500 155 533Q155 579 171 617Q187 655 216 682.5Q245 710 285.5 725Q326 740 375 740Q459 740 512.5 707Q566 674 593 618L496 570Q479 607 450 626.5Q421 646 375 646Q322 646 290.5 614.5Q259 583 259 535Q259 503 266 474.5Q273 446 284 419H481V333H323Q338 299 349 262.5Q360 226 360 182Q360 165 357.5 149.5Q355 134 350 119Q376 102 400.5 89.5Q425 77 454 77Q499 77 518.5 100.5Q538 124 538 181V215H649V167Q649 83 608.5 36.5Q568 -10 476 -10Q424 -10 385 8.5Q346 27 314 51Q290 22 256 5.5Q222 -11 182 -11Q114 -11 80 17.5Q46 46 46 96Q46 143 80 173.5Q114 204 168 204Q202 204 230 193Q258 182 284 166Q285 170 285 179Q285 222 266.5 258.5Q248 295 225 333H79Z" glyph-name="lira" horiz-adv-x="693" unicode="&#8356;" /><glyph d="M460 418H28V522H568V178H460Z" glyph-name="logicalnot" horiz-adv-x="603" unicode="&#172;" /><glyph d="M44 -100H464V-192H44Z" glyph-name="lowline" horiz-adv-x="507" unicode="&#58641;" /><glyph d="M416 123 656 364 412 607 172 367ZM33 366 413 746 795 364 415 -16Z" glyph-name="lozenge" horiz-adv-x="843" unicode="&#9674;" /><glyph d="M19 392 109 418V730H217V450L310 477V399L217 372V0H109V340L19 314Z" glyph-name="lslash" horiz-adv-x="329" unicode="&#322;" /><glyph d="M15 295 82 320V596H189V360L342 418V334L189 277V103H414V0H82V237L15 212Z" glyph-name="lslash.smcp" horiz-adv-x="451" unicode="&#63225;" /><glyph d="M51 500H157V440Q181 473 218.5 491.5Q256 510 304 510Q364 510 405.5 486Q447 462 469 420Q495 462 538.5 486Q582 510 638 510Q740 510 792.5 453Q845 396 845 300V0H736V293Q736 350 706.5 383.5Q677 417 620 417Q569 417 535 383Q501 349 501 282V0H393V298Q393 353 363.5 385Q334 417 280 417Q227 417 192.5 382Q158 347 158 278V0H51Z" glyph-name="m" horiz-adv-x="895" unicode="m" /><glyph d="M53 596H159L345 337L535 596H637V0H530V419L345 167L159 422V0H53Z" glyph-name="m.smcp" horiz-adv-x="689" unicode="&#57869;" /><glyph d="M111 631H375V554H111Z" glyph-name="macron" horiz-adv-x="485" unicode="&#175;" /><glyph d="M349 -10Q295 -10 248 10.5Q201 31 165.5 66Q130 101 110 148.5Q90 196 90 250Q90 304 110 351.5Q130 399 165.5 434Q201 469 248 489.5Q295 510 349 510Q403 510 450 489.5Q497 469 532.5 434Q568 399 588 351.5Q608 304 608 250Q608 196 588 148.5Q568 101 532.5 66Q497 31 450 10.5Q403 -10 349 -10Z" glyph-name="mediumblackcircle" horiz-adv-x="698" unicode="&#9899;" /><glyph d="M349 90Q381 90 409 102.5Q437 115 458 137Q479 159 491 188Q503 217 503 250Q503 283 491 312Q479 341 458 363Q437 385 409 397.5Q381 410 349 410Q317 410 289 397.5Q261 385 240.5 363Q220 341 208 312Q196 283 196 250Q196 217 208 188Q220 159 240.5 137Q261 115 289 102.5Q317 90 349 90ZM349 -10Q295 -10 248 10Q201 30 165.5 65.5Q130 101 110 148.5Q90 196 90 250Q90 305 110 352.5Q130 400 165.5 435Q201 470 248 490Q295 510 349 510Q403 510 450.5 490Q498 470 533 435Q568 400 588.5 352.5Q609 305 609 250Q609 196 588.5 148.5Q568 101 533 65.5Q498 30 450.5 10Q403 -10 349 -10Z" glyph-name="mediumwhitecircle" horiz-adv-x="698" unicode="&#9898;" /><glyph d="M44 411H414V319H44Z" glyph-name="minus" horiz-adv-x="457" unicode="&#8722;" /><glyph d="M25 249H238V173H25Z" glyph-name="minus.inf" horiz-adv-x="263" unicode="&#58748;" /><glyph d="M35 526 73 730H171L103 526Z" glyph-name="minute" horiz-adv-x="204" unicode="&#8242;" /><glyph d="M49 500H158V234Q158 163 189.5 123.5Q221 84 278 84Q305 84 328 94Q351 104 368.5 122Q386 140 395.5 166Q405 192 405 225V500H512V0H406V61Q382 29 345 9.5Q308 -10 261 -10Q229 -10 203 -0.5Q177 9 156 24V-230H49Z" glyph-name="mu" horiz-adv-x="561" unicode="&#181;" /><glyph d="M52 251 165 364 52 478 115 541 228 427 342 541 406 477 292 363 405 251 342 188 229 300 116 187Z" glyph-name="multiply" horiz-adv-x="457" unicode="&#215;" /><glyph d="M51 500H157V435Q183 470 222 490Q261 510 311 510Q406 510 460 452.5Q514 395 514 292V0H406V283Q406 345 375.5 381Q345 417 285 417Q231 417 194.5 379Q158 341 158 275V0H51Z" glyph-name="n" horiz-adv-x="564" unicode="n" /><glyph d="M53 596H170L444 182V596H550V0H441L159 425V0H53Z" glyph-name="n.smcp" horiz-adv-x="603" unicode="&#57870;" /><glyph d="M361 720H475L327 554H245ZM51 500H157V435Q183 470 222 490Q261 510 311 510Q406 510 460 452.5Q514 395 514 292V0H406V283Q406 345 375.5 381Q345 417 285 417Q231 417 194.5 379Q158 341 158 275V0H51Z" glyph-name="nacute" horiz-adv-x="564" unicode="&#324;" /><glyph d="M379 812H493L345 646H263ZM53 596H170L444 182V596H550V0H441L159 425V0H53Z" glyph-name="nacute.smcp" horiz-adv-x="603" unicode="&#57974;" /><glyph d="M128 720H220L284 626L350 720H441L322 554H247ZM51 500H157V435Q183 470 222 490Q261 510 311 510Q406 510 460 452.5Q514 395 514 292V0H406V283Q406 345 375.5 381Q345 417 285 417Q231 417 194.5 379Q158 341 158 275V0H51Z" glyph-name="ncaron" horiz-adv-x="564" unicode="&#328;" /><glyph d="M149 808H241L305 714L371 808H462L343 642H268ZM53 596H170L444 182V596H550V0H441L159 425V0H53Z" glyph-name="ncaron.smcp" horiz-adv-x="603" unicode="&#57978;" /><glyph d="M213 -251 251 -47H347L282 -251ZM51 500H157V435Q183 470 222 490Q261 510 311 510Q406 510 460 452.5Q514 395 514 292V0H406V283Q406 345 375.5 381Q345 417 285 417Q231 417 194.5 379Q158 341 158 275V0H51Z" glyph-name="ncommaaccent" horiz-adv-x="564" unicode="&#326;" /><glyph d="M226 -254 264 -50H360L295 -254ZM53 596H170L444 182V596H550V0H441L159 425V0H53Z" glyph-name="ncommaaccent.smcp" horiz-adv-x="603" unicode="&#57981;" /><glyph d="M296 340Q327 340 354 352Q381 364 401 384.5Q421 405 432.5 432.5Q444 460 444 491Q444 522 432.5 549.5Q421 577 401 597.5Q381 618 354 630Q327 642 296 642Q265 642 237.5 630Q210 618 189.5 597.5Q169 577 157 549.5Q145 522 145 491Q145 460 157 432.5Q169 405 189.5 384.5Q210 364 237.5 352Q265 340 296 340ZM165 0 327 250Q301 244 274 244Q225 244 182 262.5Q139 281 107.5 314Q76 347 57.5 392.5Q39 438 39 492Q39 546 58.5 591.5Q78 637 112 670Q146 703 193 721.5Q240 740 294 740Q349 740 396 720.5Q443 701 477.5 667.5Q512 634 531 589Q550 544 550 493Q550 444 535 398.5Q520 353 495 317L294 0Z" glyph-name="nine" horiz-adv-x="588" unicode="9" /><glyph d="M294 334Q325 334 353 346Q381 358 401.5 379Q422 400 434 428Q446 456 446 488Q446 520 434 548Q422 576 401.5 597Q381 618 353 630.5Q325 643 294 643Q262 643 234 630.5Q206 618 185 597Q164 576 152 547.5Q140 519 140 487Q140 455 152 427Q164 399 185 378.5Q206 358 234 346Q262 334 294 334ZM331 246Q302 238 273 238Q223 238 179.5 256.5Q136 275 103.5 308.5Q71 342 52 388Q33 434 33 488Q33 543 53 589.5Q73 636 108 669.5Q143 703 190.5 721.5Q238 740 292 740Q348 740 396 720.5Q444 701 478.5 667Q513 633 532.5 587Q552 541 552 489Q552 439 537 391.5Q522 344 496 307L296 0H167Z" glyph-name="nine.LP" horiz-adv-x="586" unicode="&#58686;" /><glyph d="M296 340Q327 340 354 352Q381 364 401 384.5Q421 405 432.5 432.5Q444 460 444 491Q444 522 432.5 549.5Q421 577 401 597.5Q381 618 354 630Q327 642 296 642Q265 642 237.5 630Q210 618 189.5 597.5Q169 577 157 549.5Q145 522 145 491Q145 460 157 432.5Q169 405 189.5 384.5Q210 364 237.5 352Q265 340 296 340ZM165 0 327 250Q301 244 274 244Q225 244 182 262.5Q139 281 107.5 314Q76 347 57.5 392.5Q39 438 39 492Q39 546 58.5 591.5Q78 637 112 670Q146 703 193 721.5Q240 740 294 740Q349 740 396 720.5Q443 701 477.5 667.5Q512 634 531 589Q550 544 550 493Q550 444 535 398.5Q520 353 495 317L294 0Z" glyph-name="nine.LT" horiz-adv-x="588" unicode="&#58697;" /><glyph d="M177 209Q205 209 224 229Q243 249 243 277Q243 305 224 324.5Q205 344 177 344Q149 344 129.5 324.5Q110 305 110 276Q110 248 129.5 228.5Q149 209 177 209ZM171 129H160Q131 129 105 139.5Q79 150 59.5 169.5Q40 189 29 216.5Q18 244 18 277Q18 310 30 337.5Q42 365 63 385.5Q84 406 113 417Q142 428 176 428Q210 428 239 416.5Q268 405 289 384.5Q310 364 322 336.5Q334 309 334 277Q334 247 323.5 216.5Q313 186 297 162L195 0H88Z" glyph-name="nine.inf" horiz-adv-x="353" unicode="&#58746;" /><glyph d="M177 517Q205 517 224 537Q243 557 243 585Q243 613 224 632.5Q205 652 177 652Q149 652 129.5 632.5Q110 613 110 584Q110 556 129.5 536.5Q149 517 177 517ZM938 79Q966 79 986 98.5Q1006 118 1006 147Q1006 175 986 194Q966 213 938 213Q910 213 891 194Q872 175 872 146Q872 118 891 98.5Q910 79 938 79ZM513 87H595V290Q585 276 567 268.5Q549 261 529 261H523V352H526Q547 352 561 358.5Q575 365 583 375.5Q591 386 594.5 398.5Q598 411 598 422H688V87H767V0H513ZM171 437H160Q131 437 105 447.5Q79 458 59.5 477.5Q40 497 29 524.5Q18 552 18 585Q18 618 30 645.5Q42 673 63 693.5Q84 714 113 725Q142 736 176 736Q210 736 239 724.5Q268 713 289 692.5Q310 672 322 644.5Q334 617 334 585Q334 555 323.5 524.5Q313 494 297 470L195 308H88ZM939 -6Q904 -6 875 5.5Q846 17 825 37.5Q804 58 792.5 85.5Q781 113 781 145Q781 176 791.5 206Q802 236 818 260L921 422H1027L944 293Q948 294 955 294Q985 294 1010.5 283Q1036 272 1055.5 252.5Q1075 233 1086 205.5Q1097 178 1097 145Q1097 112 1085 84.5Q1073 57 1052 37Q1031 17 1002 5.5Q973 -6 939 -6ZM626 730H751L224 0H99Z" glyph-name="ninesixteenths" horiz-adv-x="1115" unicode="&#61977;" /><glyph d="M328 492H414V400H285L251 327H414V235H208L177 168H93L123 235H44V327H165L199 400H44V492H241L273 561H360Z" glyph-name="notequal" horiz-adv-x="457" unicode="&#8800;" /><glyph d="M107 554Q107 612 134.5 647Q162 682 209 682Q234 682 252.5 674Q271 666 288 656Q303 646 317 638Q331 630 345 630Q378 630 378 678H449Q449 619 423 584.5Q397 550 346 550Q317 550 296 560.5Q275 571 257 582Q244 590 233.5 595.5Q223 601 209 601Q178 601 178 554ZM51 500H157V435Q183 470 222 490Q261 510 311 510Q406 510 460 452.5Q514 395 514 292V0H406V283Q406 345 375.5 381Q345 417 285 417Q231 417 194.5 379Q158 341 158 275V0H51Z" glyph-name="ntilde" horiz-adv-x="564" unicode="&#241;" /><glyph d="M134 650Q134 708 161.5 743Q189 778 236 778Q261 778 279.5 770Q298 762 315 752Q330 742 344 734Q358 726 372 726Q405 726 405 774H476Q476 715 450 680.5Q424 646 373 646Q344 646 323 656.5Q302 667 284 678Q271 686 260.5 691.5Q250 697 236 697Q205 697 205 650ZM53 596H170L444 182V596H550V0H441L159 425V0H53Z" glyph-name="ntilde.smcp" horiz-adv-x="603" unicode="&#57977;" /><glyph d="M312 275H501V464H312ZM501 171H312V0H204V171H35V275H204V464H35V568H204V730H312V568H501V730H610V568H782V464H610V275H782V171H610V0H501Z" glyph-name="numbersign" horiz-adv-x="817" unicode="#" /><glyph d="M291 318 466 252 528 416 354 482ZM428 154 250 221 167 0H56L154 259L43 301L44 412L194 354L257 519L44 600V710L294 615L338 730H449L391 578L569 511L652 730H762L664 474L774 432V322L624 378L562 213L773 133V23L524 117L480 0H371Z" glyph-name="numbersign.alt" horiz-adv-x="817" unicode="&#62563;" /><glyph d="M293 90Q325 90 353 102.5Q381 115 402 137Q423 159 435 188Q447 217 447 250Q447 283 435 312Q423 341 402 363Q381 385 353 397.5Q325 410 293 410Q261 410 233 397.5Q205 385 184.5 363Q164 341 152 312Q140 283 140 250Q140 217 152 188Q164 159 184.5 137Q205 115 233 102.5Q261 90 293 90ZM293 -10Q239 -10 192 10Q145 30 109.5 65.5Q74 101 54 148.5Q34 196 34 250Q34 305 54 352.5Q74 400 109.5 435Q145 470 192 490Q239 510 293 510Q347 510 394.5 490Q442 470 477 435Q512 400 532.5 352.5Q553 305 553 250Q553 196 532.5 148.5Q512 101 477 65.5Q442 30 394.5 10Q347 -10 293 -10Z" glyph-name="o" horiz-adv-x="587" unicode="o" /><glyph d="M339 96Q381 96 417 112Q453 128 479.5 155.5Q506 183 521 219.5Q536 256 536 298Q536 340 521 376.5Q506 413 479.5 441Q453 469 417 485Q381 501 339 501Q297 501 261.5 485Q226 469 199.5 441Q173 413 158 376.5Q143 340 143 298Q143 256 158 219.5Q173 183 199 155.5Q225 128 261 112Q297 96 339 96ZM339 -8Q275 -8 219.5 16Q164 40 122.5 81.5Q81 123 57.5 179Q34 235 34 298Q34 361 57.5 417Q81 473 122.5 514.5Q164 556 219.5 580Q275 604 339 604Q402 604 458 580Q514 556 555.5 514.5Q597 473 621 417Q645 361 645 298Q645 235 621 179Q597 123 555.5 81.5Q514 40 458.5 16Q403 -8 339 -8Z" glyph-name="o.smcp" horiz-adv-x="679" unicode="&#57871;" /><glyph d="M293 90Q325 90 353 102.5Q381 115 402 137Q423 159 435 188Q447 217 447 250Q447 283 435 312Q423 341 402 363Q381 385 353 397.5Q325 410 293 410Q261 410 233 397.5Q205 385 184.5 363Q164 341 152 312Q140 283 140 250Q140 217 152 188Q164 159 184.5 137Q205 115 233 102.5Q261 90 293 90ZM293 -10Q239 -10 192 10Q145 30 109.5 65.5Q74 101 54 148.5Q34 196 34 250Q34 305 54 352.5Q74 400 109.5 435Q145 470 192 490Q239 510 293 510Q347 510 394.5 490Q442 470 477 435Q512 400 532.5 352.5Q553 305 553 250Q553 196 532.5 148.5Q512 101 477 65.5Q442 30 394.5 10Q347 -10 293 -10ZM360 720H474L326 554H244Z" glyph-name="oacute" horiz-adv-x="587" unicode="&#243;" /><glyph d="M405 816H519L371 650H289ZM339 96Q381 96 417 112Q453 128 479.5 155.5Q506 183 521 219.5Q536 256 536 298Q536 340 521 376.5Q506 413 479.5 441Q453 469 417 485Q381 501 339 501Q297 501 261.5 485Q226 469 199.5 441Q173 413 158 376.5Q143 340 143 298Q143 256 158 219.5Q173 183 199 155.5Q225 128 261 112Q297 96 339 96ZM339 -8Q275 -8 219.5 16Q164 40 122.5 81.5Q81 123 57.5 179Q34 235 34 298Q34 361 57.5 417Q81 473 122.5 514.5Q164 556 219.5 580Q275 604 339 604Q402 604 458 580Q514 556 555.5 514.5Q597 473 621 417Q645 361 645 298Q645 235 621 179Q597 123 555.5 81.5Q514 40 458.5 16Q403 -8 339 -8Z" glyph-name="oacute.smcp" horiz-adv-x="679" unicode="&#57985;" /><glyph d="M293 549Q252 549 221.5 562Q191 575 171 597.5Q151 620 141.5 650Q132 680 132 715H208Q208 667 229.5 641.5Q251 616 293 615Q334 616 356 641.5Q378 667 378 715H455Q455 680 443.5 650Q432 620 411 597.5Q390 575 360 562Q330 549 293 549ZM293 90Q325 90 353 102.5Q381 115 402 137Q423 159 435 188Q447 217 447 250Q447 283 435 312Q423 341 402 363Q381 385 353 397.5Q325 410 293 410Q261 410 233 397.5Q205 385 184.5 363Q164 341 152 312Q140 283 140 250Q140 217 152 188Q164 159 184.5 137Q205 115 233 102.5Q261 90 293 90ZM293 -10Q239 -10 192 10Q145 30 109.5 65.5Q74 101 54 148.5Q34 196 34 250Q34 305 54 352.5Q74 400 109.5 435Q145 470 192 490Q239 510 293 510Q347 510 394.5 490Q442 470 477 435Q512 400 532.5 352.5Q553 305 553 250Q553 196 532.5 148.5Q512 101 477 65.5Q442 30 394.5 10Q347 -10 293 -10Z" glyph-name="obreve" horiz-adv-x="587" unicode="&#335;" /><glyph d="M338 646Q297 646 266.5 659Q236 672 216 694.5Q196 717 186.5 747Q177 777 177 812H253Q253 764 274.5 738.5Q296 713 338 712Q379 713 401 738.5Q423 764 423 812H500Q500 777 488.5 747Q477 717 456 694.5Q435 672 405 659Q375 646 338 646ZM339 96Q381 96 417 112Q453 128 479.5 155.5Q506 183 521 219.5Q536 256 536 298Q536 340 521 376.5Q506 413 479.5 441Q453 469 417 485Q381 501 339 501Q297 501 261.5 485Q226 469 199.5 441Q173 413 158 376.5Q143 340 143 298Q143 256 158 219.5Q173 183 199 155.5Q225 128 261 112Q297 96 339 96ZM339 -8Q275 -8 219.5 16Q164 40 122.5 81.5Q81 123 57.5 179Q34 235 34 298Q34 361 57.5 417Q81 473 122.5 514.5Q164 556 219.5 580Q275 604 339 604Q402 604 458 580Q514 556 555.5 514.5Q597 473 621 417Q645 361 645 298Q645 235 621 179Q597 123 555.5 81.5Q514 40 458.5 16Q403 -8 339 -8Z" glyph-name="obreve.smcp" horiz-adv-x="679" unicode="&#57992;" /><glyph d="M255 720H330L449 554H358L292 648L228 554H136ZM293 90Q325 90 353 102.5Q381 115 402 137Q423 159 435 188Q447 217 447 250Q447 283 435 312Q423 341 402 363Q381 385 353 397.5Q325 410 293 410Q261 410 233 397.5Q205 385 184.5 363Q164 341 152 312Q140 283 140 250Q140 217 152 188Q164 159 184.5 137Q205 115 233 102.5Q261 90 293 90ZM293 -10Q239 -10 192 10Q145 30 109.5 65.5Q74 101 54 148.5Q34 196 34 250Q34 305 54 352.5Q74 400 109.5 435Q145 470 192 490Q239 510 293 510Q347 510 394.5 490Q442 470 477 435Q512 400 532.5 352.5Q553 305 553 250Q553 196 532.5 148.5Q512 101 477 65.5Q442 30 394.5 10Q347 -10 293 -10Z" glyph-name="ocircumflex" horiz-adv-x="587" unicode="&#244;" /><glyph d="M301 814H376L495 648H404L338 742L274 648H182ZM339 96Q381 96 417 112Q453 128 479.5 155.5Q506 183 521 219.5Q536 256 536 298Q536 340 521 376.5Q506 413 479.5 441Q453 469 417 485Q381 501 339 501Q297 501 261.5 485Q226 469 199.5 441Q173 413 158 376.5Q143 340 143 298Q143 256 158 219.5Q173 183 199 155.5Q225 128 261 112Q297 96 339 96ZM339 -8Q275 -8 219.5 16Q164 40 122.5 81.5Q81 123 57.5 179Q34 235 34 298Q34 361 57.5 417Q81 473 122.5 514.5Q164 556 219.5 580Q275 604 339 604Q402 604 458 580Q514 556 555.5 514.5Q597 473 621 417Q645 361 645 298Q645 235 621 179Q597 123 555.5 81.5Q514 40 458.5 16Q403 -8 339 -8Z" glyph-name="ocircumflex.smcp" horiz-adv-x="679" unicode="&#57987;" /><glyph d="M293 90Q325 90 353 102.5Q381 115 402 137Q423 159 435 188Q447 217 447 250Q447 283 435 312Q423 341 402 363Q381 385 353 397.5Q325 410 293 410Q261 410 233 397.5Q205 385 184.5 363Q164 341 152 312Q140 283 140 250Q140 217 152 188Q164 159 184.5 137Q205 115 233 102.5Q261 90 293 90ZM293 -10Q239 -10 192 10Q145 30 109.5 65.5Q74 101 54 148.5Q34 196 34 250Q34 305 54 352.5Q74 400 109.5 435Q145 470 192 490Q239 510 293 510Q347 510 394.5 490Q442 470 477 435Q512 400 532.5 352.5Q553 305 553 250Q553 196 532.5 148.5Q512 101 477 65.5Q442 30 394.5 10Q347 -10 293 -10ZM161 696H268V558H161ZM322 696H429V558H322Z" glyph-name="odieresis" horiz-adv-x="587" unicode="&#246;" /><glyph d="M206 791H313V653H206ZM367 791H474V653H367ZM339 96Q381 96 417 112Q453 128 479.5 155.5Q506 183 521 219.5Q536 256 536 298Q536 340 521 376.5Q506 413 479.5 441Q453 469 417 485Q381 501 339 501Q297 501 261.5 485Q226 469 199.5 441Q173 413 158 376.5Q143 340 143 298Q143 256 158 219.5Q173 183 199 155.5Q225 128 261 112Q297 96 339 96ZM339 -8Q275 -8 219.5 16Q164 40 122.5 81.5Q81 123 57.5 179Q34 235 34 298Q34 361 57.5 417Q81 473 122.5 514.5Q164 556 219.5 580Q275 604 339 604Q402 604 458 580Q514 556 555.5 514.5Q597 473 621 417Q645 361 645 298Q645 235 621 179Q597 123 555.5 81.5Q514 40 458.5 16Q403 -8 339 -8Z" glyph-name="odieresis.smcp" horiz-adv-x="679" unicode="&#57988;" /><glyph d="M709 416Q653 416 613.5 385.5Q574 355 558 306H857Q843 359 804.5 387.5Q766 416 709 416ZM293 90Q326 90 354 102.5Q382 115 403 137Q424 159 436 188Q448 217 448 250Q448 283 436 312.5Q424 342 403 363.5Q382 385 354 397.5Q326 410 293 410Q260 410 232 397.5Q204 385 183.5 363.5Q163 342 151 312.5Q139 283 139 250Q139 217 151 188Q163 159 183.5 137Q204 115 232 102.5Q260 90 293 90ZM293 -10Q239 -10 192 10Q145 30 109.5 65.5Q74 101 54 148.5Q34 196 34 250Q34 305 54 352.5Q74 400 109.5 435Q145 470 192 490Q239 510 293 510Q359 510 413 481Q467 452 501 404Q534 452 587 481Q640 510 708 510Q763 510 810.5 491Q858 472 892.5 438Q927 404 946.5 357Q966 310 966 254V216H551Q561 157 604.5 121Q648 85 714 85Q765 85 803.5 110.5Q842 136 862 178L952 138Q920 70 858.5 30Q797 -10 713 -10Q641 -10 586 18Q531 46 499 94Q465 46 412 18Q359 -10 293 -10Z" glyph-name="oe" horiz-adv-x="1001" unicode="&#339;" /><glyph d="M339 96Q381 96 417 112Q453 128 479.5 155.5Q506 183 521 219.5Q536 256 536 298Q536 340 521 376.5Q506 413 479.5 441Q453 469 417 485Q381 501 339 501Q297 501 261.5 485Q226 469 199.5 441Q173 413 158 376.5Q143 340 143 298Q143 256 158 219.5Q173 183 199 155.5Q225 128 261 112Q297 96 339 96ZM538 74Q500 36 450 14Q400 -8 339 -8Q275 -8 219.5 16Q164 40 122.5 81.5Q81 123 57.5 179Q34 235 34 298Q34 361 57.5 417Q81 473 122.5 514.5Q164 556 219.5 580Q275 604 339 604Q400 604 450 581.5Q500 559 538 521V596H894V496H644V349H894V249H644V101H894V0H538Z" glyph-name="oe.smcp" horiz-adv-x="937" unicode="&#58008;" /><glyph d="M237 -222Q174 -222 136 -192Q98 -162 98 -117Q98 -98 105 -79.5Q112 -61 128.5 -42Q145 -23 173 -3.5Q201 16 243 37L315 -1Q276 -26 251 -42.5Q226 -59 212 -71Q198 -83 193 -93Q188 -103 188 -113Q188 -131 202.5 -139.5Q217 -148 237 -148Q260 -148 275 -138.5Q290 -129 304 -117L375 -165Q349 -188 311.5 -205Q274 -222 237 -222Z" glyph-name="ogonek" horiz-adv-x="485" unicode="&#731;" /><glyph d="M109 720H223L339 554H257ZM293 90Q325 90 353 102.5Q381 115 402 137Q423 159 435 188Q447 217 447 250Q447 283 435 312Q423 341 402 363Q381 385 353 397.5Q325 410 293 410Q261 410 233 397.5Q205 385 184.5 363Q164 341 152 312Q140 283 140 250Q140 217 152 188Q164 159 184.5 137Q205 115 233 102.5Q261 90 293 90ZM293 -10Q239 -10 192 10Q145 30 109.5 65.5Q74 101 54 148.5Q34 196 34 250Q34 305 54 352.5Q74 400 109.5 435Q145 470 192 490Q239 510 293 510Q347 510 394.5 490Q442 470 477 435Q512 400 532.5 352.5Q553 305 553 250Q553 196 532.5 148.5Q512 101 477 65.5Q442 30 394.5 10Q347 -10 293 -10Z" glyph-name="ograve" horiz-adv-x="587" unicode="&#242;" /><glyph d="M157 816H271L387 650H305ZM339 96Q381 96 417 112Q453 128 479.5 155.5Q506 183 521 219.5Q536 256 536 298Q536 340 521 376.5Q506 413 479.5 441Q453 469 417 485Q381 501 339 501Q297 501 261.5 485Q226 469 199.5 441Q173 413 158 376.5Q143 340 143 298Q143 256 158 219.5Q173 183 199 155.5Q225 128 261 112Q297 96 339 96ZM339 -8Q275 -8 219.5 16Q164 40 122.5 81.5Q81 123 57.5 179Q34 235 34 298Q34 361 57.5 417Q81 473 122.5 514.5Q164 556 219.5 580Q275 604 339 604Q402 604 458 580Q514 556 555.5 514.5Q597 473 621 417Q645 361 645 298Q645 235 621 179Q597 123 555.5 81.5Q514 40 458.5 16Q403 -8 339 -8Z" glyph-name="ograve.smcp" horiz-adv-x="679" unicode="&#57986;" /><glyph d="M26 104H224Q200 132 176.5 166.5Q153 201 134.5 240.5Q116 280 104.5 324.5Q93 369 93 417Q93 484 118 543Q143 602 186 646Q229 690 287.5 715.5Q346 741 414 741Q481 741 540 715.5Q599 690 642.5 646.5Q686 603 711.5 543.5Q737 484 737 417Q737 369 725.5 324.5Q714 280 695.5 240.5Q677 201 653.5 166.5Q630 132 606 104H803V0H509L464 91Q497 131 527 169Q557 207 579 246.5Q601 286 614 328Q627 370 627 419Q627 466 610.5 506.5Q594 547 565.5 577Q537 607 498 624Q459 641 414 641Q369 641 330.5 624Q292 607 263.5 577Q235 547 219 506.5Q203 466 203 419Q203 370 216 328Q229 286 251 246.5Q273 207 303 169Q333 131 366 91L326 0H26Z" glyph-name="ohm" horiz-adv-x="829" unicode="&#59425;" /><glyph d="M293 90Q325 90 353 102.5Q381 115 402 137Q423 159 435 188Q447 217 447 250Q447 283 435 312Q423 341 402 363Q381 385 353 397.5Q325 410 293 410Q261 410 233 397.5Q205 385 184.5 363Q164 341 152 312Q140 283 140 250Q140 217 152 188Q164 159 184.5 137Q205 115 233 102.5Q261 90 293 90ZM293 -10Q239 -10 192 10Q145 30 109.5 65.5Q74 101 54 148.5Q34 196 34 250Q34 305 54 352.5Q74 400 109.5 435Q145 470 192 490Q239 510 293 510Q347 510 394.5 490Q442 470 477 435Q512 400 532.5 352.5Q553 305 553 250Q553 196 532.5 148.5Q512 101 477 65.5Q442 30 394.5 10Q347 -10 293 -10ZM446 720H554L406 554H330ZM291 720H399L251 554H176Z" glyph-name="ohungarumlaut" horiz-adv-x="587" unicode="&#337;" /><glyph d="M487 814H595L447 648H371ZM332 814H440L292 648H217ZM339 96Q381 96 417 112Q453 128 479.5 155.5Q506 183 521 219.5Q536 256 536 298Q536 340 521 376.5Q506 413 479.5 441Q453 469 417 485Q381 501 339 501Q297 501 261.5 485Q226 469 199.5 441Q173 413 158 376.5Q143 340 143 298Q143 256 158 219.5Q173 183 199 155.5Q225 128 261 112Q297 96 339 96ZM339 -8Q275 -8 219.5 16Q164 40 122.5 81.5Q81 123 57.5 179Q34 235 34 298Q34 361 57.5 417Q81 473 122.5 514.5Q164 556 219.5 580Q275 604 339 604Q402 604 458 580Q514 556 555.5 514.5Q597 473 621 417Q645 361 645 298Q645 235 621 179Q597 123 555.5 81.5Q514 40 458.5 16Q403 -8 339 -8Z" glyph-name="ohungarumlaut.smcp" horiz-adv-x="679" unicode="&#57994;" /><glyph d="M293 90Q325 90 353 102.5Q381 115 402 137Q423 159 435 188Q447 217 447 250Q447 283 435 312Q423 341 402 363Q381 385 353 397.5Q325 410 293 410Q261 410 233 397.5Q205 385 184.5 363Q164 341 152 312Q140 283 140 250Q140 217 152 188Q164 159 184.5 137Q205 115 233 102.5Q261 90 293 90ZM293 -10Q239 -10 192 10Q145 30 109.5 65.5Q74 101 54 148.5Q34 196 34 250Q34 305 54 352.5Q74 400 109.5 435Q145 470 192 490Q239 510 293 510Q347 510 394.5 490Q442 470 477 435Q512 400 532.5 352.5Q553 305 553 250Q553 196 532.5 148.5Q512 101 477 65.5Q442 30 394.5 10Q347 -10 293 -10ZM162 631H426V554H162Z" glyph-name="omacron" horiz-adv-x="587" unicode="&#333;" /><glyph d="M207 727H471V650H207ZM339 96Q381 96 417 112Q453 128 479.5 155.5Q506 183 521 219.5Q536 256 536 298Q536 340 521 376.5Q506 413 479.5 441Q453 469 417 485Q381 501 339 501Q297 501 261.5 485Q226 469 199.5 441Q173 413 158 376.5Q143 340 143 298Q143 256 158 219.5Q173 183 199 155.5Q225 128 261 112Q297 96 339 96ZM339 -8Q275 -8 219.5 16Q164 40 122.5 81.5Q81 123 57.5 179Q34 235 34 298Q34 361 57.5 417Q81 473 122.5 514.5Q164 556 219.5 580Q275 604 339 604Q402 604 458 580Q514 556 555.5 514.5Q597 473 621 417Q645 361 645 298Q645 235 621 179Q597 123 555.5 81.5Q514 40 458.5 16Q403 -8 339 -8Z" glyph-name="omacron.smcp" horiz-adv-x="679" unicode="&#57991;" /><glyph d="M44 104H239V549Q222 525 188 511Q154 497 120 497H109V610H114Q150 610 174.5 621.5Q199 633 214.5 650.5Q230 668 236.5 689Q243 710 243 730H347V104H545V0H44Z" glyph-name="one" horiz-adv-x="588" unicode="1" /><glyph d="M39 104H184V550Q167 525 133.5 511Q100 497 66 497H54V610H59Q95 610 119.5 621.5Q144 633 159.5 650.5Q175 668 181.5 689Q188 710 188 730H293V104H435V0H39Z" glyph-name="one.LP" horiz-adv-x="466" unicode="&#58678;" /><glyph d="M44 104H239V549Q222 525 188 511Q154 497 120 497H109V610H114Q150 610 174.5 621.5Q199 633 214.5 650.5Q230 668 236.5 689Q243 710 243 730H347V104H545V0H44Z" glyph-name="one.LT" horiz-adv-x="588" unicode="&#58689;" /><glyph d="M23 87H105V290Q95 276 77 268.5Q59 261 39 261H33V352H36Q57 352 71 358.5Q85 365 93 375.5Q101 386 104.5 398.5Q108 411 108 422H198V87H277V0H23Z" glyph-name="one.inf" horiz-adv-x="296" unicode="&#58738;" /><glyph d="M23 395H105V598Q95 584 77 576.5Q59 569 39 569H33V660H36Q57 660 71 666.5Q85 673 93 683.5Q101 694 104.5 706.5Q108 719 108 730H198V395H277V308H23ZM546 75Q546 104 556 127Q566 150 582.5 168Q599 186 619.5 200.5Q640 215 660 227Q692 247 715.5 264.5Q739 282 739 305Q739 323 726 335.5Q713 348 687 348Q661 348 644 331Q627 314 617 291L538 332Q558 377 596 402.5Q634 428 688 428Q721 428 748 418.5Q775 409 794 392.5Q813 376 823.5 353.5Q834 331 834 305Q834 277 823.5 255.5Q813 234 797 217Q781 200 760.5 186.5Q740 173 721 161Q691 143 668 126Q645 109 643 87H833V0H546ZM624 730H749L222 0H97Z" glyph-name="onehalf" horiz-adv-x="859" unicode="&#189;" /><glyph d="M660 171V284L581 171ZM23 395H105V598Q95 584 77 576.5Q59 569 39 569H33V660H36Q57 660 71 666.5Q85 673 93 683.5Q101 694 104.5 706.5Q108 719 108 730H198V395H277V308H23ZM660 90H484V173L658 422H748V171H809V90H748V0H660ZM624 730H749L222 0H97Z" glyph-name="onequarter" horiz-adv-x="832" unicode="&#188;" /><glyph d="M936 79Q963 79 983 98.5Q1003 118 1003 147Q1003 175 983 194Q963 213 936 213Q908 213 889 194Q870 175 870 146Q870 118 889 98.5Q908 79 936 79ZM510 87H593V290Q583 276 565 268.5Q547 261 527 261H520V352H523Q544 352 558 358.5Q572 365 580.5 375.5Q589 386 592.5 398.5Q596 411 596 422H685V87H764V0H510ZM23 395H105V598Q95 584 77 576.5Q59 569 39 569H33V660H36Q57 660 71 666.5Q85 673 93 683.5Q101 694 104.5 706.5Q108 719 108 730H198V395H277V308H23ZM624 730H749L222 0H97ZM936 -6Q901 -6 872 5.5Q843 17 822 37.5Q801 58 789.5 85.5Q778 113 778 145Q778 176 788.5 206Q799 236 815 260L918 422H1025L942 293Q945 294 953 294Q982 294 1008 283Q1034 272 1053 252.5Q1072 233 1083 205.5Q1094 178 1094 145Q1094 112 1082.5 84.5Q1071 57 1050 37Q1029 17 999.5 5.5Q970 -6 936 -6Z" glyph-name="onesixteenth" horiz-adv-x="1112" unicode="&#61973;" /><glyph d="M23 395H105V598Q95 584 77 576.5Q59 569 39 569H33V660H36Q57 660 71 666.5Q85 673 93 683.5Q101 694 104.5 706.5Q108 719 108 730H198V395H277V308H23Z" glyph-name="onesuperior" horiz-adv-x="296" unicode="&#185;" /><glyph d="M44 299H364V206H44Z" glyph-name="onethirdemdash" horiz-adv-x="407" unicode="&#58481;" /><glyph d="M44 354H364V261H44Z" glyph-name="onethirdemdash.cap" horiz-adv-x="407" unicode="&#58499;" /><glyph d="M191 508Q223 508 244 531Q265 554 265 586Q265 618 244 640.5Q223 663 191 663Q158 663 136 641.5Q114 620 114 586Q114 553 136 530.5Q158 508 191 508ZM173 435Q150 435 125.5 444Q101 453 81 472Q61 491 48.5 519Q36 547 36 585Q36 624 49 652Q62 680 82 699Q102 718 126.5 727Q151 736 174 736Q203 736 225 726Q247 716 262 700V730H341V441H262V473Q246 456 223.5 445.5Q201 435 173 435Z" glyph-name="ordfeminine" horiz-adv-x="386" unicode="&#170;" /><glyph d="M155 498Q173 498 189 504.5Q205 511 218 520Q231 529 239.5 539.5Q248 550 250 559V586Q240 578 220.5 572Q201 566 179 560Q150 552 135 543.5Q120 535 120 521Q120 511 130 504.5Q140 498 155 498ZM143 435Q91 435 63.5 458Q36 481 36 520Q36 543 45.5 559Q55 575 72 586.5Q89 598 112 605.5Q135 613 162 619Q194 625 219 631Q244 637 244 650Q244 675 190 675Q160 675 143 665Q126 655 126 635V633H43Q43 680 82.5 708Q122 736 190 736Q264 736 295 708.5Q326 681 326 636V441H247V473Q228 456 202.5 445.5Q177 435 143 435Z" glyph-name="ordfeminine.alt" horiz-adv-x="370" unicode="&#59686;" /><glyph d="M158 555H215L187 633ZM142 730H231L338 440H256L239 487H134L117 440H36Z" glyph-name="ordfeminine.smcp" horiz-adv-x="372" unicode="&#58193;" /><glyph d="M186 511Q217 511 237.5 533Q258 555 258 585Q258 617 237.5 639Q217 661 186 661Q155 661 134 639Q113 617 113 585Q113 555 134 533Q155 511 186 511ZM186 435Q155 435 127.5 447Q100 459 80 479Q60 499 48 526.5Q36 554 36 585Q36 616 48 644Q60 672 80 692Q100 712 127.5 724Q155 736 186 736Q217 736 244 724Q271 712 291.5 692Q312 672 323.5 644Q335 616 335 585Q335 554 323.5 526.5Q312 499 291.5 479Q271 459 244 447Q217 435 186 435Z" glyph-name="ordmasculine" horiz-adv-x="371" unicode="&#186;" /><glyph d="M186 511Q217 511 237.5 533Q258 555 258 585Q258 617 237.5 639Q217 661 186 661Q155 661 134 639Q113 617 113 585Q113 555 134 533Q155 511 186 511ZM186 435Q155 435 127.5 447Q100 459 80 479Q60 499 48 526.5Q36 554 36 585Q36 616 48 644Q60 672 80 692Q100 712 127.5 724Q155 736 186 736Q217 736 244 724Q271 712 291.5 692Q312 672 323.5 644Q335 616 335 585Q335 554 323.5 526.5Q312 499 291.5 479Q271 459 244 447Q217 435 186 435Z" glyph-name="ordmasculine.smcp" horiz-adv-x="371" unicode="&#58194;" /><glyph d="M139 250Q139 199 165 159L353 398Q326 410 293 410Q260 410 232 397.5Q204 385 183.5 363.5Q163 342 151 312.5Q139 283 139 250ZM293 90Q326 90 354 102.5Q382 115 403 137Q424 159 436 188Q448 217 448 250Q448 302 420 342L232 102Q259 90 293 90ZM293 -10Q225 -10 168 21L151 0H40L100 76Q69 111 51.5 155Q34 199 34 250Q34 305 54 352.5Q74 400 109.5 435Q145 470 192 490Q239 510 293 510Q360 510 417 479L434 500H545L486 425Q517 390 535 345.5Q553 301 553 250Q553 196 532.5 148.5Q512 101 477 65.5Q442 30 394.5 10Q347 -10 293 -10Z" glyph-name="oslash" horiz-adv-x="587" unicode="&#248;" /><glyph d="M339 97Q381 97 417 113Q453 129 479.5 156.5Q506 184 521 220.5Q536 257 536 298Q536 331 526 361.5Q516 392 498 418L255 115Q292 97 339 97ZM142 298Q142 229 181 176L425 479Q385 499 339 499Q297 499 261 483Q225 467 198.5 439.5Q172 412 157 375.5Q142 339 142 298ZM339 -8Q256 -8 187 32L162 0H40L113 91Q76 133 55 185.5Q34 238 34 298Q34 361 57.5 417Q81 473 122.5 514.5Q164 556 219.5 580Q275 604 339 604Q381 604 419.5 593Q458 582 492 562L519 596H641L566 503Q603 461 624 409.5Q645 358 645 298Q645 235 621 179Q597 123 555.5 81.5Q514 40 458.5 16Q403 -8 339 -8Z" glyph-name="oslash.smcp" horiz-adv-x="679" unicode="&#58005;" /><glyph d="M361 720H475L327 554H245ZM139 250Q139 199 165 159L353 398Q326 410 293 410Q260 410 232 397.5Q204 385 183.5 363.5Q163 342 151 312.5Q139 283 139 250ZM293 90Q326 90 354 102.5Q382 115 403 137Q424 159 436 188Q448 217 448 250Q448 302 420 342L232 102Q259 90 293 90ZM293 -10Q225 -10 168 21L151 0H40L100 76Q69 111 51.5 155Q34 199 34 250Q34 305 54 352.5Q74 400 109.5 435Q145 470 192 490Q239 510 293 510Q360 510 417 479L434 500H545L486 425Q517 390 535 345.5Q553 301 553 250Q553 196 532.5 148.5Q512 101 477 65.5Q442 30 394.5 10Q347 -10 293 -10Z" glyph-name="oslashacute" horiz-adv-x="587" unicode="&#511;" /><glyph d="M404 816H518L370 650H288ZM339 97Q381 97 417 113Q453 129 479.5 156.5Q506 184 521 220.5Q536 257 536 298Q536 331 526 361.5Q516 392 498 418L255 115Q292 97 339 97ZM142 298Q142 229 181 176L425 479Q385 499 339 499Q297 499 261 483Q225 467 198.5 439.5Q172 412 157 375.5Q142 339 142 298ZM339 -8Q256 -8 187 32L162 0H40L113 91Q76 133 55 185.5Q34 238 34 298Q34 361 57.5 417Q81 473 122.5 514.5Q164 556 219.5 580Q275 604 339 604Q381 604 419.5 593Q458 582 492 562L519 596H641L566 503Q603 461 624 409.5Q645 358 645 298Q645 235 621 179Q597 123 555.5 81.5Q514 40 458.5 16Q403 -8 339 -8Z" glyph-name="oslashacute.smcp" horiz-adv-x="680" unicode="&#58006;" /><glyph d="M126 554Q126 612 153.5 647Q181 682 228 682Q253 682 271.5 674Q290 666 307 656Q322 646 336 638Q350 630 364 630Q397 630 397 678H468Q468 619 442 584.5Q416 550 365 550Q336 550 315 560.5Q294 571 276 582Q263 590 252.5 595.5Q242 601 228 601Q197 601 197 554ZM293 90Q325 90 353 102.5Q381 115 402 137Q423 159 435 188Q447 217 447 250Q447 283 435 312Q423 341 402 363Q381 385 353 397.5Q325 410 293 410Q261 410 233 397.5Q205 385 184.5 363Q164 341 152 312Q140 283 140 250Q140 217 152 188Q164 159 184.5 137Q205 115 233 102.5Q261 90 293 90ZM293 -10Q239 -10 192 10Q145 30 109.5 65.5Q74 101 54 148.5Q34 196 34 250Q34 305 54 352.5Q74 400 109.5 435Q145 470 192 490Q239 510 293 510Q347 510 394.5 490Q442 470 477 435Q512 400 532.5 352.5Q553 305 553 250Q553 196 532.5 148.5Q512 101 477 65.5Q442 30 394.5 10Q347 -10 293 -10Z" glyph-name="otilde" horiz-adv-x="587" unicode="&#245;" /><glyph d="M174 650Q174 708 201.5 743Q229 778 276 778Q301 778 319.5 770Q338 762 355 752Q370 742 384 734Q398 726 412 726Q445 726 445 774H516Q516 715 490 680.5Q464 646 413 646Q384 646 363 656.5Q342 667 324 678Q311 686 300.5 691.5Q290 697 276 697Q245 697 245 650ZM339 96Q381 96 417 112Q453 128 479.5 155.5Q506 183 521 219.5Q536 256 536 298Q536 340 521 376.5Q506 413 479.5 441Q453 469 417 485Q381 501 339 501Q297 501 261.5 485Q226 469 199.5 441Q173 413 158 376.5Q143 340 143 298Q143 256 158 219.5Q173 183 199 155.5Q225 128 261 112Q297 96 339 96ZM339 -8Q275 -8 219.5 16Q164 40 122.5 81.5Q81 123 57.5 179Q34 235 34 298Q34 361 57.5 417Q81 473 122.5 514.5Q164 556 219.5 580Q275 604 339 604Q402 604 458 580Q514 556 555.5 514.5Q597 473 621 417Q645 361 645 298Q645 235 621 179Q597 123 555.5 81.5Q514 40 458.5 16Q403 -8 339 -8Z" glyph-name="otilde.smcp" horiz-adv-x="679" unicode="&#57989;" /><glyph d="M339 96Q381 96 417 112Q453 128 479.5 155.5Q506 183 521 219.5Q536 256 536 298Q536 340 521 376.5Q506 413 479.5 441Q453 469 417 485Q381 501 339 501Q297 501 261.5 485Q226 469 199.5 441Q173 413 158 376.5Q143 340 143 298Q143 256 158 219.5Q173 183 199 155.5Q225 128 261 112Q297 96 339 96ZM339 -8Q275 -8 219.5 16Q164 40 122.5 81.5Q81 123 57.5 179Q34 235 34 298Q34 361 57.5 417Q81 473 122.5 514.5Q164 556 219.5 580Q275 604 339 604Q402 604 458 580Q514 556 555.5 514.5Q597 473 621 417Q645 361 645 298Q645 235 621 179Q597 123 555.5 81.5Q514 40 458.5 16Q403 -8 339 -8ZM47 596H142V570Q98 540 68 496H47ZM613 496Q583 540 539 570V596H634V496Z" glyph-name="oumlaut.smcp" horiz-adv-x="679" unicode="&#61824;" /><glyph d="M309 88Q342 88 371 100.5Q400 113 421.5 135Q443 157 455 187Q467 217 467 251Q467 285 455 314.5Q443 344 421.5 366Q400 388 371 400.5Q342 413 309 413Q275 413 246 400Q217 387 196 365Q175 343 163 313.5Q151 284 151 251Q151 217 163 187.5Q175 158 196 136Q217 114 246 101Q275 88 309 88ZM325 -10Q273 -10 228.5 8.5Q184 27 157 62V-230H51V500H157V430Q185 467 229 488.5Q273 510 324 510Q373 510 418 492Q463 474 497.5 440Q532 406 552.5 358Q573 310 573 250Q573 190 552 142Q531 94 496.5 60.5Q462 27 417 8.5Q372 -10 325 -10Z" glyph-name="p" horiz-adv-x="605" unicode="p" /><glyph d="M160 497V270H245Q299 270 331 302.5Q363 335 363 384Q363 433 331 465Q299 497 245 497ZM53 596H250Q299 596 340 579.5Q381 563 410 534.5Q439 506 455 467Q471 428 471 384Q471 340 455 301Q439 262 410 233Q381 204 340 187Q299 170 249 170H160V0H53Z" glyph-name="p.smcp" horiz-adv-x="506" unicode="&#57856;" /><glyph d="M337 302H246Q199 302 159.5 318.5Q120 335 91 364Q62 393 45.5 432Q29 471 29 516Q29 561 45.5 600Q62 639 91 668Q120 697 159.5 713.5Q199 730 245 730H584V0H490V630H430V0H337Z" glyph-name="paragraph" horiz-adv-x="632" unicode="&#182;" /><glyph d="M313 -251Q253 -210 202.5 -159.5Q152 -109 114.5 -47Q77 15 56 89Q35 163 35 250Q35 338 55.5 410.5Q76 483 112 543Q148 603 197.5 653Q247 703 306 746L379 666Q329 631 287 589.5Q245 548 214 497Q183 446 166 385Q149 324 149 251Q149 180 165.5 119.5Q182 59 212 8Q242 -43 285 -85.5Q328 -128 382 -163Z" glyph-name="parenleft" horiz-adv-x="409" unicode="(" /><glyph d="M313 -142Q253 -101 202.5 -50.5Q152 0 114.5 62Q77 124 56 198Q35 272 35 359Q35 447 55.5 519.5Q76 592 112 652Q148 712 197.5 762Q247 812 306 855L379 775Q329 740 287 698.5Q245 657 214 606Q183 555 166 494Q149 433 149 360Q149 289 165.5 228.5Q182 168 212 117Q242 66 285 23.5Q328 -19 382 -54Z" glyph-name="parenleft.cap" horiz-adv-x="409" unicode="&#58513;" /><glyph d="M177 -77Q103 -23 64 48Q25 119 25 214Q25 310 65 380Q105 450 176 504L233 429Q179 390 148.5 337.5Q118 285 118 214Q118 144 149 91.5Q180 39 234 -1Z" glyph-name="parenleft.inf" horiz-adv-x="268" unicode="&#58750;" /><glyph d="M253 -97Q150 -27 92.5 69Q35 165 35 297Q35 363 49.5 418.5Q64 474 91 521Q118 568 156.5 607.5Q195 647 244 682L309 598Q273 573 242.5 542.5Q212 512 190.5 474.5Q169 437 156.5 393Q144 349 144 297Q144 196 189 122Q234 48 312 -3Z" glyph-name="parenleft.smcp" horiz-adv-x="317" unicode="&#58521;" /><glyph d="M260 249Q260 322 243 383Q226 444 195 495Q164 546 122 588Q80 630 30 664L103 745Q161 702 211 652Q261 602 297 541.5Q333 481 353.5 408.5Q374 336 374 249Q374 162 353 88Q332 14 294.5 -48Q257 -110 206.5 -160.5Q156 -211 96 -252L27 -165Q81 -130 124 -87.5Q167 -45 197 6Q227 57 243.5 117.5Q260 178 260 249Z" glyph-name="parenright" horiz-adv-x="409" unicode=")" /><glyph d="M27 -54Q81 -19 124 23.5Q167 66 197 117Q227 168 243.5 228Q260 288 260 359Q260 432 243 493.5Q226 555 195 606Q164 657 122 698.5Q80 740 30 775L103 855Q161 812 211 762Q261 712 297 652Q333 592 353.5 519.5Q374 447 374 359Q374 272 353 198Q332 124 294.5 62Q257 0 206.5 -50.5Q156 -101 96 -142Z" glyph-name="parenright.cap" horiz-adv-x="409" unicode="&#58514;" /><glyph d="M35 -1Q89 39 119.5 91.5Q150 144 150 214Q150 285 119.5 337.5Q89 390 35 429L93 504Q164 450 204 380Q244 310 244 214Q244 119 204.5 48Q165 -23 92 -77Z" glyph-name="parenright.inf" horiz-adv-x="268" unicode="&#58751;" /></font>
</defs>
</svg>
